<?xml version="1.0" encoding="utf-8"?>
<!-- Generator: Adobe Illustrator 16.0.0, SVG Export Plug-In . SVG Version: 6.00 Build 0)  -->
<!DOCTYPE svg PUBLIC "-//W3C//DTD SVG 1.1//EN" "http://www.w3.org/Graphics/SVG/1.1/DTD/svg11.dtd">
<svg version="1.1" id="color" xmlns="http://www.w3.org/2000/svg" xmlns:xlink="http://www.w3.org/1999/xlink" x="0px" y="0px"
	 width="127.559px" height="127.559px" viewBox="-20.279 333.721 127.559 127.559"
	 enable-background="new -20.279 333.721 127.559 127.559" xml:space="preserve">
<g>
	<g>
		<path fill="#d3d3d3" d="M14.563,366.791H-1.972c-2.608,0-4.725-2.116-4.725-4.725c0-2.607,2.117-4.724,4.725-4.724h16.535
			c2.608,0,4.725,2.116,4.725,4.724C19.288,364.675,17.171,366.791,14.563,366.791z"/>
		<path fill="#d3d3d3" d="M14.563,390.413H-1.972c-2.608,0-4.725-2.116-4.725-4.725s2.117-4.724,4.725-4.724h16.535
			c2.608,0,4.725,2.115,4.725,4.724S17.171,390.413,14.563,390.413z"/>
		<path fill="#d3d3d3" d="M14.563,414.035H-1.972c-2.608,0-4.725-2.115-4.725-4.724s2.117-4.725,4.725-4.725h16.535
			c2.608,0,4.725,2.116,4.725,4.725S17.171,414.035,14.563,414.035z"/>
		<path fill="#d3d3d3" d="M14.563,437.657H-1.972c-2.608,0-4.725-2.116-4.725-4.724c0-2.608,2.117-4.725,4.725-4.725h16.535
			c2.608,0,4.725,2.116,4.725,4.725C19.288,435.541,17.171,437.657,14.563,437.657z"/>
	</g>
	<path fill="#eeeeee" d="M80.705,454.193H16.925c-7.167,0-12.992-5.826-12.992-12.993v-87.4c0-7.167,5.826-12.993,12.992-12.993
		h63.779c7.167,0,12.992,5.826,12.992,12.993v87.4C93.697,448.367,87.872,454.193,80.705,454.193z"/>
	<path fill="#1190cb" d="M74.799,411.674H32.28c-2.608,0-4.725-2.117-4.725-4.725c0-2.608,2.116-4.725,4.725-4.725h42.52
		c2.607,0,4.724,2.116,4.724,4.725C79.523,409.557,77.407,411.674,74.799,411.674z"/>
	<path fill="#1190cb" d="M74.799,430.57H32.28c-2.608,0-4.725-2.116-4.725-4.725c0-2.607,2.116-4.725,4.725-4.725h42.52
		c2.607,0,4.724,2.117,4.724,4.725C79.523,428.454,77.407,430.57,74.799,430.57z"/>
	<path fill="#1190cb" d="M74.799,392.775H32.28c-2.608,0-4.725-2.116-4.725-4.725c0-2.607,2.116-4.725,4.725-4.725h42.52
		c2.607,0,4.724,2.117,4.724,4.725C79.523,390.659,77.407,392.775,74.799,392.775z"/>
	<path fill="#1190cb" d="M51.177,373.879H32.28c-2.608,0-4.725-2.118-4.725-4.725c0-2.608,2.116-4.725,4.725-4.725h18.897
		c2.608,0,4.724,2.116,4.724,4.725C55.901,371.761,53.785,373.879,51.177,373.879z"/>
</g>
</svg>
