<svg viewBox="0 0 512 512" xmlns="http://www.w3.org/2000/svg" xmlns:xlink="http://www.w3.org/1999/xlink"><linearGradient id="a" gradientUnits="userSpaceOnUse" x1="9.5%" x2="100%" y1="13%" y2="68%"><stop offset="0" stop-color="#21ffff"/><stop offset="0.8" stop-color="#1190cb"/></linearGradient><path d="m512 256c0 141.386719-114.613281 256-256 256s-256-114.613281-256-256 114.613281-256 256-256 256 114.613281 256 256zm0 0" fill="url(#a)"/><g fill="#fff"><path d="m403.199219 342.0625c-8.144531 1.523438-13.507813 9.363281-11.980469 17.503906.902344 4.8125-.375 9.730469-3.496094 13.496094-3.164062 3.808594-7.628906 5.90625-12.578125 5.90625h-237.988281c-4.945312 0-9.414062-2.101562-12.574219-5.910156-3.125-3.761719-4.398437-8.679688-3.496093-13.492188 4.46875-23.839844 13.417968-39.5 22.078124-54.644531 10.433594-18.253906 21.226563-37.128906 21.226563-66.167969v-23.519531c0-49.808594 40.488281-90.878906 90.273437-91.597656h2.976563c49.617187.71875 89.96875 41.789062 89.96875 91.597656v23.519531c0 24.710938 8.09375 41.730469 15.679687 55.742188 2.714844 5.019531 7.875 7.863281 13.203126 7.863281 2.410156 0 4.859374-.582031 7.125-1.808594 7.289062-3.945312 9.996093-13.046875 6.054687-20.332031-7.640625-14.113281-12.0625-25.421875-12.0625-41.464844v-23.519531c0-32.085937-12.429687-62.390625-34.996094-85.332031-19.480469-19.804688-44.539062-32.101563-71.613281-35.382813v-23.519531c0-8.285156-6.714844-15-15-15s-15 6.714844-15 15v23.566406c-59.886719 7.46875-106.609375 59.023438-106.609375 120.671875v23.515625c0 21.070313-7.621094 34.402344-17.273437 51.277344-9.429688 16.5-20.117188 35.195312-25.519532 64.007812-2.550781 13.613282 1.058594 27.527344 9.898438 38.179688 8.835937 10.644531 21.832031 16.75 35.660156 16.75h72.824219c-.007813.222656-.035157.445312-.035157.675781 0 25.5625 20.796876 46.355469 46.355469 46.355469 25.5625 0 46.355469-20.792969 46.355469-46.355469 0-.230469-.023438-.449219-.03125-.675781h72.519531c13.828125 0 26.828125-6.105469 35.660157-16.746094 8.839843-10.652344 12.449218-24.570312 9.898437-38.179687-1.523437-8.144531-9.359375-13.507813-17.503906-11.980469zm-130.539063 67.582031c0 9.019531-7.339844 16.355469-16.355468 16.355469-9.019532 0-16.355469-7.335938-16.355469-16.355469 0-.230469-.023438-.453125-.035157-.679687h32.78125c-.011718.226562-.035156.449218-.035156.679687zm0 0"/><path d="m101.679688 215.242188c0-38.027344 13.960937-74.566407 39.308593-102.882813 5.523438-6.171875 5-15.652344-1.171875-21.179687-6.171875-5.527344-15.65625-5-21.179687 1.171874-30.28125 33.824219-46.957031 77.46875-46.957031 122.890626 0 8.285156 6.714843 15 15 15 8.28125 0 15-6.714844 15-15zm0 0"/><path d="m393.363281 92.351562c-5.523437-6.171874-15.007812-6.695312-21.179687-1.171874-6.171875 5.523437-6.695313 15.007812-1.171875 21.179687 25.347656 28.316406 39.308593 64.855469 39.308593 102.882813 0 8.285156 6.71875 15 15 15 8.285157 0 15-6.714844 15-15 0-45.421876-16.675781-89.066407-46.957031-122.890626zm0 0"/></g></svg>