<svg viewBox="0 0 512 512" xmlns="http://www.w3.org/2000/svg" xmlns:xlink="http://www.w3.org/1999/xlink"><linearGradient id="a" gradientUnits="userSpaceOnUse" x1="9.5%" x2="100%" y1="13%" y2="68%"><stop offset="0" stop-color="#21ffff"/><stop offset="0.8" stop-color="#1190cb"/></linearGradient><path d="m512 256c0 141.386719-114.613281 256-256 256s-256-114.613281-256-256 114.613281-256 256-256 256 114.613281 256 256zm0 0" fill="url(#a)"/><path d="m420.746094 351.039062c-1.523438-8.140624-9.367188-13.507812-17.507813-11.976562-8.140625 1.523438-13.503906 9.363281-11.976562 17.503906.898437 4.8125-.375 9.730469-3.5 13.492188-3.160157 3.808594-7.625 5.90625-12.574219 5.90625h-237.988281c-4.949219 0-9.414063-2.097656-12.574219-5.90625-3.125-3.761719-4.398438-8.679688-3.496094-13.492188 4.464844-23.839844 13.417969-39.5 22.074219-54.644531 10.4375-18.253906 21.230469-37.128906 21.230469-66.167969v-23.519531c0-49.808594 40.488281-90.878906 90.273437-91.597656h2.972657c49.617187.71875 89.972656 41.789062 89.972656 91.597656v23.519531c0 24.710938 8.09375 41.730469 15.675781 55.742188 2.71875 5.019531 7.875 7.863281 13.207031 7.863281 2.410156 0 4.855469-.582031 7.125-1.808594 7.285156-3.945312 9.996094-13.046875 6.054688-20.332031-7.640625-14.113281-12.0625-25.421875-12.0625-41.464844v-23.519531c0-32.085937-12.429688-62.390625-35-85.332031-19.480469-19.804688-44.539063-32.101563-71.609375-35.382813v-23.519531c0-8.285156-6.71875-15-15-15-8.285157 0-15 6.714844-15 15v23.566406c-59.886719 7.46875-106.609375 59.023438-106.609375 120.671875v23.515625c0 21.070313-7.625 34.402344-17.273438 51.277344-9.429687 16.5-20.121094 35.195312-25.519531 64.007812-2.550781 13.613282 1.058594 27.527344 9.898437 38.179688 8.832032 10.644531 21.832032 16.746094 35.660157 16.746094h72.824219c-.011719.226562-.035157.449218-.035157.679687 0 25.558594 20.796875 46.355469 46.355469 46.355469s46.355469-20.796875 46.355469-46.355469c0-.230469-.023438-.453125-.035157-.679687h72.523438c13.828125 0 26.824219-6.101563 35.660156-16.746094 8.839844-10.652344 12.449219-24.566406 9.898438-38.179688zm-148.046875 55.605469c0 9.019531-7.335938 16.355469-16.355469 16.355469-9.015625 0-16.355469-7.335938-16.355469-16.355469 0-.230469-.023437-.453125-.03125-.679687h32.777344c-.007813.226562-.035156.449218-.035156.679687zm0 0" fill="#fff"/></svg>