<svg viewBox="0 0 512 512" xmlns="http://www.w3.org/2000/svg" xmlns:xlink="http://www.w3.org/1999/xlink"><linearGradient id="a" gradientUnits="userSpaceOnUse" x1="9.5%" x2="100%" y1="13%" y2="68%"><stop offset="0" stop-color="#21ffff"/><stop offset="0.8" stop-color="#1190cb"/></linearGradient><path d="m512 256c0 141.386719-114.613281 256-256 256s-256-114.613281-256-256 114.613281-256 256-256 256 114.613281 256 256zm0 0" fill="url(#a)"/><g fill="#fff"><path d="m320.617188 194.75h-217.117188c-8.285156 0-15-6.714844-15-15s6.714844-15 15-15h217.117188c8.285156 0 15 6.714844 15 15s-6.714844 15-15 15zm0 0"/><path d="m408.5 118.5h-305c-8.285156 0-15-6.714844-15-15s6.714844-15 15-15h305c8.285156 0 15 6.714844 15 15s-6.714844 15-15 15zm0 0"/><path d="m408.5 423.5h-305c-8.285156 0-15-6.714844-15-15s6.714844-15 15-15h305c8.285156 0 15 6.714844 15 15s-6.714844 15-15 15zm0 0"/><path d="m320.617188 347.25h-217.117188c-8.285156 0-15-6.714844-15-15s6.714844-15 15-15h217.117188c8.285156 0 15 6.714844 15 15s-6.714844 15-15 15zm0 0"/><path d="m408.5 271h-305c-8.285156 0-15-6.714844-15-15s6.714844-15 15-15h305c8.285156 0 15 6.714844 15 15s-6.714844 15-15 15zm0 0"/></g></svg>