<svg viewBox="0 0 512 512" xmlns="http://www.w3.org/2000/svg" xmlns:xlink="http://www.w3.org/1999/xlink"><linearGradient id="a" gradientUnits="userSpaceOnUse" x1="9.5%" x2="100%" y1="13%" y2="68%"><stop offset="0" stop-color="#21ffff"/><stop offset="0.8" stop-color="#1190cb"/></linearGradient><path d="m512 256c0 141.386719-114.613281 256-256 256s-256-114.613281-256-256 114.613281-256 256-256 256 114.613281 256 256zm0 0" fill="url(#a)"/><g fill="#fff"><path d="m380.933594 414.878906c-28.710938 0-52.070313-23.359375-52.070313-52.070312v-166.035156c0-28.710938 23.359375-52.066407 52.070313-52.066407 28.710937 0 52.066406 23.355469 52.066406 52.066407v96.789062c0 8.285156-6.714844 15-15 15s-15-6.714844-15-15v-96.789062c0-12.167969-9.898438-22.066407-22.066406-22.066407-12.167969 0-22.070313 9.898438-22.070313 22.066407v166.035156c0 12.167968 9.902344 22.070312 22.070313 22.070312 12.167968 0 22.066406-9.902344 22.066406-22.070312 0-8.28125 6.714844-15 15-15s15 6.71875 15 15c0 28.710937-23.355469 52.070312-52.066406 52.070312zm0 0"/><path d="m131.066406 414.878906c-28.710937 0-52.066406-23.359375-52.066406-52.070312v-124.160156c0-28.710938 23.355469-52.070313 52.066406-52.070313 28.710938 0 52.070313 23.359375 52.070313 52.070313v124.160156c0 28.710937-23.359375 52.070312-52.070313 52.070312zm0-198.300781c-12.167968 0-22.066406 9.898437-22.066406 22.070313v124.160156c0 12.167968 9.898438 22.070312 22.066406 22.070312 12.167969 0 22.070313-9.902344 22.070313-22.070312v-124.160156c0-12.167969-9.902344-22.070313-22.070313-22.070313zm0 0"/><path d="m256 414.878906c-28.710938 0-52.066406-23.359375-52.066406-52.070312v-249.863282c0-28.710937 23.355468-52.066406 52.066406-52.066406s52.066406 23.355469 52.066406 52.066406v249.863282c0 28.710937-23.355468 52.070312-52.066406 52.070312zm0-324c-12.167969 0-22.066406 9.898438-22.066406 22.066406v249.863282c0 12.167968 9.898437 22.070312 22.066406 22.070312s22.066406-9.902344 22.066406-22.070312v-249.863282c0-12.167968-9.898437-22.066406-22.066406-22.066406zm0 0"/></g></svg>