<svg viewBox="0 0 512 512" xmlns="http://www.w3.org/2000/svg" xmlns:xlink="http://www.w3.org/1999/xlink"><linearGradient id="a" gradientUnits="userSpaceOnUse" x1="9.5%" x2="100%" y1="13%" y2="68%"><stop offset="0" stop-color="#21ffff"/><stop offset="0.8" stop-color="#1190cb"/></linearGradient><path d="m512 256c0 141.386719-114.613281 256-256 256s-256-114.613281-256-256 114.613281-256 256-256 256 114.613281 256 256zm0 0" fill="url(#a)"/><path d="m402.894531 203.65625c-.699219-.667969-1.46875-1.285156-2.320312-1.820312-31.835938-20.253907-77.542969-44.335938-102.839844-57.328126-7.015625-16.101562-23.078125-27.390624-41.734375-27.390624s-34.71875 11.289062-41.738281 27.390624c-25.296875 12.992188-71.003907 37.074219-102.839844 57.328126-.847656.535156-1.621094 1.148437-2.320313 1.820312-28.570312 15.03125-48.101562 45.015625-48.101562 79.480469 0 49.484375 40.261719 89.742187 89.746094 89.742187s89.746094-40.257812 89.746094-89.742187c0-8.554688 6.957031-15.511719 15.507812-15.511719s15.507812 6.957031 15.507812 15.511719c0 49.484375 40.261719 89.742187 89.746094 89.742187 19.269532 0 37.640625-6.019531 53.125-17.40625 6.675782-4.90625 8.105469-14.296875 3.199219-20.96875-4.910156-6.675781-14.296875-8.105468-20.972656-3.199218-10.296875 7.574218-22.519531 11.574218-35.351563 11.574218-32.945312 0-59.746094-26.800781-59.746094-59.742187 0-32.945313 26.800782-59.746094 59.746094-59.746094 32.945313 0 59.746094 26.800781 59.746094 59.746094 0 8.28125 6.714844 15 15 15s15-6.71875 15-15c0-34.464844-19.53125-64.449219-48.105469-79.480469zm-146.894531-56.539062c8.550781 0 15.507812 6.957031 15.507812 15.507812 0 8.554688-6.957031 15.511719-15.507812 15.511719s-15.507812-6.957031-15.507812-15.511719c0-8.550781 6.957031-15.507812 15.507812-15.507812zm-105.253906 195.761718c-32.945313 0-59.746094-26.800781-59.746094-59.742187 0-32.945313 26.800781-59.746094 59.746094-59.746094 32.945312 0 59.746094 26.800781 59.746094 59.746094 0 32.941406-26.800782 59.742187-59.746094 59.742187zm129.457031-98.257812c-7.015625-4.421875-15.3125-6.996094-24.203125-6.996094s-17.1875 2.574219-24.203125 6.996094c-10.585937-22.1875-30.023437-39.375-53.714844-46.972656 12.53125-6.882813 24.78125-13.394532 35.359375-18.925782 6.515625 17.171875 23.128906 29.410156 42.558594 29.410156s36.042969-12.238281 42.558594-29.410156c10.578125 5.53125 22.828125 12.042969 35.359375 18.925782-23.691407 7.597656-43.128907 24.785156-53.714844 46.972656zm0 0" fill="#fff"/></svg>