<svg viewBox="0 0 512 512" xmlns="http://www.w3.org/2000/svg" xmlns:xlink="http://www.w3.org/1999/xlink"><linearGradient id="a" gradientUnits="userSpaceOnUse" x1="9.5%" x2="100%" y1="13%" y2="68%"><stop offset="0" stop-color="#21ffff"/><stop offset="0.8" stop-color="#1190cb"/></linearGradient><path d="m512 256c0 141.386719-114.613281 256-256 256s-256-114.613281-256-256 114.613281-256 256-256 256 114.613281 256 256zm0 0" fill="url(#a)"/><path d="m375.953125 336.574219-96.578125-81.007813 96.578125-81.007812c3.410156-2.863282 5.375-7.089844 5.359375-11.542969s-2.007812-8.671875-5.441406-11.507813l-111.308594-92.066406c-4.480469-3.703125-10.691406-4.488281-15.949219-2.015625-5.257812 2.476563-8.613281 7.761719-8.613281 13.574219v151.539062l-86.675781-72.703124c-6.347657-5.324219-15.804688-4.492188-21.128907 1.855468-5.324218 6.34375-4.496093 15.808594 1.851563 21.128906l98.648437 82.746094-98.648437 82.746094c-6.347656 5.320312-7.175781 14.785156-1.851563 21.128906 5.320313 6.347656 14.785157 7.179688 21.128907 1.855469l86.675781-72.703125v152.40625c0 5.820312 3.371094 11.117188 8.644531 13.585938 2.027344.949218 4.199219 1.414062 6.351563 1.414062 3.453125 0 6.867187-1.1875 9.617187-3.484375l59.578125-49.738281c6.359375-5.3125 7.210938-14.769532 1.898438-21.128906-5.308594-6.359376-14.765625-7.210938-21.125-1.902344l-34.964844 29.191406v-122.082031l86.675781 72.703125c2.808594 2.355468 6.226563 3.507812 9.628907 3.507812 4.28125 0 8.535156-1.824218 11.5-5.359375 5.324218-6.347656 4.496093-15.8125-1.851563-21.132812zm-105.953125-233.703125 72.875 60.273437-72.875 61.128907zm0 0" fill="#fff"/></svg>