<svg viewBox="0 0 512 512" xmlns="http://www.w3.org/2000/svg" xmlns:xlink="http://www.w3.org/1999/xlink"><linearGradient id="a" gradientUnits="userSpaceOnUse" x1="9.5%" x2="100%" y1="13%" y2="68%"><stop offset="0" stop-color="#21ffff"/><stop offset="0.8" stop-color="#1190cb"/></linearGradient><path d="m512 256c0 141.386719-114.613281 256-256 256s-256-114.613281-256-256 114.613281-256 256-256 256 114.613281 256 256zm0 0" fill="url(#a)"/><path d="m160.683594 441.003906c-11.660156 0-23.007813-4.605468-31.253906-12.707031-8.234376-8.089844-12.765626-19.046875-12.765626-30.859375v-268.214844c0-32.101562 26.117188-58.21875 58.21875-58.21875h164.234376c32.105468 0 58.222656 26.117188 58.222656 58.21875v196.648438c0 8.285156-6.71875 15-15 15-8.285156 0-15-6.714844-15-15v-196.648438c0-15.5625-12.660156-28.21875-28.222656-28.21875h-164.234376c-15.5625 0-28.222656 12.660156-28.222656 28.21875v268.214844c0 3.804688 1.277344 6.988281 3.792969 9.457031 2.683594 2.640625 6.605469 4.175781 10.476563 4.105469 3.847656-.066406 6.9375-1.355469 9.445312-3.929688l75.875-77.972656c2.824219-2.902344 6.699219-4.539062 10.75-4.539062 4.046875 0 7.925781 1.636718 10.75 4.539062l75.871094 77.972656c2.527344 2.59375 5.59375 3.878907 9.371094 3.925782 3.859374.0625 7.769531-1.515625 10.476562-4.1875 2.566406-2.535156 3.867188-5.773438 3.867188-9.625 0-8.285156 6.71875-15 15-15 8.285156 0 15 6.714844 15 15 0 11.828125-4.539063 22.828125-12.789063 30.972656-8.414063 8.308594-20.019531 13-31.933594 12.839844-11.8125-.148438-22.355469-4.648438-30.488281-13.007813l-65.125-66.921875-65.125 66.925782c-8.074219 8.296874-18.59375 12.792968-30.414062 13.003906-.257813.003906-.519532.007812-.777344.007812zm0 0" fill="#fff"/></svg>