<svg viewBox="0 0 512 512" xmlns="http://www.w3.org/2000/svg" xmlns:xlink="http://www.w3.org/1999/xlink"><linearGradient id="a" gradientUnits="userSpaceOnUse" x1="9.5%" x2="100%" y1="13%" y2="68%"><stop offset="0" stop-color="#21ffff"/><stop offset="0.8" stop-color="#1190cb"/></linearGradient><path d="m512 256c0 141.386719-114.613281 256-256 256s-256-114.613281-256-256 114.613281-256 256-256 256 114.613281 256 256zm0 0" fill="url(#a)"/><path d="m377.8125 128.636719h-57.8125v-16.625c0-21.507813-17.496094-39-39-39h-48c-21.503906 0-39 17.492187-39 39v16.625h-57.8125c-30.980469 0-56.1875 25.207031-56.1875 56.1875v159.941406c0 30.980469 25.203125 56.183594 56.1875 56.183594h241.625c30.984375 0 56.1875-25.203125 56.1875-56.183594 0-8.285156-6.714844-15-15-15-8.28125 0-15 6.714844-15 15 0 14.4375-11.746094 26.183594-26.1875 26.183594h-241.625c-14.441406 0-26.1875-11.746094-26.1875-26.183594v-96.230469h132.6875v19.347656c0 8.285157 6.714844 15 15 15s15-6.714843 15-15v-19.347656h131.3125v26.898438c0 8.285156 6.714844 15 15 15s15-6.714844 15-15v-90.609375c0-30.980469-25.203125-56.1875-56.1875-56.1875zm-153.8125-16.625c0-4.964844 4.035156-9 9-9h48c4.964844 0 9 4.035156 9 9v16.625h-66zm-114 106.523437v-33.710937c0-14.441407 11.746094-26.1875 26.1875-26.1875h241.625c14.441406 0 26.1875 11.746093 26.1875 26.1875v33.710937zm0 0" fill="#fff"/></svg>