<svg viewBox="0 0 512 512" xmlns="http://www.w3.org/2000/svg" xmlns:xlink="http://www.w3.org/1999/xlink"><linearGradient id="a" gradientUnits="userSpaceOnUse" x1="9.5%" x2="100%" y1="13%" y2="68%"><stop offset="0" stop-color="#21ffff"/><stop offset="0.8" stop-color="#1190cb"/></linearGradient><path d="m512 256c0 141.386719-114.613281 256-256 256s-256-114.613281-256-256 114.613281-256 256-256 256 114.613281 256 256zm0 0" fill="url(#a)"/><g fill="#fff"><path d="m159.222656 172.847656c-3.894531 0-7.78125-1.503906-10.71875-4.507812l-31.574218-32.261719c-5.796876-5.917969-5.695313-15.417969.226562-21.210937 5.921875-5.792969 15.417969-5.691407 21.210938.230468l31.574218 32.257813c5.796875 5.921875 5.691406 15.417969-.226562 21.214843-2.917969 2.855469-6.707032 4.277344-10.492188 4.277344zm0 0"/><path d="m207.269531 155.003906c-8.285156 0-15-6.71875-15-15v-45.988281c0-8.285156 6.714844-15 15-15 8.285157 0 15 6.714844 15 15v45.988281c0 8.28125-6.714843 15-15 15zm0 0"/><path d="m140.003906 220.210938h-45.988281c-8.285156 0-15-6.71875-15-15 0-8.285157 6.714844-15 15-15h45.988281c8.28125 0 15 6.714843 15 15 0 8.28125-6.71875 15-15 15zm0 0"/><path d="m384.378906 401.4375c-3.894531 0-7.78125-1.503906-10.71875-4.507812l-31.574218-32.261719c-5.796876-5.921875-5.695313-15.414063.226562-21.210938 5.917969-5.796875 15.417969-5.691406 21.210938.226563l31.574218 32.261718c5.796875 5.921876 5.691406 15.417969-.226562 21.210938-2.917969 2.859375-6.707032 4.28125-10.492188 4.28125zm0 0"/><path d="m304.757812 433.011719c-8.285156 0-15-6.714844-15-15v-45.988281c0-8.285157 6.714844-15 15-15 8.28125 0 15 6.714843 15 15v45.988281c0 8.285156-6.71875 15-15 15zm0 0"/><path d="m418.011719 321.816406h-45.988281c-8.285157 0-15-6.71875-15-15 0-8.285156 6.714843-15 15-15h45.988281c8.285156 0 15 6.714844 15 15 0 8.28125-6.714844 15-15 15zm0 0"/><path d="m317.765625 281.300781c-7.871094 0-14.476563-6.136719-14.957031-14.097656-.5-8.269531 5.800781-15.378906 14.070312-15.875 17.292969-1.042969 35.621094-10.710937 53.035156-27.960937l1.363282-1.578126c.472656-.542968.980468-1.050781 1.523437-1.519531l1.578125-1.367187c18.722656-18.875 28.613282-38.054688 28.613282-55.503906 0-13.265626-5.621094-25.328126-17.1875-36.875-2.332032-2.328126-4.761719-4.464844-7.21875-6.351563l-1.613282-1.234375c-.3125-.238281-.613281-.488281-.902344-.75-8.625-6.089844-17.859374-9.175781-27.464843-9.175781-17.429688 0-36.613281 9.894531-55.5 28.617187l-1.359375 1.570313c-.476563.546875-.988282 1.058593-1.535156 1.53125l-1.578126 1.367187c-18.722656 18.871094-28.613281 38.054688-28.613281 55.5 0 6.511719 1.585938 13.132813 4.714844 19.679688 3.570313 7.476562.40625 16.429687-7.070313 20-7.472656 3.570312-16.429687.40625-20-7.066406-5.070312-10.617188-7.644531-21.589844-7.644531-32.613282 0-25.683594 13.058594-52.335937 37.761719-77.074218.257812-.257813.523438-.507813.800781-.746094l1.183594-1.023438 1.015625-1.175781c.242188-.277344.492188-.546875.753906-.808594 24.753906-24.699219 51.40625-37.757812 77.074219-37.757812 16.507813 0 32.0625 5.289062 46.230469 15.722656.488281.359375.957031.75 1.398437 1.167969l.601563.460937c3.496094 2.679688 6.914062 5.683594 10.164062 8.933594 17.246094 17.21875 25.988282 36.769531 25.988282 58.101563 0 25.6875-13.054688 52.339843-37.757813 77.078124-.257813.257813-.519531.503907-.796875.742188l-1.183594 1.023438-1.023437 1.183593c-.238281.277344-.488281.542969-.746094.800781-22.789063 22.738282-47.964844 35.550782-72.800781 37.046876-.308594.015624-.613282.027343-.917969.027343zm0 0"/><path d="m163.398438 432.992188c-16.507813 0-32.0625-5.289063-46.230469-15.71875-.488281-.363282-.957031-.753907-1.398438-1.171876l-.601562-.460937c-3.488281-2.675781-6.910157-5.679687-10.164063-8.929687-17.246094-17.222657-25.988281-36.769532-25.988281-58.101563 0-25.6875 13.054687-52.339844 37.757813-77.078125.257812-.257812.523437-.503906.796874-.742188l1.183594-1.027343 1.023438-1.183594c.238281-.273437.488281-.542969.746094-.800781 23.628906-23.574219 47.894531-36.269532 72.117187-37.730469 8.265625-.503906 15.378906 5.800781 15.875 14.070313.5 8.269531-5.800781 15.378906-14.070313 15.875-16.347656.984374-34.441406 10.890624-52.351562 28.644531l-1.363281 1.578125c-.472657.542968-.980469 1.050781-1.523438 1.519531l-1.578125 1.371094c-18.722656 18.871093-28.613281 38.054687-28.613281 55.503906 0 13.261719 5.621094 25.324219 17.1875 36.871094 2.335937 2.332031 4.761719 4.46875 7.21875 6.351562l1.609375 1.234375c.3125.242188.613281.492188.90625.753906 8.625 6.085938 17.855469 9.171876 27.460938 9.171876 17.433593 0 36.617187-9.890626 55.503906-28.613282l1.363281-1.574218c.46875-.546876.980469-1.058594 1.527344-1.53125l1.582031-1.367188c18.71875-18.871094 28.609375-38.054688 28.609375-55.5 0-6.507812-1.585937-13.128906-4.710937-19.675781-3.570313-7.476563-.40625-16.429688 7.070312-20 7.476562-3.570313 16.429688-.40625 20 7.066406 5.070312 10.617187 7.640625 21.589844 7.640625 32.609375 0 25.683594-13.054687 52.335938-37.757813 77.074219-.257812.257812-.523437.507812-.796874.746093l-1.183594 1.019532-1.023438 1.183594c-.238281.277343-.488281.546874-.75.804687-24.753906 24.703125-51.40625 37.757813-77.074218 37.757813zm0 0"/></g></svg>