<svg viewBox="0 0 512 512" xmlns="http://www.w3.org/2000/svg" xmlns:xlink="http://www.w3.org/1999/xlink"><linearGradient id="a" gradientUnits="userSpaceOnUse" x1="9.5%" x2="100%" y1="13%" y2="68%"><stop offset="0" stop-color="#21ffff"/><stop offset="0.8" stop-color="#1190cb"/></linearGradient><path d="m512 256c0 141.386719-114.613281 256-256 256s-256-114.613281-256-256 114.613281-256 256-256 256 114.613281 256 256zm0 0" fill="url(#a)"/><g fill="#fff"><path d="m357.128906 441h-200.257812c-32.101563 0-58.21875-26.117188-58.21875-58.222656v-253.554688c0-32.105468 26.117187-58.222656 58.21875-58.222656h200.257812c32.101563 0 58.21875 26.117188 58.21875 58.222656v181.523438c0 8.285156-6.714844 15-15 15s-15-6.714844-15-15v-181.523438c0-15.5625-12.660156-28.222656-28.21875-28.222656h-200.257812c-15.558594 0-28.21875 12.660156-28.21875 28.222656v253.558594c0 15.558594 12.660156 28.21875 28.21875 28.21875h200.257812c15.558594 0 28.21875-12.660156 28.21875-28.21875 0-8.285156 6.714844-15 15-15s15 6.714844 15 15c0 32.101562-26.117187 58.21875-58.21875 58.21875zm0 0"/><path d="m342.71875 383.371094h-57.625c-8.285156 0-15-6.714844-15-15 0-8.28125 6.714844-15 15-15h57.625c8.285156 0 15 6.71875 15 15 0 8.285156-6.714844 15-15 15zm0 0"/><path d="m171.28125 273.289062c-7.957031 0-14.410156-6.449218-14.410156-14.40625 0-7.957031 6.453125-14.410156 14.410156-14.410156s15.183594 6.453125 15.183594 14.410156c0 7.957032-7.230469 14.40625-15.183594 14.40625zm0 0"/><path d="m228.90625 273.289062c-7.957031 0-14.40625-6.449218-14.40625-14.40625 0-7.957031 6.449219-14.410156 14.40625-14.410156s14.40625 6.453125 14.40625 14.410156c0 7.957032-6.449219 14.40625-14.40625 14.40625zm0 0"/><path d="m285.8125 273.289062c-7.957031 0-14.40625-6.449218-14.40625-14.40625 0-7.957031 6.449219-14.410156 14.40625-14.410156s14.410156 6.453125 14.410156 14.410156c-.003906 7.957032-6.453125 14.40625-14.410156 14.40625zm0 0"/><path d="m171.28125 328.035156c-7.957031 0-14.410156-6.449218-14.410156-14.40625 0-7.957031 6.453125-14.410156 14.410156-14.410156s15.125 6.453125 15.125 14.410156c0 7.957032-7.171875 14.40625-15.125 14.40625zm0 0"/><path d="m228.90625 328.035156c-7.957031 0-14.40625-6.449218-14.40625-14.40625 0-7.957031 6.449219-14.410156 14.40625-14.410156s14.40625 6.453125 14.40625 14.410156c0 7.957032-6.449219 14.40625-14.40625 14.40625zm0 0"/><path d="m285.8125 328.035156c-7.957031 0-14.40625-6.449218-14.40625-14.40625 0-7.957031 6.449219-14.410156 14.40625-14.410156s14.410156 6.453125 14.410156 14.410156c-.003906 7.957032-6.453125 14.40625-14.410156 14.40625zm0 0"/><path d="m342.71875 273.289062c-7.957031 0-14.40625-6.449218-14.40625-14.40625 0-7.957031 6.449219-14.410156 14.40625-14.410156s14.410156 6.453125 14.410156 14.410156c0 7.957032-6.453125 14.40625-14.410156 14.40625zm0 0"/><path d="m171.28125 382.78125c-7.957031 0-14.410156-6.453125-14.410156-14.410156 0-7.957032 6.453125-14.40625 14.410156-14.40625s14.40625 6.449218 14.40625 14.40625c0 7.957031-6.453125 14.410156-14.40625 14.410156zm0 0"/><path d="m342.71875 328.035156c-7.957031 0-14.40625-6.449218-14.40625-14.40625 0-7.957031 6.449219-14.410156 14.40625-14.410156s14.410156 6.453125 14.410156 14.410156c0 7.957032-6.453125 14.40625-14.410156 14.40625zm0 0"/><path d="m228.1875 382.78125c-7.957031 0-14.410156-6.453125-14.410156-14.410156 0-7.957032 6.453125-14.40625 14.410156-14.40625s14.40625 6.449218 14.40625 14.40625c0 7.957031-6.449219 14.410156-14.40625 14.410156zm0 0"/><path d="m342.71875 216.253906h-171.4375c-8.285156 0-15-6.714844-15-15v-57.625c0-8.285156 6.714844-15 15-15h171.4375c8.285156 0 15 6.714844 15 15v57.625c0 8.285156-6.714844 15-15 15zm-156.4375-30h141.4375v-27.625h-141.4375zm0 0"/></g></svg>