<svg viewBox="0 0 512 512" xmlns="http://www.w3.org/2000/svg" xmlns:xlink="http://www.w3.org/1999/xlink"><linearGradient id="a" gradientUnits="userSpaceOnUse" x1="9.5%" x2="100%" y1="13%" y2="68%"><stop offset="0" stop-color="#21ffff"/><stop offset="0.8" stop-color="#1190cb"/></linearGradient><path d="m512 256c0 141.386719-114.613281 256-256 256s-256-114.613281-256-256 114.613281-256 256-256 256 114.613281 256 256zm0 0" fill="url(#a)"/><g fill="#fff"><path d="m418 316.167969c8.285156 0 15-6.714844 15-15v-145.523438c0-30.980469-25.203125-56.1875-56.1875-56.1875h-16.574219v-12.457031c0-8.285156-6.71875-15-15-15-8.285156 0-15 6.714844-15 15v12.457031h-59.925781v-12.457031c0-8.285156-6.714844-15-15-15s-15 6.714844-15 15v12.457031h-59.238281v-12.457031c0-8.285156-6.714844-15-15-15-8.28125 0-15 6.714844-15 15v12.457031h-15.886719c-30.984375 0-56.1875 25.203125-56.1875 56.1875v214.167969c0 30.980469 25.203125 56.1875 56.1875 56.1875h241.625c30.984375 0 56.1875-25.207031 56.1875-56.1875 0-8.285156-6.714844-15-15-15s-15 6.714844-15 15c0 14.441406-11.746094 26.1875-26.1875 26.1875h-241.625c-14.441406 0-26.1875-11.746094-26.1875-26.1875v-214.167969c0-14.441406 11.746094-26.1875 26.1875-26.1875h15.890625v12.457031c0 8.285157 6.714844 15 15 15 8.28125 0 15-6.714843 15-15v-12.457031h59.234375v12.457031c0 8.285157 6.71875 15 15 15 8.285156 0 15-6.714843 15-15v-12.457031h59.925781v12.457031c0 8.285157 6.714844 15 15 15 8.285157 0 15-6.714843 15-15v-12.457031h16.574219c14.441406 0 26.1875 11.746094 26.1875 26.1875v145.523438c0 8.285156 6.714844 15 15 15zm0 0"/><path d="m166.074219 203.695312c-7.582031 0-13.726563 6.144532-13.726563 13.726563s6.144532 13.730469 13.726563 13.730469 13.730469-6.148438 13.730469-13.730469-6.148438-13.726563-13.730469-13.726563zm0 0"/><path d="m285.515625 203.695312c-7.582031 0-13.726563 6.144532-13.726563 13.726563s6.144532 13.730469 13.726563 13.730469 13.730469-6.148438 13.730469-13.730469-6.148438-13.726563-13.730469-13.726563zm0 0"/><path d="m345.238281 203.695312c-7.582031 0-13.730469 6.144532-13.730469 13.726563s6.144532 13.730469 13.730469 13.730469c7.582031 0 13.726563-6.148438 13.726563-13.730469s-6.144532-13.726563-13.726563-13.726563zm0 0"/><path d="m166.074219 263.414062c-7.582031 0-13.726563 6.148438-13.726563 13.730469s6.144532 13.726563 13.726563 13.726563 13.730469-6.144532 13.730469-13.726563-6.148438-13.730469-13.730469-13.730469zm0 0"/><path d="m166.074219 323.136719c-7.582031 0-13.726563 6.144531-13.726563 13.726562s6.144532 13.730469 13.726563 13.730469 13.730469-6.148438 13.730469-13.730469-6.148438-13.726562-13.730469-13.726562zm0 0"/><path d="m225.796875 203.695312c-7.582031 0-13.730469 6.144532-13.730469 13.726563s6.148438 13.730469 13.730469 13.730469 13.730469-6.148438 13.730469-13.730469-6.148438-13.726563-13.730469-13.726563zm0 0"/><path d="m225.796875 263.414062c-7.582031 0-13.730469 6.148438-13.730469 13.730469s6.148438 13.726563 13.730469 13.726563 13.730469-6.144532 13.730469-13.726563-6.148438-13.730469-13.730469-13.730469zm0 0"/><path d="m225.796875 323.136719c-7.582031 0-13.730469 6.144531-13.730469 13.726562s6.148438 13.730469 13.730469 13.730469 13.730469-6.148438 13.730469-13.730469-6.148438-13.726562-13.730469-13.726562zm0 0"/><path d="m285.515625 263.414062c-7.582031 0-13.726563 6.148438-13.726563 13.730469s6.144532 13.726563 13.726563 13.726563 13.730469-6.144532 13.730469-13.726563-6.148438-13.730469-13.730469-13.730469zm0 0"/><path d="m345.238281 263.414062c-7.582031 0-13.730469 6.148438-13.730469 13.730469s6.144532 13.726563 13.730469 13.726563c7.582031 0 13.726563-6.144532 13.726563-13.726563s-6.144532-13.730469-13.726563-13.730469zm0 0"/><path d="m285.515625 323.136719c-7.582031 0-13.726563 6.144531-13.726563 13.726562s6.144532 13.730469 13.726563 13.730469 13.730469-6.148438 13.730469-13.730469-6.148438-13.726562-13.730469-13.726562zm0 0"/></g></svg>