<svg viewBox="0 0 512 512" xmlns="http://www.w3.org/2000/svg" xmlns:xlink="http://www.w3.org/1999/xlink"><linearGradient id="a" gradientUnits="userSpaceOnUse" x1="9.5%" x2="100%" y1="13%" y2="68%"><stop offset="0" stop-color="#21ffff"/><stop offset="0.8" stop-color="#1190cb"/></linearGradient><path d="m512 256c0 141.386719-114.613281 256-256 256s-256-114.613281-256-256 114.613281-256 256-256 256 114.613281 256 256zm0 0" fill="url(#a)"/><path d="m190.625 441c-3.835938 0-7.667969-1.460938-10.597656-4.382812-5.863282-5.851563-5.875-15.347657-.019532-21.210938l149.3125-149.628906c2.621094-2.621094 4.058594-6.089844 4.058594-9.777344s-1.4375-7.15625-4.046875-9.765625l-149.324219-149.636719c-5.855468-5.867187-5.84375-15.363281.019532-21.214844 5.863281-5.851562 15.363281-5.839843 21.214844.023438l149.3125 149.625c8.265624 8.261719 12.824218 19.265625 12.824218 30.96875s-4.558594 22.707031-12.832031 30.980469l-149.304687 149.617187c-2.929688 2.933594-6.773438 4.402344-10.617188 4.402344zm0 0" fill="#fff"/></svg>