<svg viewBox="0 0 512 512" xmlns="http://www.w3.org/2000/svg" xmlns:xlink="http://www.w3.org/1999/xlink"><linearGradient id="a" gradientUnits="userSpaceOnUse" x1="9.5%" x2="100%" y1="13%" y2="68%"><stop offset="0" stop-color="#21ffff"/><stop offset="0.8" stop-color="#1190cb"/></linearGradient><path d="m512 256c0 141.386719-114.613281 256-256 256s-256-114.613281-256-256 114.613281-256 256-256 256 114.613281 256 256zm0 0" fill="url(#a)"/><path d="m256 56c-110.28125 0-200 89.71875-200 200s89.71875 200 200 200c36.570312 0 72.355469-9.96875 103.484375-28.820312 7.085937-4.292969 9.351563-13.519532 5.058594-20.605469-4.292969-7.085938-13.515625-9.351563-20.601563-5.058594-25.539062 15.472656-54.785156 23.875-84.769531 24.429687l68.34375-123.171874c8.859375-13.472657 14.035156-29.574219 14.035156-46.871094 0-21.144532-7.730469-40.507813-20.488281-55.453125h95.605469c6.042969 17.417969 9.332031 36.105469 9.332031 55.550781 0 33.519531-9.96875 66.148438-28.824219 94.355469-4.605469 6.886719-2.753906 16.199219 4.132813 20.804687 6.886718 4.605469 16.199218 2.753906 20.804687-4.132812 22.167969-33.15625 33.886719-71.550782 33.886719-111.027344 0-110.28125-89.71875-200-200-200zm-170 200c0-30.742188 8.203125-59.601562 22.53125-84.511719l68.941406 118.328125c13.160156 30.347656 43.398438 51.636719 78.527344 51.636719 5.699219 0 11.265625-.570313 16.652344-1.636719l-46.375 83.578125c-79.617188-14.097656-140.277344-83.792969-140.277344-167.394531zm225.550781-.097656c0 9.59375-2.445312 18.625-6.742187 26.503906-.578125.703125-1.109375 1.457031-1.566406 2.28125l-1.453126 2.621094c-10.023437 14.570312-26.808593 24.144531-45.789062 24.144531-19.441406 0-36.570312-10.046875-46.5-25.210937-.339844-1.246094-.824219-2.46875-1.503906-3.632813l-3.597656-6.175781c-2.539063-6.359375-3.949219-13.28125-3.949219-20.53125 0-30.632813 24.917969-55.550782 55.550781-55.550782.308594 0 .609375.015626.917969.023438.472656.042969.949219.070312 1.433593.070312h.808594c29.164063 1.648438 52.390625 25.890626 52.390625 55.457032zm-51.777343-85.453125c-1.253907-.054688-2.507813-.097657-3.773438-.097657-36.988281 0-68.5625 23.601563-80.472656 56.527344l-47.898438-82.207031c31.191406-35.921875 77.175782-58.671875 128.371094-58.671875 62.566406 0 117.339844 33.980469 146.851562 84.449219zm0 0" fill="#fff"/></svg>