<svg viewBox="0 0 512 512" xmlns="http://www.w3.org/2000/svg" xmlns:xlink="http://www.w3.org/1999/xlink"><linearGradient id="a" gradientUnits="userSpaceOnUse" x1="9.5%" x2="100%" y1="13%" y2="68%"><stop offset="0" stop-color="#21ffff"/><stop offset="0.8" stop-color="#1190cb"/></linearGradient><path d="m512 256c0 141.386719-114.613281 256-256 256s-256-114.613281-256-256 114.613281-256 256-256 256 114.613281 256 256zm0 0" fill="url(#a)"/><path d="m414 306.304688c8.28125 0 15-6.714844 15-15v-65.398438c0-24.222656-17.992188-41.804688-42.785156-41.804688-6.753906 0-13.304688 1.769532-19.132813 4.992188-7.914062-9.167969-20.761719-15.75-33.761719-15.75-8.839843 0-17.335937 2.875-24.328124 7.957031-7.5625-7.152343-17.859376-11.605469-28.976563-11.605469-4.023437 0-7.9375.582032-11.652344 1.664063v-76.707031c0-22.96875-18.683593-41.652344-41.652343-41.652344-22.964844 0-41.652344 18.683594-41.652344 41.652344v178.972656c0 7.035156-4.488282 16.941406-11.851563 17.761719l-54.773437-25.125c-.453125-.207031-.914063-.394531-1.382813-.554688-4.578125-1.570312-9.367187-2.367187-14.234375-2.367187-24.160156 0-43.816406 19.652344-43.816406 43.8125 0 11.867187 4.667969 22.980468 13.144531 31.289062.554688.542969 1.15625 1.042969 1.789063 1.496094l11.542968 8.238281c.253907.179688.511719.351563.773438.515625l69.535156 43.386719c32.421875 20.230469 69.761719 30.921875 107.976563 30.921875h84.328125c34.601562 0 65.347656-21.925781 76.503906-54.558594 2.679688-7.839844-1.503906-16.367187-9.339844-19.046875-7.839844-2.679687-16.367187 1.5-19.046875 9.339844-7.007812 20.496094-26.34375 34.265625-48.117187 34.265625h-84.328125c-32.597657 0-64.441407-9.121094-92.09375-26.375l-69.144531-43.140625-10.042969-7.164063c-2.25-2.527343-3.476563-5.75-3.476563-9.167968 0-7.617188 6.195313-13.8125 13.8125-13.8125 1.339844 0 2.652344.1875 3.914063.558594l54.890625 25.179687c.34375.160156.699218.304687 1.054687.4375 3.832031 1.414063 7.4375 2.035156 11.039063 1.898437 25.539062-.976562 41.347656-25.566406 41.347656-47.789062v-178.972656c0-6.425782 5.226562-11.652344 11.652344-11.652344 6.425781 0 11.652344 5.226562 11.652344 11.652344v120.265625c0 8.285156 6.714843 15 15 15 8.285156 0 15-6.714844 15-15v-5.253907c.125-.371093.25-.742187.347656-1.132812 1.292968-5.121094 6.046875-8.835938 11.304687-8.835938 5.960938 0 11.238281 4.386719 11.519531 9.582032.761719 14.042968 10.515626 17.789062 16.160157 17.789062 5.65625 0 13.082031-3.429687 15.378906-13.097656.359375-1.519531.609375-3.109375.847656-4.652344.0625-.386718.136719-.871094.210938-1.320312 2.207031-2.902344 5.605469-4.652344 9.1875-4.652344 5.625 0 10.449219 4.078125 11.722656 6.207031.003906.039063.007813.078125.011719.113281.042968.394532.269531 2.472657.703125 4.707032 2.796875 14.453125 13.066406 15.578125 16.144531 15.578125 3.554688 0 10.199219-1.246094 14.804688-9.597657.8125-1.464843 3.886718-6.25 9.507812-6.25 3.84375 0 12.785156 1.148438 12.785156 11.804688v65.398438c-.003906 8.285156 6.710938 15 14.996094 15zm0 0" fill="#fff"/></svg>