<svg viewBox="0 0 512 512" xmlns="http://www.w3.org/2000/svg" xmlns:xlink="http://www.w3.org/1999/xlink"><linearGradient id="a" gradientUnits="userSpaceOnUse" x1="9.5%" x2="100%" y1="13%" y2="68%"><stop offset="0" stop-color="#21ffff"/><stop offset="0.8" stop-color="#1190cb"/></linearGradient><path d="m512 256c0 141.386719-114.613281 256-256 256s-256-114.613281-256-256 114.613281-256 256-256 256 114.613281 256 256zm0 0" fill="url(#a)"/><g fill="#fff"><path d="m191.914062 345.164062c-10.679687 0-21.023437-4.511718-29.128906-12.707031-16.71875-16.90625-16.714844-41.441406.011719-58.34375l164.621094-167.367187c.082031-.085938.164062-.164063.246093-.246094 12.800782-12.425781 28.878907-19.386719 45.269532-19.597656 17.527344-.214844 33.957031 6.9375 47.589844 20.71875 27.257812 27.5625 27.367187 67.445312.261718 94.835937-5.832031 5.890625-15.328125 5.9375-21.214844.113281-5.886718-5.828124-5.9375-15.324218-.109374-21.214843 12.894531-13.03125 17.8125-34.359375-.269532-52.636719-15.234375-15.40625-35.046875-15.722656-50.511718-.804688l-164.527344 167.269532c-2.433594 2.460937-7.242188 8.890625-.035156 16.175781 2.492187 2.523437 5.117187 3.800781 7.796874 3.800781 2.730469 0 5.566407-1.347656 7.984376-3.792968l113.8125-116.269532c5.796874-5.921875 15.292968-6.023437 21.214843-.230468 5.917969 5.796874 6.019531 15.292968.226563 21.214843l-113.867188 116.324219c-8.144531 8.242188-18.558594 12.753906-29.363281 12.753906-.003906.003906-.007813.003906-.007813.003906zm0 0"/><path d="m166.492188 425.0625c-24.375 0-48.066407-10.382812-66.714844-29.238281-19.382813-19.597657-29.296875-43.121094-28.664063-68.027344.589844-23.355469 10.777344-46.183594 28.6875-64.277344l142.015625-141.988281c5.859375-5.855469 15.359375-5.855469 21.214844.003906s5.855469 15.355469-.003906 21.210938l-141.957032 141.929687c-22.136718 22.367188-30.746093 58.925781.039063 90.054688 13.152344 13.300781 28.847656 20.332031 45.382813 20.332031h.007812c16.539062-.003906 32.671875-7.097656 45.425781-19.976562l142.144531-146.808594c5.761719-5.953125 15.257813-6.105469 21.210938-.34375 5.953125 5.765625 6.105469 15.261718.34375 21.210937l-142.203125 146.871094c-.039063.035156-.074219.074219-.109375.109375-18.441406 18.65625-42.167969 28.933594-66.808594 28.9375-.003906 0-.011718 0-.011718 0zm0 0"/></g></svg>