<svg viewBox="0 0 512 512" xmlns="http://www.w3.org/2000/svg" xmlns:xlink="http://www.w3.org/1999/xlink"><linearGradient id="a" gradientUnits="userSpaceOnUse" x1="9.5%" x2="100%" y1="13%" y2="68%"><stop offset="0" stop-color="#21ffff"/><stop offset="0.8" stop-color="#1190cb"/></linearGradient><path d="m512 256c0 141.386719-114.613281 256-256 256s-256-114.613281-256-256 114.613281-256 256-256 256 114.613281 256 256zm0 0" fill="url(#a)"/><g fill="#fff"><path d="m288.871094 238.933594c-8.773438-8.847656-20.445313-13.71875-32.871094-13.71875s-24.097656 4.871094-32.871094 13.71875l-48.328125 48.726562c-5.835937 5.882813-5.796875 15.378906.085938 21.214844 5.882812 5.832031 15.378906 5.792969 21.210937-.089844l44.117188-44.480468v153.855468c0 8.285156 6.71875 15 15 15 8.285156 0 15-6.714844 15-15v-155.4375l45.6875 46.0625c2.933594 2.957032 6.789062 4.4375 10.648437 4.4375 3.816407 0 7.636719-1.449218 10.5625-4.351562 5.882813-5.832032 5.921875-15.328125.085938-21.210938zm0 0"/><path d="m416.804688 194.832031v-10.804687c0-58.550782-47.632813-106.1875-106.183594-106.1875-25.496094 0-50.148438 9.171875-69.414063 25.828125-12.9375 11.1875-22.902343 25.246093-29.171875 40.875-9.792968-5.136719-20.785156-7.910157-32.074218-7.910157-38.09375 0-69.089844 30.992188-69.089844 69.089844v14.800782c-31.335938 6.773437-54.871094 34.46875-54.871094 67.507812 0 18.457031 6.984375 35.765625 19.671875 48.734375 12.835937 13.125 30.109375 20.355469 48.632813 20.355469h5.488281c8.28125 0 15-6.71875 15-15 0-8.285156-6.71875-15-15-15h-5.488281c-21.480469 0-38.304688-17.171875-38.304688-39.089844 0-21.554688 17.832031-39.089844 39.753906-39.089844h.117188c8.285156 0 15-6.714844 15-15v-28.21875c0-21.554687 17.535156-39.089844 39.089844-39.089844 11.199218 0 21.882812 4.828126 29.308593 13.242188 3.851563 4.363281 9.875 6.101562 15.460938 4.472656 5.582031-1.636718 9.71875-6.351562 10.609375-12.101562 5.6875-36.71875 38.050781-64.40625 75.28125-64.40625 42.007812 0 76.183594 34.175781 76.183594 76.183594v19.28125c0 5.550781 3.066406 10.648437 7.96875 13.25 19.261718 10.226562 31.226562 30.105468 31.226562 51.878906 0 27.566406-18.734375 51.097656-45.5625 57.21875-8.078125 1.84375-13.128906 9.882812-11.285156 17.960937 1.839844 8.078125 9.886718 13.128907 17.960937 11.285157 19.269531-4.394532 36.753907-15.332032 49.234375-30.785157 12.671875-15.699219 19.652344-35.46875 19.652344-55.679687 0-29.785156-14.808594-57.214844-39.195312-73.601563zm0 0"/></g></svg>