<svg viewBox="0 0 512 512" xmlns="http://www.w3.org/2000/svg" xmlns:xlink="http://www.w3.org/1999/xlink"><linearGradient id="a" gradientUnits="userSpaceOnUse" x1="9.5%" x2="100%" y1="13%" y2="68%"><stop offset="0" stop-color="#21ffff"/><stop offset="0.8" stop-color="#1190cb"/></linearGradient><path d="m512 256c0 141.386719-114.613281 256-256 256s-256-114.613281-256-256 114.613281-256 256-256 256 114.613281 256 256zm0 0" fill="url(#a)"/><g fill="#fff"><path d="m254.652344 372.121094c-.242188 0-.484375-.003906-.726563-.015625-2.9375-.140625-10.136719-1.4375-13.585937-10.394531l-24.734375-64.316407-65.113281-25.042969c-5.679688-2.183593-9.476563-7.582031-9.609376-13.664062-.140624-6.082031 3.414063-11.648438 8.988282-14.082031l174.023437-76.039063c5.644531-2.464844 12.21875-1.230468 16.585938 3.109375 4.363281 4.34375 5.632812 10.914063 3.199219 16.566407l-75.253907 174.8125c-2.375 5.519531-7.808593 9.066406-13.773437 9.066406zm-59.289063-114.652344 37.234375 14.320312c3.960938 1.523438 7.089844 4.652344 8.613282 8.613282 3.894531 10.128906 9.261718 24.085937 14.21875 36.972656l45.679687-106.109375zm0 0"/><path d="m257 456c-110.28125 0-200-89.71875-200-200s89.71875-200 200-200 200 89.71875 200 200c0 39.476562-11.71875 77.867188-33.886719 111.027344-4.601562 6.886718-13.921875 8.734375-20.804687 4.132812-6.886719-4.605468-8.738282-13.921875-4.132813-20.808594 18.855469-28.203124 28.824219-60.832031 28.824219-94.351562 0-93.738281-76.261719-170-170-170s-170 76.261719-170 170 76.261719 170 170 170c31.089844 0 61.5-8.464844 87.941406-24.480469 7.089844-4.296875 16.308594-2.027343 20.601563 5.058594s2.027343 16.308594-5.058594 20.601563c-31.128906 18.851562-66.914063 28.820312-103.484375 28.820312zm0 0"/></g></svg>