<?xml version="1.0" encoding="utf-8"?>
<!-- Generator: Adobe Illustrator 16.0.0, SVG Export Plug-In . SVG Version: 6.00 Build 0)  -->
<!DOCTYPE svg PUBLIC "-//W3C//DTD SVG 1.1//EN" "http://www.w3.org/Graphics/SVG/1.1/DTD/svg11.dtd" [
	<!ENTITY ns_extend "http://ns.adobe.com/Extensibility/1.0/">
	<!ENTITY ns_ai "http://ns.adobe.com/AdobeIllustrator/10.0/">
	<!ENTITY ns_graphs "http://ns.adobe.com/Graphs/1.0/">
	<!ENTITY ns_vars "http://ns.adobe.com/Variables/1.0/">
	<!ENTITY ns_imrep "http://ns.adobe.com/ImageReplacement/1.0/">
	<!ENTITY ns_sfw "http://ns.adobe.com/SaveForWeb/1.0/">
	<!ENTITY ns_custom "http://ns.adobe.com/GenericCustomNamespace/1.0/">
	<!ENTITY ns_adobe_xpath "http://ns.adobe.com/XPath/1.0/">
]>
<svg version="1.1" id="Capa_1" xmlns:x="&ns_extend;" xmlns:i="&ns_ai;" xmlns:graph="&ns_graphs;"
	 xmlns="http://www.w3.org/2000/svg" xmlns:xlink="http://www.w3.org/1999/xlink" x="0px" y="0px" width="127.559px"
	 height="127.574px" viewBox="0 0 127.559 127.574" enable-background="new 0 0 127.559 127.574" xml:space="preserve">
<metadata>
	<sfw  xmlns="&ns_sfw;">
		<slices></slices>
		<sliceSourceBounds  height="94.738" width="119.139" x="152.931" y="94.139" bottomLeftOrigin="true"></sliceSourceBounds>
	</sfw>
</metadata>
<g>
	<g>
		<path fill="#010005" stroke="#1190cb" stroke-width="1.5" stroke-miterlimit="10" d="M49.97,89.293h27.619v19.33H49.97V89.293z"/>
	</g>
	<g>
		<path fill="#010005" stroke="#1190cb" stroke-width="1.5" stroke-miterlimit="10" d="M122.598,80.646V19.969
			c0-1.551-1.257-2.809-2.809-2.809H7.768c-1.55,0-2.808,1.258-2.808,2.809v60.678l59.438,5.635L122.598,80.646z"/>
	</g>
	<g>
		<path fill="#010005" stroke="#1190cb" stroke-width="1.5" stroke-miterlimit="10" d="M119.79,17.16h-7.101
			c1.551,0,2.808,1.258,2.808,2.809v74.713c0,1.552-1.257,2.809-2.808,2.809h7.101c1.552,0,2.809-1.257,2.809-2.809V19.969
			C122.598,18.418,121.342,17.16,119.79,17.16z"/>
	</g>
	<g>
		<path fill="#010005" stroke="#1190cb" stroke-width="1.5" stroke-miterlimit="10" d="M82.769,110.398H44.789
			c-0.98,0-1.775-0.795-1.775-1.775c0-0.979,0.795-1.774,1.775-1.774h37.979c0.979,0,1.774,0.796,1.774,1.774
			C84.544,109.604,83.749,110.398,82.769,110.398z"/>
	</g>
	<g>
		<path fill="#010005" stroke="#1190cb" stroke-width="1.5" stroke-miterlimit="10" d="M4.96,80.646v14.035
			c0,1.552,1.257,2.809,2.808,2.809H119.79c1.552,0,2.809-1.257,2.809-2.809V80.646H4.96z"/>
	</g>
</g>
<g>
	<path fill="#AAAAAA" d="M49.97,89.293h27.619v19.33H49.97V89.293z"/>
</g>
<g>
	<path fill="#9B9B9B" d="M70.488,89.293h7.102v19.33h-7.102V89.293z"/>
</g>
<g>
	<path fill="#EEEEEE" d="M122.598,80.646V19.969c0-1.551-1.257-2.809-2.809-2.809H7.768c-1.55,0-2.808,1.258-2.808,2.809v60.678
		l59.438,5.635L122.598,80.646z"/>
</g>
<g>
	<path fill="#21ffff" d="M119.79,17.16h-7.101c1.551,0,2.808,1.258,2.808,2.809v74.713c0,1.552-1.257,2.809-2.808,2.809h7.101
		c1.552,0,2.809-1.257,2.809-2.809V19.969C122.598,18.418,121.342,17.16,119.79,17.16z"/>
</g>
<g>
	<path fill="#1190cb" d="M51.541,80.646c-0.135-0.734-0.209-1.491-0.209-2.266c0-6.875,5.573-12.447,12.448-12.447
		c6.874,0,12.447,5.572,12.447,12.447c0,0.773-0.074,1.53-0.21,2.266l8.526,2.367H95.37c1.215,0,2.2-0.985,2.2-2.2v-4.433
		c0-1.216-0.985-2.201-2.2-2.201h-2.264c-1.036,0-1.93-0.725-2.149-1.736c-0.713-3.277-2.004-6.34-3.762-9.074
		c-0.563-0.874-0.445-2.018,0.289-2.752l1.603-1.604c0.859-0.858,0.859-2.252,0-3.111l-2.828-2.829c-0.858-0.858-2.252-0.858-3.11,0
		l-1.604,1.603c-0.733,0.734-1.879,0.851-2.753,0.289c-2.734-1.756-5.796-3.049-9.075-3.762c-1.013-0.22-1.736-1.111-1.736-2.148
		v-2.264c0-1.216-0.984-2.201-2.199-2.201h-4c-1.215,0-2.201,0.985-2.201,2.201v2.264c0,1.037-0.725,1.929-1.737,2.148
		c-3.277,0.713-6.34,2.004-9.075,3.762c-0.873,0.562-2.018,0.445-2.752-0.289l-1.604-1.603c-0.859-0.858-2.252-0.858-3.112,0
		l-2.829,2.829c-0.858,0.859-0.858,2.252,0,3.111l1.604,1.604c0.733,0.734,0.85,1.878,0.289,2.752
		c-1.757,2.734-3.049,5.797-3.762,9.074c-0.221,1.013-1.112,1.736-2.149,1.736H32.19c-1.216,0-2.2,0.985-2.2,2.201v4.433
		c0,1.215,0.984,2.2,2.2,2.2h8.826L51.541,80.646z"/>
</g>
<g>
	<path fill="#BCBCBC" d="M82.769,110.398H44.789c-0.98,0-1.775-0.795-1.775-1.775c0-0.979,0.795-1.774,1.775-1.774h37.979
		c0.979,0,1.774,0.796,1.774,1.774C84.544,109.604,83.749,110.398,82.769,110.398z"/>
</g>
<g>
	<g>
		<path fill="#21ffff" d="M37.346,30.453h-23.18c-0.981,0-1.776-0.795-1.776-1.775s0.795-1.775,1.776-1.775h23.18
			c0.98,0,1.775,0.795,1.775,1.775C39.122,29.658,38.327,30.453,37.346,30.453L37.346,30.453z"/>
	</g>
	<g>
		<path fill="#21ffff" d="M21.683,38.409h-7.516c-0.98,0-1.776-0.795-1.776-1.774c0-0.98,0.796-1.775,1.776-1.775h7.516
			c0.98,0,1.775,0.795,1.775,1.775C23.458,37.614,22.663,38.409,21.683,38.409z"/>
	</g>
	<g>
		<path fill="#21ffff" d="M111.883,38.409h-7.518c-0.979,0-1.774-0.795-1.774-1.774c0-0.98,0.795-1.775,1.774-1.775h7.518
			c0.98,0,1.774,0.795,1.774,1.775C113.657,37.614,112.865,38.409,111.883,38.409z"/>
	</g>
	<g>
		<path fill="#21ffff" d="M111.883,46.365h-7.518c-0.979,0-1.774-0.794-1.774-1.775c0-0.98,0.795-1.774,1.774-1.774h7.518
			c0.98,0,1.774,0.794,1.774,1.774C113.658,45.571,112.865,46.365,111.883,46.365z"/>
	</g>
	<g>
		<path fill="#21ffff" d="M111.883,54.321h-7.518c-0.979,0-1.774-0.795-1.774-1.774c0-0.98,0.795-1.775,1.774-1.775h7.518
			c0.98,0,1.774,0.795,1.774,1.775C113.658,53.526,112.865,54.321,111.883,54.321z"/>
	</g>
</g>
<g>
	<path fill="#CDCDCD" d="M4.96,80.646v14.035c0,1.552,1.257,2.809,2.808,2.809H119.79c1.552,0,2.809-1.257,2.809-2.809V80.646H4.96z
		"/>
</g>
<g>
	<path fill="#BCBCBC" d="M115.497,80.646v14.035c0,1.552-1.257,2.809-2.808,2.809h7.101c1.552,0,2.809-1.257,2.809-2.809V80.646
		H115.497z"/>
</g>
</svg>
