<svg viewBox="0 0 512 512" xmlns="http://www.w3.org/2000/svg" xmlns:xlink="http://www.w3.org/1999/xlink"><linearGradient id="a" gradientUnits="userSpaceOnUse" x1="9.5%" x2="100%" y1="13%" y2="68%"><stop offset="0" stop-color="#21ffff"/><stop offset="0.8" stop-color="#1190cb"/></linearGradient><path d="m512 256c0 141.386719-114.613281 256-256 256s-256-114.613281-256-256 114.613281-256 256-256 256 114.613281 256 256zm0 0" fill="url(#a)"/><path d="m408.5 349.558594h-25.0625v-167.222656c0-9.214844-2.3125-18.066407-6.644531-25.914063l42.3125-42.316406c5.859375-5.855469 5.859375-15.351563 0-21.210938-5.855469-5.859375-15.355469-5.859375-21.210938 0l-42.316406 42.3125c-7.847656-4.332031-16.699219-6.644531-25.914063-6.644531h-167.222656v-25.0625c0-8.285156-6.71875-15-15-15-8.285156 0-15 6.714844-15 15v25.066406h-28.941406c-8.285156 0-15 6.714844-15 15 0 8.28125 6.714844 15 15 15h28.941406v167.222656c0 29.648438 24.121094 53.769532 53.769532 53.769532h167.226562v28.941406c0 8.28125 6.714844 15 15 15 8.28125 0 15-6.71875 15-15v-28.941406h25.0625c8.285156 0 15-6.714844 15-15s-6.714844-15-15-15zm-222.289062 0c-13.105469 0-23.769532-10.664063-23.769532-23.769532v-167.222656l167.222656-.003906c.820313 0 1.632813.042969 2.4375.125l-130.648437 130.648438c-5.859375 5.855468-5.859375 15.351562 0 21.210937 2.929687 2.929687 6.769531 4.394531 10.605469 4.394531 3.839844 0 7.679687-1.464844 10.605468-4.394531l130.648438-130.648437c.082031.804687.125 1.617187.125 2.4375v167.222656zm0 0" fill="#fff"/></svg>