<svg viewBox="0 0 512 512" xmlns="http://www.w3.org/2000/svg" xmlns:xlink="http://www.w3.org/1999/xlink"><linearGradient id="a" gradientUnits="userSpaceOnUse" x1="9.5%" x2="100%" y1="13%" y2="68%"><stop offset="0" stop-color="#21ffff"/><stop offset="0.8" stop-color="#1190cb"/></linearGradient><path d="m512 256c0 141.386719-114.613281 256-256 256s-256-114.613281-256-256 114.613281-256 256-256 256 114.613281 256 256zm0 0" fill="url(#a)"/><path d="m369.730469 88.5h-149.269531c-14.726563 0-28.949219 6.128906-39.066407 16.824219l-72.644531 72.492187c-12.328125 9.863282-20.25 25.019532-20.25 41.996094v149.917969c0 29.648437 24.121094 53.769531 53.769531 53.769531h149.269531c15.25 0 29.023438-6.390625 38.820313-16.621094.082031-.078125.171875-.144531.253906-.226562l77.167969-76.472656c.027344-.027344.054688-.054688.082031-.082032 10.082031-10.144531 15.636719-23.605468 15.636719-37.910156v-149.917969c0-29.648437-24.121094-53.769531-53.769531-53.769531zm-166.984375 37.894531c.121094-.121093.238281-.242187.355468-.363281 4.546876-4.855469 10.710938-7.53125 17.359376-7.53125h144.183593l-51.945312 51.886719c-6.496094-2.789063-13.648438-4.34375-21.160157-4.34375h-128.519531zm190.753906 165.792969c0 6.308594-2.441406 12.246094-6.878906 16.726562l-41.308594 40.9375v-18.894531c0-8.28125-6.714844-15-15-15s-15 6.71875-15 15v38.773438c0 13.105469-10.664062 23.769531-23.773438 23.769531h-149.269531c-13.105469 0-23.769531-10.664062-23.769531-23.769531v-149.917969c0-13.105469 10.664062-23.769531 23.769531-23.769531h149.269531c13.109376 0 23.773438 10.664062 23.773438 23.769531v46.527344c0 8.28125 6.714844 15 15 15 8.28125 0 15-6.71875 15-15v-46.527344c0-11.210938-3.457031-21.632812-9.351562-30.257812l55.929687-55.867188c1.035156 2.664062 1.609375 5.554688 1.609375 8.582031zm0 0" fill="#fff"/></svg>