<svg viewBox="0 0 512 512" xmlns="http://www.w3.org/2000/svg" xmlns:xlink="http://www.w3.org/1999/xlink"><linearGradient id="a" gradientUnits="userSpaceOnUse" x1="9.5%" x2="100%" y1="13%" y2="68%"><stop offset="0" stop-color="#21ffff"/><stop offset="0.8" stop-color="#1190cb"/></linearGradient><path d="m512 256c0 141.386719-114.613281 256-256 256s-256-114.613281-256-256 114.613281-256 256-256 256 114.613281 256 256zm0 0" fill="url(#a)"/><g fill="#fff"><path d="m225.183594 423.480469h-32.304688c-8.285156 0-15-6.71875-15-15 0-8.285157 6.714844-15 15-15h32.304688c8.285156 0 15 6.714843 15 15 0 8.28125-6.714844 15-15 15zm0 0"/><path d="m319.488281 423.480469h-32.304687c-8.285156 0-15-6.71875-15-15 0-8.285157 6.714844-15 15-15h32.304687c8.285157 0 15 6.714843 15 15 0 8.28125-6.714843 15-15 15zm0 0"/><path d="m130.203125 423.480469c-22.894531 0-41.519531-18.628907-41.519531-41.519531 0-8.285157 6.714844-15 15-15s15 6.714843 15 15c0 6.351562 5.167968 11.519531 11.519531 11.519531 8.285156 0 15 6.714843 15 15 0 8.28125-6.714844 15-15 15zm0 0"/><path d="m382.136719 423.480469c-8.285157 0-15-6.71875-15-15 0-8.285157 6.714843-15 15-15 6.351562 0 11.519531-5.167969 11.519531-11.519531 0-8.285157 6.714844-15 15-15s15 6.714843 15 15c0 22.890624-18.625 41.519531-41.519531 41.519531zm0 0"/><path d="m225.183594 118.480469h-32.304688c-8.285156 0-15-6.71875-15-15 0-8.285157 6.714844-15 15-15h32.304688c8.285156 0 15 6.714843 15 15 0 8.28125-6.714844 15-15 15zm0 0"/><path d="m319.488281 118.480469h-32.304687c-8.285156 0-15-6.71875-15-15 0-8.285157 6.714844-15 15-15h32.304687c8.285157 0 15 6.714843 15 15 0 8.28125-6.714843 15-15 15zm0 0"/><path d="m103.683594 144.996094c-8.285156 0-15-6.714844-15-15 0-22.894532 18.625-41.519532 41.519531-41.519532 8.285156 0 15 6.71875 15 15 0 8.285157-6.714844 15-15 15-6.351563 0-11.519531 5.167969-11.519531 11.519532 0 8.285156-6.714844 15-15 15zm0 0"/><path d="m408.65625 144.996094c-8.285156 0-15-6.714844-15-15 0-6.351563-5.167969-11.519532-11.519531-11.519532-8.285157 0-15-6.714843-15-15 0-8.28125 6.714843-15 15-15 22.890625 0 41.519531 18.625 41.519531 41.519532 0 8.285156-6.71875 15-15 15zm0 0"/><path d="m103.65625 337.515625c-8.285156 0-15-6.714844-15-15v-32.304687c0-8.285157 6.714844-15 15-15 8.28125 0 15 6.714843 15 15v32.304687c0 8.285156-6.71875 15-15 15zm0 0"/><path d="m103.65625 243.210938c-8.285156 0-15-6.71875-15-15v-32.308594c0-8.285156 6.714844-15 15-15 8.28125 0 15 6.714844 15 15v32.308594c0 8.28125-6.71875 15-15 15zm0 0"/><path d="m409.300781 337.515625c-8.285156 0-15-6.714844-15-15v-32.304687c0-8.285157 6.714844-15 15-15 8.285157 0 15 6.714843 15 15v32.304687c0 8.285156-6.714843 15-15 15zm0 0"/><path d="m409.300781 243.210938c-8.285156 0-15-6.71875-15-15v-32.308594c0-8.285156 6.714844-15 15-15 8.285157 0 15 6.714844 15 15v32.308594c0 8.28125-6.714843 15-15 15zm0 0"/></g></svg>