<svg viewBox="0 0 512 512" xmlns="http://www.w3.org/2000/svg" xmlns:xlink="http://www.w3.org/1999/xlink"><linearGradient id="a" gradientUnits="userSpaceOnUse" x1="9.5%" x2="100%" y1="13%" y2="68%"><stop offset="0" stop-color="#21ffff"/><stop offset="0.8" stop-color="#1190cb"/></linearGradient><path d="m512 256c0 141.386719-114.613281 256-256 256s-256-114.613281-256-256 114.613281-256 256-256 256 114.613281 256 256zm0 0" fill="url(#a)"/><g fill="#fff"><path d="m363.402344 284.824219c-30.546875 0-56.535156 19.800781-65.863282 47.234375l-22.761718-30.875 70.621094-95.375c4.929687-6.65625 3.53125-16.050782-3.128907-20.980469-6.65625-4.929687-16.050781-3.527344-20.980469 3.128906l-106.785156 144.214844c-9.285156-27.492187-35.3125-47.347656-65.90625-47.347656-38.355468 0-69.558594 31.207031-69.558594 69.566406 0 38.351563 31.203126 69.550781 69.558594 69.550781 24.667969 0 46.367188-12.917968 58.71875-32.339844.878906-.742187 1.691406-1.59375 2.40625-2.558593l46.378906-62.636719 46.15625 62.613281c.71875.96875 1.53125 1.828125 2.417969 2.574219 12.351563 19.421875 34.050781 32.347656 58.726563 32.347656 38.355468 0 69.558594-31.203125 69.558594-69.578125 0-38.34375-31.203126-69.539062-69.558594-69.539062zm-214.804688 109.117187c-21.8125 0-39.558594-17.742187-39.558594-39.550781 0-21.816406 17.746094-39.566406 39.558594-39.566406s39.558594 17.738281 39.558594 39.566406c0 21.808594-17.746094 39.550781-39.558594 39.550781zm214.804688 0c-21.8125 0-39.558594-17.742187-39.558594-39.550781 0-21.816406 17.746094-39.566406 39.558594-39.566406s39.558594 17.738281 39.558594 39.566406c0 21.808594-17.746094 39.550781-39.558594 39.550781zm0 0"/><path d="m129.761719 154.382812 82.148437 111.601563c2.8125 3.820313 7.265625 6.085937 12.003906 6.109375h.078126c4.710937 0 9.15625-2.21875 11.988281-5.988281l119.929687-159.566407c6.628906 8.972657 7.9375 21.339844 2.328125 31.777344-3.917969 7.300782-1.175781 16.394532 6.121094 20.3125 7.300781 3.917969 16.394531 1.179688 20.3125-6.117187 15.511719-28.894531 4.683594-65.117188-24.140625-80.753907-6.535156-3.546874-14.679688-1.769531-19.144531 4.175782l-85.660157 113.972656-83.722656-113.777344c-4.441406-6.03125-12.652344-7.863281-19.234375-4.292968-28.824219 15.636718-39.652343 51.859374-24.140625 80.75.335938.625.714844 1.226562 1.132813 1.796874zm27.527343-47.628906 79.613282 108.191406-12.785156 17.015626-69.5-94.417969c-5.0625-10.203125-3.691407-22.074219 2.671874-30.789063zm0 0"/></g></svg>