<svg viewBox="0 0 512 512" xmlns="http://www.w3.org/2000/svg" xmlns:xlink="http://www.w3.org/1999/xlink"><linearGradient id="a" gradientUnits="userSpaceOnUse" x1="9.5%" x2="100%" y1="13%" y2="68%"><stop offset="0" stop-color="#21ffff"/><stop offset="0.8" stop-color="#1190cb"/></linearGradient><path d="m512 256c0 141.386719-114.613281 256-256 256s-256-114.613281-256-256 114.613281-256 256-256 256 114.613281 256 256zm0 0" fill="url(#a)"/><path d="m426.34375 145.058594c-.285156-.324219-.589844-.636719-.902344-.9375l-60.183594-57.175782c-10.867187-10.320312-25.105468-16.007812-40.09375-16.007812h-77.546874c-.003907 0-.007813 0-.011719 0h-60.429688c-14.9375 0-29.140625 5.652344-39.992187 15.917969l-60.53125 57.234375c-.3125.296875-.617188.609375-.902344.933594-8.261719 9.292968-13.082031 20.589843-14.378906 32.238281-.210938 1.003906-.324219 2.039062-.324219 3.105469 0 .222656.023437.441406.03125.664062-.566406 12.355469 2.808594 24.90625 10.257813 35.710938l139.136718 206.003906c.132813.195312.265625.386718.40625.570312 8.164063 10.953125 20.589844 17.320313 34.195313 17.597656.289062.015626.574219.023438.855469.027344h.058593.011719.011719.0625c.285156 0 .570312-.011718.855469-.027344 13.605468-.28125 26.027343-6.652343 34.1875-17.601562.140624-.1875.277343-.378906.40625-.570312l86.996093-128.839844c4.636719-6.863282 2.828125-16.1875-4.039062-20.824219-6.863281-4.636719-16.1875-2.828125-20.824219 4.039063l-71.492188 105.878906 46.769532-187.628906h79.460937c-.683593 1.488281-1.496093 2.933593-2.453125 4.316406-.03125.046875-.0625.09375-.097656.140625l-11.828125 17.519531c-4.636719 6.867188-2.828125 16.1875 4.039063 20.824219 6.863281 4.632812 16.1875 2.828125 20.824218-4.035157l11.785156-17.453124c15.230469-22.085938 13.460938-51.523438-4.320312-71.621094zm-81.746094-36.363282 59.648438 56.671876h-78.390625l-37.339844-64.429688h36.648437c7.265626 0 14.164063 2.757812 19.433594 7.757812zm-53.414062 56.671876h-71.425782l35.234376-62.4375zm-123.390625-56.714844c5.261719-4.972656 12.144531-7.714844 19.382812-7.714844h34.492188l-36.359375 64.429688h-77.492188zm-61.640625 91.238281c-.03125-.046875-.0625-.09375-.09375-.140625-.972656-1.40625-1.792969-2.875-2.484375-4.382812h78.804687l47.246094 187.332031zm149.761718 164.371094-42.59375-168.894531h84.695313zm0 0" fill="#fff"/></svg>