<svg viewBox="0 0 512 512" xmlns="http://www.w3.org/2000/svg" xmlns:xlink="http://www.w3.org/1999/xlink"><linearGradient id="a" gradientUnits="userSpaceOnUse" x1="9.5%" x2="100%" y1="13%" y2="68%"><stop offset="0" stop-color="#21ffff"/><stop offset="0.8" stop-color="#1190cb"/></linearGradient><path d="m512 256c0 141.386719-114.613281 256-256 256s-256-114.613281-256-256 114.613281-256 256-256 256 114.613281 256 256zm0 0" fill="url(#a)"/><g fill="#fff"><path d="m400.03125 374.992188h-22.316406v-62.398438c0-23.515625-19.128906-42.644531-42.640625-42.644531h-50.382813c-6.96875 0-12.636718-5.667969-12.640625-12.632813l-.0625-102.039062c15.765625-6.265625 26.945313-21.664063 26.945313-39.636719 0-23.511719-19.128906-42.644531-42.640625-42.644531-23.515625 0-42.644531 19.132812-42.644531 42.644531 0 16.128906 9.003906 30.195313 22.246093 37.4375l-43.726562 35.980469c-3.464844 2.847656-5.46875 7.097656-5.46875 11.582031v64.960937c0 8.285157 6.714843 15 15 15 8.28125 0 15-6.714843 15-15v-57.878906l25.308593-20.824218.042969 70.433593c.011719 23.5 19.140625 42.617188 42.640625 42.617188h50.382813c6.96875 0 12.640625 5.671875 12.640625 12.644531v77.398438c0 8.28125 6.71875 15 15 15h37.316406c8.285156 0 15-6.71875 15-15 0-8.285157-6.714844-15-15-15zm-143.738281-271.992188c6.972656 0 12.640625 5.671875 12.640625 12.640625 0 6.972656-5.667969 12.644531-12.640625 12.644531-6.972657 0-12.644531-5.671875-12.644531-12.644531 0-6.96875 5.671874-12.640625 12.644531-12.640625zm0 0"/><path d="m207.226562 400.355469c-46.105468 0-83.617187-37.507813-83.617187-83.617188 0-28.695312 14.535156-54.058593 36.625-69.121093v-31.714844c-37.925781 17.746094-64.265625 56.273437-64.265625 100.835937 0 61.351563 49.910156 111.261719 111.257812 111.261719 58.089844 0 105.917969-44.75 110.835938-101.585938h-27.78125c-4.808594 41.566407-40.21875 73.941407-83.054688 73.941407zm0 0"/></g></svg>