<svg viewBox="0 0 512 512" xmlns="http://www.w3.org/2000/svg" xmlns:xlink="http://www.w3.org/1999/xlink"><linearGradient id="a" gradientUnits="userSpaceOnUse" x1="9.5%" x2="100%" y1="13%" y2="68%"><stop offset="0" stop-color="#21ffff"/><stop offset="0.8" stop-color="#1190cb"/></linearGradient><path d="m512 256c0 141.386719-114.613281 256-256 256s-256-114.613281-256-256 114.613281-256 256-256 256 114.613281 256 256zm0 0" fill="url(#a)"/><g fill="#fff"><path d="m413.5 321.71875c8.285156 0 15-6.714844 15-15v-153.492188c0-3.980468-1.582031-7.792968-4.394531-10.609374l-54.722657-54.722657c-2.816406-2.8125-6.628906-4.394531-10.609374-4.394531h-220.230469c-30.351563 0-55.042969 24.691406-55.042969 55.042969v234.914062c0 30.351563 24.691406 55.042969 55.042969 55.042969h234.914062c30.351563 0 55.042969-24.691406 55.042969-55.042969 0-8.285156-6.71875-15-15-15-8.285156 0-15 6.714844-15 15 0 13.253907-10.351562 24.128907-23.390625 24.980469v-105.066406c0-8.28125-6.714844-15-15-15h-208.21875c-8.285156 0-15 6.71875-15 15v105.066406c-13.039063-.851562-23.390625-11.726562-23.390625-24.980469v-234.914062c0-13.253907 10.347656-24.128907 23.390625-24.984375v77.039062c0 22.992188 18.703125 41.695313 41.695313 41.695313h134.140624c22.992188 0 41.695313-18.703125 41.695313-41.695313v-75.238281l44.078125 44.078125v147.28125c0 8.285156 6.714844 15 15 15zm-68.390625-13.347656v90.128906h-178.21875v-90.128906zm-32.382813-106.078125h-134.140624c-6.449219 0-11.695313-5.246094-11.695313-11.695313v-77.097656h157.53125v77.097656c0 6.449219-5.246094 11.695313-11.695313 11.695313zm0 0"/><path d="m288.699219 130.214844c-8.28125 0-15 6.71875-15 15v25.359375c0 8.285156 6.71875 15 15 15 8.285156 0 15-6.714844 15-15v-25.359375c0-8.28125-6.714844-15-15-15zm0 0"/></g></svg>