<svg viewBox="0 0 512 512" xmlns="http://www.w3.org/2000/svg" xmlns:xlink="http://www.w3.org/1999/xlink"><linearGradient id="a" gradientUnits="userSpaceOnUse" x1="9.5%" x2="100%" y1="13%" y2="68%"><stop offset="0" stop-color="#21ffff"/><stop offset="0.8" stop-color="#1190cb"/></linearGradient><path d="m512 256c0 141.386719-114.613281 256-256 256s-256-114.613281-256-256 114.613281-256 256-256 256 114.613281 256 256zm0 0" fill="url(#a)"/><path d="m439.5 251.515625c0-13.121094-6.265625-25.089844-15.851562-32.695313 3.324218-5.992187 5.15625-12.796874 5.15625-19.828124 0-15.421876-8.566407-28.894532-21.222657-35.972657 2.289063-5.035156 3.527344-10.515625 3.527344-16.140625 0-24.554687-17.417969-42.375-41.414063-42.375h-138.957031c-8.285156 0-15 6.714844-15 15 0 8.28125 6.714844 15 15 15h138.957031c9.933594 0 11.414063 7.753906 11.414063 12.375 0 5.414063-4.628906 8.390625-6.042969 9.167969-8.328125 4.59375-9.570312 11.234375-9.570312 14.78125 0 9.480469 8.148437 16.90625 18.550781 16.90625h3.199219c6.375 0 11.5625 5.050781 11.5625 11.257813 0 3.949218-2.207032 7.671874-5.757813 9.71875-.234375.132812-.453125.25-.648437.355468-8.160156 4.40625-9.871094 10.6875-9.871094 15.175782 0 5.640624 3.734375 15.382812 17.738281 16.144531 5.003907.269531 9.230469 5.367187 9.230469 11.128906 0 5.082031-3.59375 9.675781-8.546875 10.925781-8.894531 2.246094-14.875 9.265625-14.875 17.460938 0 4.070312 1.488281 9.949218 8.578125 14.867187 3.074219 2.132813 4.90625 5.597657 4.90625 9.265625 0 6.210938-5.050781 11.261719-11.261719 11.261719h-93.382812c-21.996094 0-46.339844 15.65625-47.308594 40.949219l-.007813.574218c0 8.707032 6.253907 22.027344 21.609376 52.601563 2.304687 4.589844 4.492187 8.945313 6.527343 13.074219.324219 1.167968.492188 2.382812.492188 3.617187 0 7.382813-6.007813 13.390625-13.390625 13.390625-3.308594 0-6.421875-1.1875-8.871094-3.355468l-7.097656-9.949219-70.949219-110.480469c4.203125-6.679688 6.648437-14.578125 6.648437-23.039062v-144.789063c0-23.921875-19.464843-43.386719-43.390624-43.386719h-21.289063c-23.925781 0-43.390625 19.460938-43.390625 43.386719v144.789063c0 23.925781 19.464844 43.390624 43.390625 43.390624h21.292969c4.492187 0 8.824218-.6875 12.902344-1.960937l69.746093 108.605469 9.203125 12.9375.820313.835937c8.230469 8.390625 19.234375 13.015625 30.984375 13.015625 23.925781 0 43.390625-19.464844 43.390625-43.390625 0-4.824219-.789063-9.566406-2.34375-14.097656l-.308594-.898437-.417969-.847657c-2.230468-4.542969-4.617187-9.292969-7.140625-14.316406-6.289062-12.515625-16.648437-33.140625-18.335937-39.546875 1.078125-6.910156 10.503906-11.109375 17.234375-11.109375h93.382812c22.75 0 41.261719-18.511719 41.261719-41.261719 0-7.25-1.921875-14.261718-5.425781-20.398437 9.492187-7.648438 15.363281-19.320313 15.363281-32.121094zm-321.609375 54.554687c-7.382813 0-13.390625-6.007812-13.390625-13.390624v-144.789063c0-7.382813 6.007812-13.386719 13.390625-13.386719h21.292969c7.382812 0 13.390625 6.003906 13.390625 13.386719v144.789063c0 7.382812-6.007813 13.390624-13.390625 13.390624zm0 0" fill="#fff"/></svg>