<svg viewBox="0 0 512 512" xmlns="http://www.w3.org/2000/svg" xmlns:xlink="http://www.w3.org/1999/xlink"><linearGradient id="a" gradientUnits="userSpaceOnUse" x1="9.5%" x2="100%" y1="13%" y2="68%"><stop offset="0" stop-color="#21ffff"/><stop offset="0.8" stop-color="#1190cb"/></linearGradient><path d="m512 256c0 141.386719-114.613281 256-256 256s-256-114.613281-256-256 114.613281-256 256-256 256 114.613281 256 256zm0 0" fill="url(#a)"/><g fill="#fff"><path d="m380.914062 411.5h-249.828124c-31.753907 0-57.585938-25.835938-57.585938-57.585938 0-8.285156 6.714844-15 15-15s15 6.714844 15 15c0 15.210938 12.375 27.585938 27.585938 27.585938h249.828124c15.210938 0 27.585938-12.375 27.585938-27.585938 0-8.285156 6.714844-15 15-15s15 6.714844 15 15c0 31.75-25.832031 57.585938-57.585938 57.585938zm0 0"/><path d="m255.296875 321.34375c-11.113281 0-22.226563-4.230469-30.6875-12.691406-.023437-.023438-.050781-.050782-.074219-.078125l-77.164062-78.273438c-5.8125-5.898437-5.746094-15.394531.152344-21.210937 5.902343-5.816406 15.398437-5.746094 21.214843.152344l77.117188 78.230468c5.222656 5.1875 13.691406 5.175782 18.902343-.035156l78.601563-78.292969c5.867187-5.847656 15.367187-5.828125 21.210937.042969 5.847657 5.867188 5.828126 15.367188-.039062 21.210938l-78.582031 78.273437c-8.445313 8.445313-19.546875 12.671875-30.652344 12.671875zm0 0"/><path d="m256 250.386719c-8.285156 0-15-6.714844-15-15v-173.886719c0-8.285156 6.714844-15 15-15s15 6.714844 15 15v173.886719c0 8.285156-6.714844 15-15 15zm0 0"/></g></svg>