<svg viewBox="0 0 512 512" xmlns="http://www.w3.org/2000/svg" xmlns:xlink="http://www.w3.org/1999/xlink"><linearGradient id="a" gradientUnits="userSpaceOnUse" x1="9.5%" x2="100%" y1="13%" y2="68%"><stop offset="0" stop-color="#21ffff"/><stop offset="0.8" stop-color="#1190cb"/></linearGradient><path d="m512 256c0 141.386719-114.613281 256-256 256s-256-114.613281-256-256 114.613281-256 256-256 256 114.613281 256 256zm0 0" fill="url(#a)"/><path d="m418.464844 138.269531-12.171875-15.078125c-36.660157-41.195312-90.046875-67.191406-149.402344-67.191406-.082031 0-.160156.011719-.242187.011719-.179688 0-.359376-.011719-.542969-.011719-59.558594 0-113.113281 26.179688-149.785157 67.628906 0 0-3.34375 3.667969-11.796874 14.65625-24.140626 33.050782-38.414063 73.746094-38.414063 117.714844 0 110.28125 89.71875 200 200 200 .179687 0 .359375-.011719.539063-.011719.082031 0 .164062.011719.246093.011719 34.132813 0 67.839844-8.753906 97.464844-25.320312 7.234375-4.042969 9.816406-13.179688 5.773437-20.410157-4.042968-7.230469-13.183593-9.816406-20.410156-5.773437-5.03125 2.8125-10.207031 5.347656-15.492187 7.621094 3.769531-5.6875 7.347656-11.882813 10.703125-18.59375 16.691406-33.386719 26.613281-76.433594 28.382812-122.523438h62.894532c-2.367188 26.929688-11.058594 52.863281-25.539063 75.753906-4.429687 7-2.34375 16.265625 4.65625 20.695313 2.488281 1.574219 5.261719 2.324219 8.003906 2.324219 4.972657 0 9.835938-2.46875 12.691407-6.980469 20.195312-31.925781 30.867187-68.851563 30.867187-106.792969 0-43.976562-14.277344-84.675781-38.425781-117.730469zm-331.6875 132.730469h62.121094c.964843 25.117188 4.351562 49.328125 9.9375 71.566406-15.179688 3.050782-29.210938 6.828125-41.683594 11.257813-16.832032-23.835938-27.683594-52.175781-30.375-82.824219zm30.8125-113.449219c12.425781 4.398438 26.363281 8.136719 41.425781 11.160157-5.695313 22.4375-9.140625 46.902343-10.117187 72.289062h-62.121094c2.714844-30.914062 13.730468-59.480469 30.8125-83.449219zm123.519531-10.050781c-14.636719-.421875-28.972656-1.453125-42.695313-3.035156 1.789063-4.347656 3.6875-8.542969 5.703126-12.570313 10.636718-21.273437 23.59375-35.917969 36.992187-42.292969zm30-57.898438c13.394531 6.375 26.355469 21.019532 36.988281 42.292969 2.015625 4.027344 3.917969 8.226563 5.707032 12.578125-13.714844 1.578125-28.054688 2.609375-42.699219 3.027344v-57.898438zm63.824219 28.875c-3.347656-6.6875-6.910156-12.867187-10.667969-18.539062 18.449219 7.992188 35.210937 19.160156 49.59375 32.8125-9.132813 2.714844-19.074219 5.097656-29.644531 7.117188-2.8125-7.484376-5.90625-14.636719-9.28125-21.390626zm-157.648438 0c-3.375 6.75-6.472656 13.898438-9.28125 21.382813-10.339844-1.972656-20.082031-4.296875-29.050781-6.933594 14.136719-13.460937 30.582031-24.511719 48.667969-32.503906-3.632813 5.539063-7.089844 11.558594-10.335938 18.054687zm-9.578125 252.871094c2.886719 7.773438 6.082031 15.1875 9.578125 22.175782 3.25 6.496093 6.703125 12.515624 10.339844 18.054687-18.363281-8.113281-35.03125-19.382813-49.308594-33.125 9.082032-2.714844 18.929688-5.09375 29.390625-7.105469zm30.378907-4.621094c13.773437-1.582031 28.210937-2.605468 43.023437-3.019531v58.691407c-13.398437-6.375-26.355469-21.019532-36.992187-42.292969-2.136719-4.273438-4.148438-8.742188-6.03125-13.378907zm73.023437-2.996093c14.742187.40625 29.128906 1.40625 43.015625 3.015625-1.882812 4.628906-3.890625 9.089844-6.027344 13.359375-10.632812 21.273437-23.59375 35.917969-36.988281 42.292969zm-30-30.027344c-18.128906.484375-35.804687 1.84375-52.578125 4.003906-5.355469-20.507812-8.632812-43.097656-9.609375-66.707031h62.1875zm-62.1875-92.703125c.988281-23.894531 4.328125-46.746094 9.800781-67.445312 16.683594 2.136718 34.277344 3.476562 52.386719 3.957031v63.488281zm92.1875-63.488281c18.117187-.476563 35.710937-1.816407 52.382813-3.953125 5.472656 20.699218 8.8125 43.550781 9.800781 67.441406h-62.183594zm82.09375-8.792969c15.3125-3.074219 29.464844-6.890625 42.050781-11.382812 17.167969 24.007812 28.242188 52.65625 30.96875 83.664062h-62.90625c-.976562-25.386719-4.421875-49.847656-10.113281-72.28125zm-29.519531 168.988281c-16.902344-2.183593-34.496094-3.511719-52.578125-3.988281v-62.71875h62.1875c-.976563 23.609375-4.253907 46.199219-9.609375 66.707031zm0 0" fill="#fff"/></svg>