<svg viewBox="0 0 512 512" xmlns="http://www.w3.org/2000/svg" xmlns:xlink="http://www.w3.org/1999/xlink"><linearGradient id="a" gradientUnits="userSpaceOnUse" x1="9.5%" x2="100%" y1="13%" y2="68%"><stop offset="0" stop-color="#21ffff"/><stop offset="0.8" stop-color="#1190cb"/></linearGradient><path d="m512 256c0 141.386719-114.613281 256-256 256s-256-114.613281-256-256 114.613281-256 256-256 256 114.613281 256 256zm0 0" fill="url(#a)"/><g fill="#fff"><path d="m425.488281 182.886719c-.5-1.660157-1.28125-3.269531-2.390625-4.734375-.800781-1.058594-1.722656-1.964844-2.722656-2.75-2.691406-3.324219-5.769531-6.351563-9.195312-9l-124.253907-96.058594c-.40625-.3125-.824219-.605469-1.253906-.871094-18.304687-11.382812-41.039063-11.382812-59.34375 0-.429687.265625-.847656.558594-1.253906.871094l-124.253907 96.058594c-13.664062 10.5625-21.820312 27.179687-21.820312 44.449218v147.960938c0 30.980469 25.203125 56.1875 56.1875 56.1875h146.210938c8.285156 0 15-6.71875 15-15 0-8.285156-6.714844-15-15-15h-146.210938c-14.441406 0-26.1875-11.746094-26.1875-26.1875v-147.960938c0-8.046874 3.800781-15.792968 10.171875-20.714843l123.582031-95.539063c8.230469-4.835937 18.261719-4.835937 26.492188 0l118.421875 91.546875-118.363281 89.542969c-8.269532 4.886719-18.371094 4.882812-26.640626-.015625l-81.328124-60.894531c-6.628907-4.964844-16.03125-3.613282-20.996094 3.019531-4.964844 6.628906-3.613282 16.03125 3.015625 20.996094l81.90625 61.324219c.34375.257812.703125.503906 1.066406.730468 9.152344 5.691406 19.410156 8.535156 29.671875 8.535156 10.257812 0 20.519531-2.84375 29.667969-8.535156.390625-.242187.765625-.5 1.128906-.777344l116.203125-87.90625v29.265626c0 8.285156 6.714844 15 15 15s15-6.714844 15-15v-30.578126c0-9.871093-2.675781-19.527343-7.511719-27.964843zm0 0"/><path d="m407.402344 346.9375-19.707032 19.671875v-74.050781c0-8.285156-6.714843-15-15-15-8.285156 0-15 6.714844-15 15v74.050781l-19.710937-19.671875c-5.859375-5.851562-15.355469-5.84375-21.210937.019531-5.851563 5.863281-5.84375 15.359375.019531 21.214844l40.535156 40.460937c4.238281 4.238282 9.804687 6.355469 15.371094 6.355469 5.5625 0 11.121093-2.117187 15.351562-6.34375l40.546875-40.476562c5.863282-5.851563 5.871094-15.347657.019532-21.210938-5.851563-5.863281-15.351563-5.871093-21.214844-.019531zm0 0"/></g></svg>