<svg viewBox="0 0 512 512" xmlns="http://www.w3.org/2000/svg" xmlns:xlink="http://www.w3.org/1999/xlink"><linearGradient id="a" gradientUnits="userSpaceOnUse" x1="9.5%" x2="100%" y1="13%" y2="68%"><stop offset="0" stop-color="#21ffff"/><stop offset="0.8" stop-color="#1190cb"/></linearGradient><path d="m512 256c0 141.386719-114.613281 256-256 256s-256-114.613281-256-256 114.613281-256 256-256 256 114.613281 256 256zm0 0" fill="url(#a)"/><g fill="#fff"><path d="m425.488281 186.890625c-.5-1.664063-1.28125-3.273437-2.390625-4.738281-.800781-1.058594-1.726562-1.964844-2.722656-2.75-2.691406-3.324219-5.773438-6.351563-9.195312-9l-124.257813-96.058594c-.402344-.3125-.820313-.605469-1.25-.871094-18.304687-11.382812-41.039063-11.382812-59.34375 0-.429687.265625-.847656.558594-1.25.871094l-124.257813 96.058594c-13.664062 10.5625-21.820312 27.179687-21.820312 44.453125v147.957031c0 30.980469 25.203125 56.1875 56.1875 56.1875h168.863281c8.285157 0 15-6.714844 15-15s-6.714843-15-15-15h-168.863281c-14.441406 0-26.1875-11.746094-26.1875-26.1875v-147.957031c0-8.050781 3.800781-15.796875 10.171875-20.71875l123.582031-95.539063c8.230469-4.835937 18.261719-4.835937 26.492188 0l118.421875 91.550782-118.363281 89.539062c-8.269532 4.886719-18.375 4.882812-26.640626-.015625l-81.328124-60.890625c-6.628907-4.964844-16.03125-3.617188-20.996094 3.015625s-3.613282 16.03125 3.015625 21l81.902343 61.320313c.347657.261718.703126.503906 1.070313.730468 9.148437 5.691406 19.410156 8.535156 29.667969 8.535156 10.261718 0 20.523437-2.84375 29.671875-8.535156.386719-.238281.765625-.5 1.128906-.773437l116.203125-87.910157v27.207032c0 8.285156 6.714844 15 15 15s15-6.714844 15-15v-28.519532c0-9.871093-2.675781-19.527343-7.511719-27.960937zm0 0"/><path d="m388.058594 287.921875c-8.472656-8.472656-22.253906-8.472656-30.71875-.011719l-40.546875 40.476563c-5.863281 5.851562-5.871094 15.347656-.019531 21.210937 5.855468 5.863282 15.351562 5.875 21.214843.019532l19.707031-19.671876v74.050782c0 8.285156 6.714844 15 15 15 8.285157 0 15-6.714844 15-15v-74.050782l19.707032 19.671876c2.929687 2.921874 6.761718 4.386718 10.597656 4.386718 3.84375 0 7.6875-1.46875 10.617188-4.40625 5.851562-5.863281 5.84375-15.359375-.019532-21.210937zm0 0"/></g></svg>