<svg viewBox="0 0 512 512" xmlns="http://www.w3.org/2000/svg" xmlns:xlink="http://www.w3.org/1999/xlink"><linearGradient id="a" gradientUnits="userSpaceOnUse" x1="9.5%" x2="100%" y1="13%" y2="68%"><stop offset="0" stop-color="#21ffff"/><stop offset="0.8" stop-color="#1190cb"/></linearGradient><path d="m512 256c0 141.386719-114.613281 256-256 256s-256-114.613281-256-256 114.613281-256 256-256 256 114.613281 256 256zm0 0" fill="url(#a)"/><g fill="#fff"><path d="m218.050781 351.808594c-8.28125 0-15 6.714844-15 15v42.570312c0 8.28125 6.71875 15 15 15 8.285157 0 15-6.71875 15-15v-42.570312c0-8.285156-6.714843-15-15-15zm0 0"/><path d="m243.898438 300.035156h-10.847657v-195.65625c0-8.285156-6.714843-15-15-15-8.285156 0-15 6.714844-15 15v195.65625h-10.847656c-8.28125 0-15 6.714844-15 15s6.71875 15 15 15h51.695313c8.285156 0 15-6.714844 15-15s-6.714844-15-15-15zm0 0"/><path d="m130.171875 182.507812c-8.285156 0-15 6.714844-15 15v211.871094c0 8.28125 6.714844 15 15 15 8.28125 0 15-6.71875 15-15v-211.871094c0-8.285156-6.71875-15-15-15zm0 0"/><path d="m156.019531 130.890625h-10.847656v-26.511719c0-8.285156-6.71875-15-15-15-8.285156 0-15 6.714844-15 15v26.511719h-10.847656c-8.285157 0-15 6.71875-15 15 0 8.285156 6.714843 15 15 15h51.695312c8.28125 0 15-6.714844 15-15 0-8.28125-6.71875-15-15-15zm0 0"/><path d="m382.828125 199.984375c-8.28125 0-15 6.714844-15 15v194.394531c0 8.28125 6.71875 15 15 15 8.285156 0 15-6.71875 15-15v-194.394531c0-8.285156-6.714844-15-15-15zm0 0"/><path d="m408.675781 148.261719h-10.847656v-43.882813c0-8.285156-6.714844-15-15-15-8.28125 0-15 6.714844-15 15v43.882813h-10.847656c-8.28125 0-15 6.714843-15 15 0 8.28125 6.71875 15 15 15h51.695312c8.285157 0 15-6.71875 15-15 0-8.285157-6.714843-15-15-15zm0 0"/><path d="m298.824219 294.945312c-8.285157 0-15 6.714844-15 15v99.433594c0 8.28125 6.714843 15 15 15 8.285156 0 15-6.71875 15-15v-99.433594c0-8.285156-6.714844-15-15-15zm0 0"/><path d="m324.671875 243.328125h-10.847656v-138.949219c0-8.285156-6.714844-15-15-15-8.285157 0-15 6.714844-15 15v138.949219h-10.847657c-8.285156 0-15 6.714844-15 15s6.714844 15 15 15h51.695313c8.285156 0 15-6.714844 15-15s-6.714844-15-15-15zm0 0"/></g></svg>