<svg viewBox="0 0 512 512" xmlns="http://www.w3.org/2000/svg" xmlns:xlink="http://www.w3.org/1999/xlink"><linearGradient id="a" gradientUnits="userSpaceOnUse" x1="9.5%" x2="100%" y1="13%" y2="68%"><stop offset="0" stop-color="#21ffff"/><stop offset="0.8" stop-color="#1190cb"/></linearGradient><path d="m512 256c0 141.386719-114.613281 256-256 256s-256-114.613281-256-256 114.613281-256 256-256 256 114.613281 256 256zm0 0" fill="url(#a)"/><path d="m395.5 396.5h-168.144531l122.597656-120.453125c5.910156-5.808594 5.992187-15.304687.1875-21.214844-5.804687-5.90625-15.300781-5.992187-21.210937-.1875l-32.257813 31.695313-91.078125-90.949219 76.472656-76.554687c4.730469-4.730469 11.019532-7.335938 17.707032-7.335938s12.976562 2.605469 17.707031 7.335938l55.683593 55.683593c4.730469 4.730469 7.335938 11.019531 7.335938 17.707031s-2.605469 12.976563-7.335938 17.707032c-5.855468 5.859375-5.855468 15.355468 0 21.214844 5.859376 5.859374 15.355469 5.859374 21.214844 0 10.394532-10.394532 16.121094-24.21875 16.121094-38.921876 0-14.703124-5.726562-28.523437-16.121094-38.917968l-55.683594-55.6875c-10.398437-10.394532-24.21875-16.121094-38.921874-16.121094-14.703126 0-28.527344 5.726562-38.925782 16.128906l-179.226562 179.417969c-10.394532 10.394531-16.121094 24.21875-16.121094 38.921875 0 14.660156 5.691406 28.445312 16.03125 38.832031l53.773438 55.492188c.066406.066406.128906.132812.195312.199219 10.285156 10.222656 23.9375 15.910156 38.4375 16.007812h.378906c.671875 0 1.335938-.023438 2.003906-.046875.316407.019531.628907.046875.949219.046875h218.230469c8.28125 0 15-6.714844 15-15s-6.71875-15-15-15zm-120.230469-89.132812-61.996093 60.914062-90.5-89.984375 61.617187-61.683594zm-172.269531 26.476562c-.054688-.058594-.109375-.113281-.167969-.167969-4.730469-4.730469-7.332031-11.019531-7.332031-17.707031 0-6.089844 2.164062-11.839844 6.121094-16.398438l90.25 89.734376-.183594.183593c-9.707031 9.355469-25.347656 9.261719-34.945312-.1875zm0 0" fill="#fff"/></svg>