<svg viewBox="0 0 512 512" xmlns="http://www.w3.org/2000/svg" xmlns:xlink="http://www.w3.org/1999/xlink"><linearGradient id="a" gradientUnits="userSpaceOnUse" x1="9.5%" x2="100%" y1="13%" y2="68%"><stop offset="0" stop-color="#21ffff"/><stop offset="0.8" stop-color="#1190cb"/></linearGradient><path d="m512 256c0 141.386719-114.613281 256-256 256s-256-114.613281-256-256 114.613281-256 256-256 256 114.613281 256 256zm0 0" fill="url(#a)"/><g fill="#fff"><path d="m139.710938 118.5h45.855468c8.285156 0 15-6.714844 15-15s-6.714844-15-15-15h-56.21875c-22.523437 0-40.847656 18.324219-40.847656 40.847656v56.21875c0 8.285156 6.714844 15 15 15s15-6.714844 15-15v-45.851562l75.84375 75.84375c2.929688 2.929687 6.769531 4.394531 10.605469 4.394531 3.839843 0 7.679687-1.464844 10.609375-4.394531 5.855468-5.859375 5.855468-15.355469 0-21.214844zm0 0"/><path d="m194.34375 296.441406-75.84375 75.84375v-45.851562c0-8.285156-6.714844-15-15-15s-15 6.714844-15 15v56.21875c0 22.523437 18.324219 40.847656 40.847656 40.847656h56.21875c8.285156 0 15-6.714844 15-15s-6.714844-15-15-15h-45.851562l75.84375-75.84375c5.855468-5.859375 5.855468-15.355469 0-21.214844-5.859375-5.855468-15.355469-5.855468-21.214844 0zm0 0"/><path d="m408.5 311.433594c-8.285156 0-15 6.71875-15 15v45.855468l-75.84375-75.847656c-5.859375-5.855468-15.355469-5.855468-21.214844 0-5.855468 5.859375-5.855468 15.355469 0 21.214844l75.84375 75.84375h-45.851562c-8.285156 0-15 6.71875-15 15 0 8.285156 6.714844 15 15 15h56.21875c22.523437 0 40.847656-18.324219 40.847656-40.847656v-56.21875c0-8.285156-6.714844-15-15-15zm0 0"/><path d="m382.652344 88.5h-56.21875c-8.285156 0-15 6.714844-15 15s6.714844 15 15 15h45.851562l-75.84375 75.84375c-5.855468 5.859375-5.855468 15.355469 0 21.214844 2.929688 2.929687 6.769532 4.394531 10.609375 4.394531 3.835938 0 7.675781-1.464844 10.605469-4.394531l75.84375-75.84375v45.851562c0 8.285156 6.714844 15 15 15s15-6.714844 15-15v-56.21875c0-22.523437-18.324219-40.847656-40.847656-40.847656zm0 0"/></g></svg>