<svg viewBox="0 0 512 512" xmlns="http://www.w3.org/2000/svg" xmlns:xlink="http://www.w3.org/1999/xlink"><linearGradient id="a" gradientUnits="userSpaceOnUse" x1="9.5%" x2="100%" y1="13%" y2="68%"><stop offset="0" stop-color="#21ffff"/><stop offset="0.8" stop-color="#1190cb"/></linearGradient><path d="m512 256c0 141.386719-114.613281 256-256 256s-256-114.613281-256-256 114.613281-256 256-256 256 114.613281 256 256zm0 0" fill="url(#a)"/><g fill="#fff"><path d="m287.355469 256c0 16.882812-13.6875 30.570312-30.570313 30.570312-16.886718 0-30.574218-13.6875-30.574218-30.570312s13.6875-30.570312 30.574218-30.570312c16.882813 0 30.570313 13.6875 30.570313 30.570312zm0 0"/><path d="m256.785156 344.6875c-48.902344 0-88.6875-39.785156-88.6875-88.6875s39.785156-88.6875 88.6875-88.6875 88.683594 39.785156 88.683594 88.6875-39.78125 88.6875-88.683594 88.6875zm0-147.375c-32.359375 0-58.6875 26.328125-58.6875 58.6875s26.328125 58.6875 58.6875 58.6875 58.6875-26.328125 58.6875-58.6875-26.328125-58.6875-58.6875-58.6875zm0 0"/><path d="m256.34375 407.398438c-40.753906 0-81.070312-14.609376-119.832031-43.417969-38.316407-28.480469-61.9375-61.175781-70.316407-73.914063-13.613281-20.695312-13.613281-47.4375 0-68.132812 8.378907-12.738282 32-45.4375 70.316407-73.914063 38.761719-28.808593 79.078125-43.417969 119.832031-43.417969 40.808594 0 81.089844 14.644532 119.726562 43.535157 38.144532 28.519531 61.578126 61.261719 69.882813 74.011719 13.390625 20.5625 13.390625 47.136718 0 67.703124-4.519531 6.941407-13.8125 8.90625-20.753906 4.382813-6.941407-4.519531-8.90625-13.8125-4.386719-20.753906 6.917969-10.621094 6.917969-24.339844 0-34.960938-25.132812-38.597656-88.058594-103.917969-164.46875-103.917969s-139.71875 65.257813-165.082031 103.816407c-7.027344 10.679687-7.027344 24.480469 0 35.160156 25.363281 38.5625 88.671875 103.820313 165.082031 103.820313 52.933594 0 96.648438-30.59375 124-56.257813 6.042969-5.667969 15.535156-5.367187 21.203125.671875 5.667969 6.042969 5.367187 15.535156-.671875 21.203125-31.304688 29.371094-81.785156 64.382813-144.53125 64.382813zm0 0"/></g></svg>