<svg viewBox="0 0 512 512" xmlns="http://www.w3.org/2000/svg" xmlns:xlink="http://www.w3.org/1999/xlink"><linearGradient id="a" gradientUnits="userSpaceOnUse" x1="9.5%" x2="100%" y1="13%" y2="68%"><stop offset="0" stop-color="#21ffff"/><stop offset="0.8" stop-color="#1190cb"/></linearGradient><path d="m512 256c0 141.386719-114.613281 256-256 256s-256-114.613281-256-256 114.613281-256 256-256 256 114.613281 256 256zm0 0" fill="url(#a)"/><path d="m409.5 320.109375c8.285156 0 15-6.714844 15-15v-162.839844c0-29.648437-24.121094-53.769531-53.769531-53.769531h-227.460938c-29.648437 0-53.769531 24.121094-53.769531 53.769531v227.457031c0 29.652344 24.121094 53.773438 53.769531 53.773438h227.457031c29.652344 0 53.773438-24.121094 53.773438-53.773438 0-8.28125-6.71875-15-15-15-8.285156 0-15 6.71875-15 15 0 13.109376-10.664062 23.773438-23.773438 23.773438h-65.773437v-108.285156h27.003906c8.285157 0 15-6.714844 15-15 0-8.28125-6.714843-15-15-15h-27.003906v-33.460938c0-13.109375 10.664063-23.773437 23.773437-23.773437h6.460938c8.285156 0 15-6.714844 15-15 0-8.285157-6.714844-15-15-15h-6.460938c-29.648437 0-53.773437 24.121093-53.773437 53.773437v33.460938h-27c-8.285156 0-15 6.71875-15 15 0 8.285156 6.714844 15 15 15h27v108.285156h-131.683594c-13.105469 0-23.769531-10.664062-23.769531-23.769531v-227.460938c0-13.105469 10.664062-23.769531 23.769531-23.769531h227.457031c13.109376 0 23.773438 10.664062 23.773438 23.769531v162.839844c0 8.285156 6.714844 15 15 15zm0 0" fill="#fff"/></svg>