<svg viewBox="0 0 512 512" xmlns="http://www.w3.org/2000/svg" xmlns:xlink="http://www.w3.org/1999/xlink"><linearGradient id="a" gradientUnits="userSpaceOnUse" x1="9.5%" x2="100%" y1="13%" y2="68%"><stop offset="0" stop-color="#21ffff"/><stop offset="0.8" stop-color="#1190cb"/></linearGradient><path d="m512 256c0 141.386719-114.613281 256-256 256s-256-114.613281-256-256 114.613281-256 256-256 256 114.613281 256 256zm0 0" fill="url(#a)"/><path d="m445.175781 225.03125c-.023437-.027344-.054687-.054688-.078125-.082031l-112.332031-110.699219c-12.761719-12.742188-31.039063-16.371094-47.710937-9.472656-16.6875 6.910156-27.054688 22.421875-27.054688 40.484375v62.839843l-95.234375-93.851562c-12.765625-12.742188-31.039063-16.375-47.710937-9.472656-16.6875 6.910156-27.054688 22.421875-27.054688 40.480468v221.480469c0 18.0625 10.367188 33.570313 27.054688 40.480469 5.589843 2.3125 11.355468 3.441406 17.039062 3.441406 11.265625 0 22.1875-4.441406 30.671875-12.914062l95.234375-93.84375v62.832031c0 18.089844 10.347656 33.609375 27 40.503906 5.550781 2.296875 11.28125 3.421875 16.929688 3.421875 11.253906-.003906 22.175781-4.460937 30.664062-12.953125 5.855469-5.859375 5.855469-15.359375-.007812-21.214843-5.859376-5.855469-15.355469-5.851563-21.210938.007812-6.027344 6.03125-12.925781 3.839844-14.898438 3.019531-1.988281-.820312-8.476562-4.175781-8.476562-12.78125v-221.476562c0-8.566407 6.53125-11.9375 8.53125-12.765625s9-3.058594 15.054688 3c.027343.027344.054687.054687.082031.082031l112.320312 110.691406c5.335938 5.371094 5.339844 14.082031.011719 19.457031l-62.820312 61.6875c-5.914063 5.804688-6 15.304688-.195313 21.214844s15.304687 5.996094 21.214844.191406l62.878906-61.742187c.03125-.035156.066406-.066406.097656-.101563 17.070313-17.078124 17.070313-44.867187 0-61.945312zm-191.1875 40.707031-112.320312 110.683594c-.027344.027344-.054688.054687-.082031.082031-6.054688 6.058594-13.054688 3.824219-15.054688 2.996094-2.003906-.828125-8.53125-4.195312-8.53125-12.761719v-221.476562c0-8.566407 6.53125-11.9375 8.53125-12.765625.941406-.390625 2.992188-1.089844 5.53125-1.089844 2.851562 0 6.320312.882812 9.523438 4.089844.027343.027344.054687.054687.082031.082031l112.320312 110.691406c5.339844 5.375 5.339844 14.09375 0 19.46875zm0 0" fill="#fff"/></svg>