<svg viewBox="0 0 512 512" xmlns="http://www.w3.org/2000/svg" xmlns:xlink="http://www.w3.org/1999/xlink"><linearGradient id="a" gradientUnits="userSpaceOnUse" x1="9.5%" x2="100%" y1="13%" y2="68%"><stop offset="0" stop-color="#21ffff"/><stop offset="0.8" stop-color="#1190cb"/></linearGradient><path d="m512 256c0 141.386719-114.613281 256-256 256s-256-114.613281-256-256 114.613281-256 256-256 256 114.613281 256 256zm0 0" fill="url(#a)"/><g fill="#fff"><path d="m345.507812 441h-177.125c-32.101562 0-58.222656-26.117188-58.222656-58.222656v-253.554688c0-32.105468 26.121094-58.222656 58.222656-58.222656h177.125c32.101563 0 58.21875 26.117188 58.21875 58.222656v181.523438c0 8.285156-6.714843 15-15 15-8.285156 0-15-6.714844-15-15v-181.523438c0-15.5625-12.660156-28.222656-28.21875-28.222656h-177.125c-15.5625 0-28.222656 12.660156-28.222656 28.222656v253.558594c0 15.558594 12.660156 28.21875 28.222656 28.21875h177.125c15.558594 0 28.21875-12.660156 28.21875-28.21875 0-8.285156 6.714844-15 15-15 8.285157 0 15 6.714844 15 15 0 32.101562-26.117187 58.21875-58.21875 58.21875zm0 0"/><path d="m331.101562 187.441406h-148.390624c-8.285157 0-15-6.71875-15-15 0-8.285156 6.714843-15 15-15h148.390624c8.28125 0 15 6.714844 15 15 0 8.28125-6.71875 15-15 15zm0 0"/><path d="m331.101562 245.066406h-148.390624c-8.285157 0-15-6.714844-15-15s6.714843-15 15-15h148.390624c8.28125 0 15 6.714844 15 15s-6.71875 15-15 15zm0 0"/><path d="m272.832031 302.695312h-90.121093c-8.285157 0-15-6.714843-15-15 0-8.285156 6.714843-15 15-15h90.121093c8.285157 0 15 6.714844 15 15 0 8.285157-6.714843 15-15 15zm0 0"/></g></svg>