<svg viewBox="0 0 512 512" xmlns="http://www.w3.org/2000/svg" xmlns:xlink="http://www.w3.org/1999/xlink"><linearGradient id="a" gradientUnits="userSpaceOnUse" x1="9.5%" x2="100%" y1="13%" y2="68%"><stop offset="0" stop-color="#21ffff"/><stop offset="0.8" stop-color="#1190cb"/></linearGradient><path d="m512 256c0 141.386719-114.613281 256-256 256s-256-114.613281-256-256 114.613281-256 256-256 256 114.613281 256 256zm0 0" fill="url(#a)"/><path d="m419 112.175781h-324c-8.285156 0-15 6.714844-15 15 0 53.472657 15.816406 100.277344 49.769531 147.300781 20.984375 29.058594 58.359375 50.511719 77.910157 60.355469v82.566407c0 5.726562 3.257812 10.953124 8.398437 13.46875l68.644531 33.636718c2.089844 1.023438 4.347656 1.53125 6.597656 1.53125 2.765626 0 5.519532-.765625 7.941407-2.273437 4.390625-2.738281 7.0625-7.550781 7.0625-12.726563v-56.582031c0-8.28125-6.71875-15-15-15-8.285157 0-15 6.71875-15 15v32.527344l-38.644531-18.9375v-82.628907c0-5.859374-3.414063-11.183593-8.738282-13.628906-25.484375-11.707031-58.53125-32.273437-74.847656-54.871094-26.832031-37.15625-40.878906-73.96875-43.601562-114.738281h293.015624c-.5625 8.414063-1.613281 16.660157-3.152343 24.773438h-229.847657c-8.285156 0-15 6.714843-15 15 0 8.285156 6.714844 15 15 15h221.691407c-7.257813 20.328125-17.945313 40.097656-32.292969 59.964843-17.253906 23.894532-49.761719 44.859376-74.328125 55.039063-7.652344 3.167969-11.285156 11.945313-8.113281 19.597656 3.171875 7.652344 11.945312 11.289063 19.601562 8.117188 26.386719-10.9375 65.050782-34.570313 87.164063-65.191407 33.953125-47.023437 49.769531-93.828124 49.769531-147.300781 0-8.285156-6.714844-15-15-15zm0 0" fill="#fff"/></svg>