<svg viewBox="0 0 512 512" xmlns="http://www.w3.org/2000/svg" xmlns:xlink="http://www.w3.org/1999/xlink"><linearGradient id="a" gradientUnits="userSpaceOnUse" x1="9.5%" x2="100%" y1="13%" y2="68%"><stop offset="0" stop-color="#21ffff"/><stop offset="0.8" stop-color="#1190cb"/></linearGradient><path d="m512 256c0 141.386719-114.613281 256-256 256s-256-114.613281-256-256 114.613281-256 256-256 256 114.613281 256 256zm0 0" fill="url(#a)"/><g fill="#fff"><path d="m432.640625 342.269531c-.070313.003907-3.753906.238281-11.785156-.21875 30.480469-46.773437 29.195312-104.867187 28.21875-149.011719-.160157-7.117187-.304688-13.878906-.304688-20.179687 0-7.972656-6.242187-14.554687-14.203125-14.976563-7.992187-.546874-14.867187 5.449219-15.714844 13.378907-.582031 5.4375-2.828124 11.125-6.554687 16.796875-29.667969-81.691406-94.332031-122.867188-97.335937-124.738282-7.019532-4.386718-16.277344-2.253906-20.664063 4.777344-4.390625 7.023438-2.25 16.28125 4.777344 20.667969.703125.4375 70.691406 44.996094 91.769531 131.878906 1.210938 4.992188 4.894531 9.019531 9.761719 10.667969 4.863281 1.652344 10.234375.695312 14.238281-2.535156 1.492188-1.203125 3.027344-2.496094 4.574219-3.867188-.449219 41.621094-6.164063 86.605469-38.21875 118.65625-4.027344 4.03125-5.425781 9.996094-3.605469 15.398438 1.816406 5.398437 6.542969 9.300781 12.1875 10.074218 2.988281.40625 5.808594.765626 8.46875 1.082032-6.226562 5.089844-12.648438 9.808594-19.242188 14.132812-6.929687 4.542969-8.859374 13.839844-4.320312 20.769532 2.878906 4.390624 7.671875 6.777343 12.558594 6.777343 2.820312 0 5.671875-.796875 8.210937-2.460937 17.703125-11.609375 34.296875-25.710938 49.3125-41.917969 4.179688-4.515625 5.128907-11.113281 2.480469-16.660156-2.65625-5.550781-8.441406-8.941407-14.609375-8.492188zm0 0"/><path d="m183.125 343.933594c18.902344 19.890625 44.109375 30.261718 74.914062 30.820312 1.324219.023438 2.644532.035156 3.949219.035156 37.402344 0 66.40625-9.867187 86.253907-29.359374 24.628906-24.191407 27.289062-56.144532 27.289062-68.761719 0-38.5625-11.261719-61.988281-16.074219-71.992188l-.734375-1.542969c-3.542968-7.492187-12.476562-10.691406-19.972656-7.160156-7.492188 3.539063-10.695312 12.476563-7.160156 19.96875l.832031 1.734375c4.257813 8.851563 13.109375 27.265625 13.109375 58.992188 0 8.832031-1.785156 31.125-18.3125 47.355469-14.582031 14.316406-37.726562 21.324218-68.640625 20.730468-22.734375-.410156-40.269531-7.40625-53.609375-21.382812-5.503906-5.773438-9.878906-12.355469-13.375-19.210938 6.71875 2.21875 13.976562 3.460938 21.707031 3.460938 10.644531 0 21.070313-5.273438 31.15625-10.378906 4.628907-2.339844 12.382813-6.265626 14.992188-6.402344 2.742187 0 7.507812 4.039062 9.726562 6.941406 4.921875 6.605469 14.261719 7.992188 20.90625 3.113281 6.671875-4.910156 8.105469-14.292969 3.199219-20.96875-1.4375-1.953125-14.589844-19.082031-33.832031-19.082031-9.5 0-18.75 4.675781-28.539063 9.632812-5.625 2.847657-14.125 7.148438-17.609375 7.148438-17.398437 0-34.925781-11.40625-35.3125-36.800781l.222657-.011719c0-10.753906 12.746093-18.957031 12.964843-19.070312.707031-.175782 1.445313-.257813 2.214844-.257813 9.199219 0 22.199219 11.699219 22.199219 11.699219s2.921875-19.136719-6.867188-27.460938c1-4.769531 27.113282-17.371094 29.21875-18.925781 2.882813-2.105469 6.273438-5.257813 8.160156-9.140625 1.332032-2.4375 3.28125-6.5 3.058594-11.601562-.207031-3.398438-3.710937-5.375-28.257812-5.375-1.894532 0-3.921875.011718-6.078125.035156-.050781 0-.105469 0-.160157 0-8.183593 0-18.445312-8.363282-18.910156-14.496094 3.550782-12.976562 14.066406-30.386719 25.9375-38.140625 0 0-.289062-.011719-.832031-.011719-5.152344 0-35.445313.96875-52.570313 21.371094-7.554687-1.640625-12.785156-2.285156-19.765624-2.285156h-.066407c-9.199219.003906-17.464843 1.167968-23.648437 3.050781-4.007813-2.519531-22.121094-21.65625-22.121094-37.378906 0 0-19.070312 17.304687-19.070312 65.601562v3.050781c-4.769532 6.546876-25.175782 39.15625-25.175782 105.355469h.34375c.503906 13.222657 3.871094 54.023438 25.890625 94.132813 22.554688 41.089844 70.0625 90.074218 168.289063 90.074218 26.585937 0 52.648437-3.808593 77.453125-11.324218 7.929687-2.398438 12.410156-10.773438 10.007812-18.703125-2.402343-7.933594-10.785156-12.414063-18.703125-10.003907-21.988281 6.65625-45.121094 10.035157-68.757812 10.035157-149.871094 0-163.023438-129.199219-164.160156-154.210938h.148437c0-60.179687 18.53125-86.296875 19.320313-87.378906l5.855468-8.035156 6.230469-7.96875 13.324219-4.050781c1.332031-.40625 6.335937-1.726563 14.769531-1.734376h.070313c5.472656 0 10.710937.535157 15.574218 1.59375l3.992188.867188c3.816406 9.351562 11.097656 17.234375 19.71875 22.726562-2.855469 2.992188-5.167969 6.265626-6.824219 9.988282l-.460937.113281-2.996094 1.496094c-7.738282 3.871093-29.835938 20.429687-29.835938 47.890625l.253906-.011719c-.128906 6.515625-.269531 64.304687 35.179688 101.605469zm0 0"/></g></svg>