<?xml version="1.0" encoding="utf-8"?>
<!-- Generator: Adobe Illustrator 16.0.0, SVG Export Plug-In . SVG Version: 6.00 Build 0)  -->
<!DOCTYPE svg PUBLIC "-//W3C//DTD SVG 1.1//EN" "http://www.w3.org/Graphics/SVG/1.1/DTD/svg11.dtd">
<svg version="1.1" id="Layer_1" xmlns="http://www.w3.org/2000/svg" xmlns:xlink="http://www.w3.org/1999/xlink" x="0px" y="0px"
	 width="127.559px" height="127.559px" viewBox="0 0 127.559 127.559" enable-background="new 0 0 127.559 127.559"
	 xml:space="preserve">
<g>
	<path fill-rule="evenodd" clip-rule="evenodd" fill="#1190cb" d="M116.233,113.37c-32.747-0.075-68.477,0.014-101.224,0.012
		c-1.542,0-3.083,0.02-4.623-0.031c-1.647-0.056-3.135-0.478-3.25-2.574c-0.123-2.246,1.502-2.545,3.084-2.664
		c1.534-0.114,3.08-0.061,4.621-0.063c31.399-0.002,62.799-0.127,94.196,0.124c5.152,0.041,6.523-1.474,6.428-6.758
		c-0.313-17.45-0.125-34.91-0.107-52.367c0.001-1.597,0.081-3.203,0.268-4.787c0.125-1.066,0.797-1.841,1.89-1.939
		c1.276-0.115,2.334,0.424,2.644,1.758c0.268,1.15,0.315,2.378,0.313,3.572c-0.027,22.27-0.312,39.14-0.355,61.409
		C120.135,113.352,118.979,113.314,116.233,113.37z"/>
	<path fill-rule="evenodd" clip-rule="evenodd" fill="#1190cb" d="M104.936,23.732c-1.101,0.353-2.201,0.71-3.304,1.057
		c-1.568,0.494-2.703-0.185-3.215-1.66c-0.521-1.501,0.051-2.829,1.444-3.509c3.651-1.781,7.299-3.587,11.04-5.145
		c2.155-0.896,3.663,0.285,4.557,2.423c1.305,3.119,2.623,6.232,3.998,9.318c0.886,1.991,1.44,4.021-1,5.044
		c-2.067,0.868-3.11-0.779-3.895-2.532c-0.483-1.08-1.056-2.117-1.775-3.545c-3.441,6.819-6.415,13.516-10.055,19.794
		C82.484,79.896,52.958,98.539,13.547,99.575c-0.96,0.025-1.939,0.118-2.88-0.025c-1.735-0.263-3.629-0.596-3.58-3.03
		c0.05-2.515,1.935-2.632,3.726-2.668c7.313-0.151,14.599-0.609,21.776-2.18c36.526-7.992,59.54-32.081,73.46-66.978
		c0.041-0.443,0.085-0.887,0.129-1.33C105.765,23.486,105.35,23.609,104.936,23.732z"/>
	<path fill-rule="evenodd" clip-rule="evenodd" fill="#1190cb" d="M101.723,81.97c-0.003-5.603-0.011-11.205,0.002-16.807
		c0.003-1.839-0.008-3.865,2.344-4.092c2.254-0.218,3.074,1.565,3.084,3.473c0.064,12.005,0.045,24.008-0.029,36.012
		c-0.01,1.697-0.775,3.203-2.735,3.187c-2.388-0.02-2.656-1.843-2.66-3.763C101.72,93.976,101.726,87.974,101.723,81.97z"/>
	<path fill-rule="evenodd" clip-rule="evenodd" fill="#1190cb" d="M88.06,91.36c0-2.786-0.036-5.572,0.013-8.356
		c0.033-1.823,0.952-3.186,2.717-3.202c1.781-0.017,2.748,1.395,2.766,3.172c0.06,5.967,0.076,11.938-0.039,17.903
		c-0.035,1.762-1.056,3.006-2.968,2.842c-1.592-0.135-2.388-1.281-2.432-2.81c-0.09-3.181-0.027-6.365-0.027-9.549
		C88.08,91.36,88.069,91.36,88.06,91.36z"/>
	<path fill-rule="evenodd" clip-rule="evenodd" fill="#1190cb" d="M79.931,96.76c-0.008,1.2,0.007,2.401-0.011,3.601
		c-0.025,1.746-0.457,3.262-2.457,3.37c-2.302,0.125-2.936-1.567-3.038-3.504c-0.116-2.194-0.084-4.401-0.042-6.6
		c0.041-2.084,0.299-4.34,2.888-4.292c2.649,0.049,2.649,2.366,2.665,4.423C79.943,94.759,79.938,95.76,79.931,96.76z"/>
	<path fill-rule="evenodd" clip-rule="evenodd" fill="#1190cb" d="M63.511,98.747c1.629-0.021,2.491,0.812,2.521,2.513
		c0.025,1.387-0.667,2.337-1.946,2.518c-1.513,0.216-2.667-0.455-2.813-2.19C61.136,99.962,61.869,98.932,63.511,98.747z"/>
</g>
</svg>
