<svg viewBox="0 0 512 512" xmlns="http://www.w3.org/2000/svg" xmlns:xlink="http://www.w3.org/1999/xlink"><linearGradient id="a" gradientUnits="userSpaceOnUse" x1="9.5%" x2="100%" y1="13%" y2="68%"><stop offset="0" stop-color="#21ffff"/><stop offset="0.8" stop-color="#1190cb"/></linearGradient><path d="m512 256c0 141.386719-114.613281 256-256 256s-256-114.613281-256-256 114.613281-256 256-256 256 114.613281 256 256zm0 0" fill="url(#a)"/><g fill="#fff"><path d="m256 87.5c64.609375 0 117.742188 48.445312 123.59375 112.695312.75 8.25 8.027344 14.328126 16.296875 13.578126 8.25-.753907 14.332031-8.050782 13.578125-16.300782-3.472656-38.125-20.972656-73.4375-49.28125-99.421875-28.492188-26.152343-65.492188-40.550781-104.1875-40.550781-84.976562 0-154.109375 69.132812-154.109375 154.109375v41.242187c-16.976563 10.027344-28.390625 28.503907-28.390625 49.605469v62.457031c0 31.75 25.832031 57.585938 57.585938 57.585938h28.390624c8.28125 0 15-6.71875 15-15v-147.628906c0-8.28125-6.71875-15-15-15h-27.585937v-33.261719c0-68.433594 55.675781-124.109375 124.109375-124.109375zm-111.523438 305h-13.390624c-15.210938 0-27.585938-12.375-27.585938-27.585938v-62.457031c0-15.210937 12.375-27.585937 27.585938-27.585937h13.390624zm0 0"/><path d="m380.914062 244.871094h-28.390624c-8.28125 0-15 6.71875-15 15v147.628906c0 8.28125 6.71875 15 15 15h28.390624c31.753907 0 57.585938-25.835938 57.585938-57.585938v-62.457031c0-31.753906-25.832031-57.585937-57.585938-57.585937zm27.585938 120.042968c0 15.210938-12.375 27.585938-27.585938 27.585938h-13.390624v-117.628906h13.390624c15.210938 0 27.585938 12.375 27.585938 27.585937zm0 0"/></g></svg>