<svg viewBox="0 0 512 512" xmlns="http://www.w3.org/2000/svg" xmlns:xlink="http://www.w3.org/1999/xlink"><linearGradient id="a" gradientUnits="userSpaceOnUse" x1="9.5%" x2="100%" y1="13%" y2="68%"><stop offset="0" stop-color="#21ffff"/><stop offset="0.8" stop-color="#1190cb"/></linearGradient><path d="m512 256c0 141.386719-114.613281 256-256 256s-256-114.613281-256-256 114.613281-256 256-256 256 114.613281 256 256zm0 0" fill="url(#a)"/><path d="m256 447.574219c-4.539062 0-8.839844-2.058594-11.6875-5.59375-16.476562-20.476563-42.609375-39.96875-70.277344-60.601563-55.324218-41.265625-118.035156-88.039062-118.035156-158.40625 0-33.113281 10.863281-61.621094 31.421875-82.4375 19.589844-19.835937 46.605469-30.761718 76.078125-30.761718 51.523438 0 78.15625 26.496093 91.425781 48.722656.367188.613281.722657 1.226562 1.074219 1.839844.351562-.613282.707031-1.226563 1.074219-1.839844 13.269531-22.226563 39.898437-48.722656 91.425781-48.722656 29.472656 0 56.488281 10.925781 76.078125 30.761718 20.558594 20.816406 31.421875 49.324219 31.421875 82.4375 0 58.628906-42.695312 100.140625-88.835938 136.265625-6.519531 5.105469-15.949218 3.960938-21.054687-2.5625-5.109375-6.523437-3.960937-15.949219 2.5625-21.058593 40.164063-31.445313 77.328125-66.855469 77.328125-112.644532 0-48.988281-31.867188-83.199218-77.5-83.199218-30.066406 0-52.160156 11.472656-65.664062 34.097656-10.269532 17.203125-11.867188 34.703125-11.878907 34.875-.605469 7.816406-7.117187 13.847656-14.957031 13.847656s-14.355469-6.03125-14.957031-13.847656c-.007813-.117188-1.671875-18.265625-12.394531-35.726563-13.546876-22.0625-35.46875-33.25-65.148438-33.25-45.632812 0-77.5 34.214844-77.5 83.203125 0 55.316406 53.871094 95.5 105.972656 134.355469 23.667969 17.652344 46.273438 34.515625 64.035156 52.734375 8.101563-8.296875 17.910157-17.027344 29.957032-26.703125 6.460937-5.1875 15.902344-4.15625 21.089844 2.300781 5.1875 6.457032 4.15625 15.898438-2.304688 21.085938-16.804688 13.5-28.585938 24.695312-37.0625 35.234375-2.847656 3.535156-7.148438 5.59375-11.6875 5.59375zm0 0" fill="#fff"/></svg>