<svg viewBox="0 0 512 512" xmlns="http://www.w3.org/2000/svg" xmlns:xlink="http://www.w3.org/1999/xlink">
	<linearGradient id="a" gradientUnits="userSpaceOnUse" x1="9.5%" x2="100%" y1="13%" y2="68%">
		<stop offset="0" stop-color="#21ffff"/>
		<stop offset="0.8" stop-color="#1190cb"/>
	</linearGradient>
	<path d="m512 256c0 141.386719-114.613281 256-256 256s-256-114.613281-256-256 114.613281-256 256-256 256 114.613281 256 256zm0 0" fill="url(#a)"/><path d="m353.246094 441h-194.492188c-24.160156 0-43.8125-19.65625-43.8125-43.8125v-22.332031c0-37.386719 42.121094-72.796875 72.878906-98.648438 4.15625-3.496093 8.082032-6.796875 11.511719-9.777343 3.132813-2.726563 4.929688-6.527344 4.929688-10.429688 0-3.898438-1.796875-7.699219-4.929688-10.425781-3.429687-2.984375-7.355469-6.285157-11.511719-9.777344-30.757812-25.855469-72.878906-61.265625-72.878906-98.652344v-22.332031c0-24.15625 19.65625-43.8125 43.8125-43.8125h194.492188c24.15625 0 43.8125 19.65625 43.8125 43.8125v22.332031c0 37.386719-42.125 72.796875-72.878906 98.652344-4.15625 3.492187-8.082032 6.792969-11.511719 9.777344-3.136719 2.726562-4.933594 6.527343-4.933594 10.425781 0 3.902344 1.796875 7.703125 4.933594 10.425781 3.558593 3.097657 7.65625 6.527344 11.996093 10.160157 14.070313 11.777343 31.578126 26.433593 45.570313 42.21875 5.492187 6.199218 4.921875 15.679687-1.277344 21.175781-6.199219 5.496093-15.679687 4.921875-21.175781-1.277344-12.507812-14.113281-28.375-27.394531-42.375-39.109375-4.449219-3.730469-8.65625-7.246094-12.429688-10.53125-9.6875-8.425781-15.242187-20.476562-15.242187-33.0625s5.554687-24.636719 15.242187-33.058594c3.621094-3.152344 7.640626-6.53125 11.898438-10.109375 23.257812-19.550781 62.183594-52.273437 62.183594-75.6875v-22.332031c0-7.617188-6.199219-13.8125-13.8125-13.8125h-194.492188c-7.617187 0-13.8125 6.195312-13.8125 13.8125v22.332031c0 23.414063 38.925782 56.136719 62.183594 75.6875 4.253906 3.578125 8.277344 6.957031 11.898438 10.109375 9.683593 8.421875 15.238281 20.472656 15.238281 33.058594s-5.554688 24.632812-15.238281 33.0625c-3.625 3.148438-7.644532 6.53125-11.902344 10.109375-23.253906 19.550781-62.179688 52.269531-62.179688 75.683594v22.332031c0 7.617188 6.195313 13.8125 13.8125 13.8125h194.488282c7.617187 0 13.816406-6.195312 13.816406-13.8125 0-8.285156 6.714844-15 15-15 8.28125 0 15 6.714844 15 15 0 24.15625-19.65625 43.8125-43.8125 43.8125zm0 0" fill="#fff"/></svg>