<svg viewBox="0 0 512 512" xmlns="http://www.w3.org/2000/svg" xmlns:xlink="http://www.w3.org/1999/xlink"><linearGradient id="a" gradientUnits="userSpaceOnUse" x1="9.5%" x2="100%" y1="13%" y2="68%"><stop offset="0" stop-color="#21ffff"/><stop offset="0.8" stop-color="#1190cb"/></linearGradient><path d="m512 256c0 141.386719-114.613281 256-256 256s-256-114.613281-256-256 114.613281-256 256-256 256 114.613281 256 256zm0 0" fill="url(#a)"/><path d="m364.5 99.910156c-28.554688-28.34375-66.335938-43.910156-106.507812-43.910156-.34375 0-.695313 0-1.039063.003906-40.820313-.269531-79.359375 15.472656-108.449219 44.347656-28.746094 28.539063-44.578125 66.351563-44.578125 106.472657 0 60.339843 34.6875 92.894531 60.011719 116.664062 17.710938 16.621094 28.566406 27.441407 28.566406 39.90625v46.25c0 25.558594 20.796875 46.355469 46.355469 46.355469h35.277344c25.558593 0 46.355469-20.796875 46.355469-46.355469v-47.820312c0-.589844-.042969-1.171875-.109376-1.75 1.496094-9.496094 9.375-18.648438 22.78125-31.402344 6.003907-5.707031 6.242188-15.203125.535157-21.207031-5.710938-6.003906-15.203125-6.242188-21.207031-.53125-13.007813 12.371094-24.996094 24.921875-29.964844 40.675781h-21.421875v-134l16.355469-16.355469 20.75 20.75c2.929687 2.929688 6.769531 4.394532 10.605468 4.394532 3.839844 0 7.679688-1.464844 10.605469-4.394532 5.859375-5.859375 5.859375-15.355468 0-21.214844l-31.355469-31.355468c-5.855468-5.855469-15.355468-5.855469-21.210937 0l-20.75 20.75-20.75-20.75c-5.859375-5.855469-15.355469-5.855469-21.214844 0l-31.355469 31.355468c-5.859375 5.859376-5.859375 15.355469 0 21.214844 5.855469 5.859375 15.355469 5.859375 21.210938 0l20.75-20.75 16.359375 16.355469v134h-21.015625c-5.621094-17.839844-20.285156-31.605469-35.621094-46-24.847656-23.316406-50.542969-47.429687-50.542969-94.785156 0-32.066407 12.683594-62.320313 35.714844-85.179688 23.398437-23.226562 54.351563-35.886719 87.203125-35.640625h.21875c32.519531-.277344 63.191406 12.257813 86.300781 35.199219 22.261719 22.09375 34.851563 51.242187 35.667969 82.386719-.226562 1.039062-.347656 2.121094-.347656 3.234375 0 18.246093-3.667969 34.101562-11.214844 48.476562-3.851562 7.332031-1.027344 16.398438 6.304688 20.25 7.335937 3.851563 16.402343 1.027344 20.253906-6.308593 9.351562-17.804688 14.144531-37.085938 14.617187-58.835938.28125-1.148438.429688-2.347656.429688-3.582031 0-40.410157-15.832031-78.378907-44.574219-106.914063zm-90.363281 326.089844h-35.273438c-9.019531 0-16.355469-7.335938-16.355469-16.355469v-32.035156h67.984376v32.035156c0 9.019531-7.335938 16.355469-16.355469 16.355469zm0 0" fill="#fff"/></svg>