<svg viewBox="0 0 512 512" xmlns="http://www.w3.org/2000/svg" xmlns:xlink="http://www.w3.org/1999/xlink"><linearGradient id="a" gradientUnits="userSpaceOnUse" x1="9.5%" x2="100%" y1="13%" y2="68%"><stop offset="0" stop-color="#21ffff"/><stop offset="0.8" stop-color="#1190cb"/></linearGradient><path d="m512 256c0 141.386719-114.613281 256-256 256s-256-114.613281-256-256 114.613281-256 256-256 256 114.613281 256 256zm0 0" fill="url(#a)"/><g fill="#fff"><path d="m256.109375 456c-31.613281 0-57.332031-25.71875-57.332031-57.332031v-137.179688c0-31.613281 25.71875-57.332031 57.332031-57.332031s57.328125 25.71875 57.328125 57.332031v58.789063c0 8.285156-6.714844 15-15 15-8.28125 0-15-6.714844-15-15v-58.789063c0-15.070312-12.257812-27.332031-27.328125-27.332031-15.074219 0-27.332031 12.257812-27.332031 27.332031v137.179688c0 15.070312 12.257812 27.332031 27.332031 27.332031 15.070313 0 27.328125-12.261719 27.328125-27.332031 0-8.28125 6.71875-15 15-15 8.285156 0 15 6.71875 15 15 0 31.613281-25.71875 57.332031-57.328125 57.332031zm0 0"/><path d="m256.890625 170.660156c-31.609375 0-57.328125-25.71875-57.328125-57.332031 0-31.609375 25.71875-57.328125 57.328125-57.328125 31.613281 0 57.332031 25.71875 57.332031 57.332031s-25.71875 57.328125-57.332031 57.328125zm0-84.660156c-15.070313 0-27.328125 12.261719-27.328125 27.332031 0 15.070313 12.257812 27.328125 27.328125 27.328125 15.074219 0 27.332031-12.257812 27.332031-27.328125 0-15.070312-12.261718-27.332031-27.332031-27.332031zm0 0"/></g></svg>