<svg viewBox="0 0 512 512" xmlns="http://www.w3.org/2000/svg" xmlns:xlink="http://www.w3.org/1999/xlink"><linearGradient id="a" gradientUnits="userSpaceOnUse" x1="9.5%" x2="100%" y1="13%" y2="68%"><stop offset="0" stop-color="#21ffff"/><stop offset="0.8" stop-color="#1190cb"/></linearGradient><path d="m512 256c0 141.386719-114.613281 256-256 256s-256-114.613281-256-256 114.613281-256 256-256 256 114.613281 256 256zm0 0" fill="url(#a)"/><g fill="#fff"><path d="m256 56c-110.277344 0-200 89.71875-200 200s89.722656 200 200 200c36.574219 0 72.359375-9.96875 103.488281-28.824219 7.082031-4.289062 9.34375-13.515625 5.050781-20.601562-4.28125-7.082031-13.503906-9.347657-20.601562-5.058594-26.433594 16.019531-56.84375 24.484375-87.9375 24.484375-93.738281 0-170-76.261719-170-170s76.261719-170 170-170 170 76.261719 170 170c0 33.519531-9.964844 66.148438-28.824219 94.351562-4.605469 6.886719-2.757812 16.203126 4.132813 20.808594 6.890625 4.605469 16.203125 2.75 20.804687-4.132812 22.167969-33.15625 33.886719-71.550782 33.886719-111.027344 0-110.28125-89.722656-200-200-200zm0 0"/><path d="m364.285156 212.886719c0-8.285157-6.714844-15-15-15h-47.035156c-8.28125 0-15 6.714843-15 15 0 8.285156 6.71875 15 15 15h47.035156c8.285156 0 15-6.714844 15-15zm0 0"/><path d="m187.015625 204.367188c4.699219 0 8.515625 3.820312 8.515625 8.519531 0 8.285156 6.71875 15 15 15 8.285156 0 15-6.714844 15-15 0-21.238281-17.277344-38.519531-38.515625-38.519531-21.242187 0-38.519531 17.28125-38.519531 38.519531 0 8.285156 6.71875 15 15 15 8.285156 0 15-6.714844 15-15 .003906-4.699219 3.820312-8.519531 8.519531-8.519531zm0 0"/><path d="m256 397.992188c25.5625 0 46.355469-20.796876 46.355469-46.355469v-27.351563c19.863281-9.242187 30.847656-21.53125 31.570312-22.355468 5.453125-6.238282 4.816407-15.710938-1.421875-21.164063-6.242187-5.453125-15.710937-4.8125-21.164062 1.417969-.195313.222656-20.480469 22.308594-55.339844 22.308594-34.714844 0-54.421875-21.296876-55.398438-22.375-5.453124-6.171876-14.886718-6.789063-21.105468-1.351563-6.238282 5.453125-6.875 14.925781-1.421875 21.164063.722656.824218 11.707031 13.113281 31.570312 22.355468v27.351563c0 25.558593 20.792969 46.355469 46.355469 46.355469zm16.355469-64.726563v18.371094c0 9.019531-7.335938 16.355469-16.355469 16.355469s-16.355469-7.335938-16.355469-16.355469v-18.371094c5.164063.765625 10.597657 1.230469 16.355469 1.230469s11.191406-.464844 16.355469-1.230469zm0 0"/></g></svg>