<svg viewBox="0 0 512 512" xmlns="http://www.w3.org/2000/svg" xmlns:xlink="http://www.w3.org/1999/xlink"><linearGradient id="a" gradientUnits="userSpaceOnUse" x1="9.5%" x2="100%" y1="13%" y2="68%"><stop offset="0" stop-color="#21ffff"/><stop offset="0.8" stop-color="#1190cb"/></linearGradient><path d="m512 256c0 141.386719-114.613281 256-256 256s-256-114.613281-256-256 114.613281-256 256-256 256 114.613281 256 256zm0 0" fill="url(#a)"/><g fill="#fff"><path d="m376.191406 198.628906h-107.265625c-26.085937 0-47.3125-21.226562-47.3125-47.3125v-15.507812c0-26.085938 21.222657-47.308594 47.3125-47.308594h107.265625c26.085938 0 47.308594 21.222656 47.308594 47.308594v15.507812c0 26.085938-21.222656 47.3125-47.308594 47.3125zm-107.265625-80.128906c-9.546875 0-17.3125 7.765625-17.3125 17.308594v15.507812c0 9.546875 7.765625 17.3125 17.3125 17.3125h107.265625c9.542969 0 17.308594-7.765625 17.308594-17.3125v-15.507812c0-9.542969-7.765625-17.308594-17.308594-17.308594zm0 0"/><path d="m376.191406 423.5h-107.265625c-26.085937 0-47.3125-21.222656-47.3125-47.308594v-106.621094c0-26.085937 21.222657-47.308593 47.3125-47.308593h107.265625c26.085938 0 47.308594 21.222656 47.308594 47.308593v42c0 8.285157-6.714844 15-15 15s-15-6.714843-15-15v-42c0-9.542968-7.765625-17.308593-17.308594-17.308593h-107.265625c-9.546875 0-17.3125 7.765625-17.3125 17.308593v106.621094c0 9.542969 7.765625 17.308594 17.3125 17.308594h107.265625c9.542969 0 17.308594-7.765625 17.308594-17.308594 0-8.285156 6.714844-15 15-15s15 6.714844 15 15c0 26.085938-21.222656 47.308594-47.308594 47.308594zm0 0"/><path d="m151.316406 423.5h-15.507812c-26.085938 0-47.308594-21.222656-47.308594-47.308594v-240.382812c0-26.085938 21.222656-47.308594 47.308594-47.308594h15.507812c26.085938 0 47.3125 21.222656 47.3125 47.308594v240.382812c0 26.085938-21.226562 47.308594-47.3125 47.308594zm-15.507812-305c-9.542969 0-17.308594 7.765625-17.308594 17.308594v240.382812c0 9.542969 7.765625 17.308594 17.308594 17.308594h15.507812c9.546875 0 17.3125-7.765625 17.3125-17.308594v-240.382812c0-9.542969-7.765625-17.308594-17.3125-17.308594zm0 0"/></g></svg>