<svg viewBox="0 0 512 512" xmlns="http://www.w3.org/2000/svg" xmlns:xlink="http://www.w3.org/1999/xlink"><linearGradient id="a" gradientUnits="userSpaceOnUse" x1="9.5%" x2="100%" y1="13%" y2="68%"><stop offset="0" stop-color="#21ffff"/><stop offset="0.8" stop-color="#1190cb"/></linearGradient><path d="m512 256c0 141.386719-114.613281 256-256 256s-256-114.613281-256-256 114.613281-256 256-256 256 114.613281 256 256zm0 0" fill="url(#a)"/><path d="m423.421875 104.613281c.015625-.207031.027344-.414062.03125-.621093.261719-8.25-6.1875-15.160157-14.4375-15.464844-1.574219-.058594-39.140625-1.320313-87.476563 7.863281-64.769531 12.304687-118.003906 37.808594-153.953124 73.757813-32.105469 32.105468-48.269532 66.667968-48.039063 102.722656.207031 32.25 13.402344 57.222656 21.289063 72.144531.546874 1.03125 1.136718 2.148437 1.691406 3.222656l-49.597656 49.597657c-5.855469 5.859374-5.855469 15.355468 0 21.214843 2.929687 2.929688 6.769531 4.394531 10.605468 4.394531 3.839844 0 7.679688-1.464843 10.609375-4.394531l208.664063-208.667969c5.859375-5.859374 5.859375-15.355468 0-21.214843-5.855469-5.855469-15.355469-5.855469-21.210938 0l-136.847656 136.851562c-6.777344-13.125-15.0625-31.359375-15.203125-53.339843-.179687-28.125 12.660156-54.726563 39.253906-81.316407 62.277344-62.277343 166.28125-71.503906 204.476563-72.730469-1.21875 38.144532-10.417969 142.230469-72.730469 204.546876-26.410156 26.410156-52.828125 39.253906-80.742187 39.253906-.191407 0-.386719 0-.578126 0-7.628906-.046875-15.492187-1.117188-23.363281-3.171875-8.015625-2.097657-16.210937 2.707031-18.304687 10.722656s2.707031 16.210937 10.722656 18.304687c10.285156 2.683594 20.632812 4.078126 30.753906 4.144532h.753906c35.785157 0 70.089844-16.160156 101.96875-48.039063 35.949219-35.949219 61.453126-89.183593 73.761719-153.953125 8.214844-43.273437 8.066407-77.914062 7.902344-85.828125zm0 0" fill="#fff"/></svg>