<svg viewBox="0 0 512 512" xmlns="http://www.w3.org/2000/svg" xmlns:xlink="http://www.w3.org/1999/xlink"><linearGradient id="a" gradientUnits="userSpaceOnUse" x1="9.5%" x2="100%" y1="13%" y2="68%"><stop offset="0" stop-color="#21ffff"/><stop offset="0.8" stop-color="#1190cb"/></linearGradient><path d="m512 256c0 141.386719-114.613281 256-256 256s-256-114.613281-256-256 114.613281-256 256-256 256 114.613281 256 256zm0 0" fill="url(#a)"/><path d="m335.378906 441c-3.847656 0-7.691406-1.46875-10.621094-4.402344l-149.3125-149.628906c-17.074218-17.070312-17.074218-44.867188.007813-61.949219l149.304687-149.617187c5.851563-5.863282 15.351563-5.871094 21.214844-.019532 5.863282 5.851563 5.875 15.347657.019532 21.210938l-149.3125 149.628906c-5.398438 5.394532-5.398438 14.160156-.011719 19.546875l149.328125 149.636719c5.851562 5.863281 5.839844 15.359375-.023438 21.210938-2.925781 2.921874-6.761718 4.382812-10.59375 4.382812zm0 0" fill="#fff"/></svg>