<svg viewBox="0 0 512 512" xmlns="http://www.w3.org/2000/svg" xmlns:xlink="http://www.w3.org/1999/xlink"><linearGradient id="a" gradientUnits="userSpaceOnUse" x1="9.5%" x2="100%" y1="13%" y2="68%"><stop offset="0" stop-color="#21ffff"/><stop offset="0.8" stop-color="#1190cb"/></linearGradient><path d="m512 256c0 141.386719-114.613281 256-256 256s-256-114.613281-256-256 114.613281-256 256-256 256 114.613281 256 256zm0 0" fill="url(#a)"/><g fill="#fff"><path d="m217.589844 430.914062c-3.847656 0-7.691406-1.46875-10.621094-4.40625l-137.40625-137.742187c-8.742188-8.742187-13.5625-20.382813-13.5625-32.765625s4.820312-24.023438 13.578125-32.777344l137.390625-137.730468c5.851562-5.867188 15.347656-5.878907 21.214844-.027344 5.863281 5.851562 5.875 15.347656.027344 21.214844l-137.40625 137.742187c-3.105469 3.101563-4.804688 7.210937-4.804688 11.578125s1.699219 8.476562 4.789062 11.566406l137.421876 137.753906c5.847656 5.867188 5.835937 15.363282-.027344 21.214844-2.929688 2.917969-6.761719 4.378906-10.59375 4.378906zm0 0"/><path d="m441 271h-284.554688c-8.285156 0-15-6.714844-15-15s6.714844-15 15-15h284.554688c8.285156 0 15 6.714844 15 15s-6.714844 15-15 15zm0 0"/></g></svg>