<svg viewBox="0 0 512 512" xmlns="http://www.w3.org/2000/svg" xmlns:xlink="http://www.w3.org/1999/xlink"><linearGradient id="a" gradientUnits="userSpaceOnUse" x1="9.5%" x2="100%" y1="13%" y2="68%"><stop offset="0" stop-color="#21ffff"/><stop offset="0.8" stop-color="#1190cb"/></linearGradient><path d="m512 256c0 141.386719-114.613281 256-256 256s-256-114.613281-256-256 114.613281-256 256-256 256 114.613281 256 256zm0 0" fill="url(#a)"/><path d="m298.59375 440.980469c-11.222656 0-22.441406-4.273438-30.984375-12.816407l-141.183594-141.183593c-17.085937-17.082031-17.085937-44.878907 0-61.960938l141.183594-141.1875c17.085937-17.082031 44.878906-17.082031 61.960937 0 8.277344 8.277344 12.835938 19.277344 12.835938 30.980469v210.339844c0 8.285156-6.71875 15-15 15-8.285156 0-15-6.714844-15-15v-210.339844c0-3.691406-1.4375-7.160156-4.046875-9.765625-5.386719-5.386719-14.148437-5.386719-19.535156 0l-141.1875 141.183594c-5.386719 5.386719-5.386719 14.152343 0 19.535156l141.1875 141.1875c5.386719 5.386719 14.148437 5.386719 19.535156 0 2.609375-2.609375 4.046875-6.078125 4.046875-9.765625 0-8.285156 6.714844-15 15-15 8.28125 0 15 6.714844 15 15 0 11.703125-4.558594 22.703125-12.835938 30.976562-8.539062 8.542969-19.757812 12.816407-30.976562 12.816407zm0 0" fill="#fff"/></svg>