<svg viewBox="0 0 512 512" xmlns="http://www.w3.org/2000/svg" xmlns:xlink="http://www.w3.org/1999/xlink"><linearGradient id="a" gradientUnits="userSpaceOnUse" x1="9.5%" x2="100%" y1="13%" y2="68%"><stop offset="0" stop-color="#21ffff"/><stop offset="0.8" stop-color="#1190cb"/></linearGradient><path d="m512 256c0 141.386719-114.613281 256-256 256s-256-114.613281-256-256 114.613281-256 256-256 256 114.613281 256 256zm0 0" fill="url(#a)"/><path d="m390.109375 190.929688h-21.292969c-4.492187 0-8.824218.6875-12.902344 1.960937l-69.746093-108.605469-9.207031-12.933594-.816407-.835937c-8.230469-8.394531-19.234375-13.015625-30.984375-13.015625-23.925781 0-43.390625 19.464844-43.390625 43.390625 0 4.820313.789063 9.5625 2.34375 14.097656l.308594.894531.417969.847657c2.230468 4.542969 4.617187 9.292969 7.140625 14.320312 6.289062 12.515625 16.648437 33.140625 18.335937 39.542969-1.078125 6.910156-10.503906 11.113281-17.234375 11.113281h-93.382812c-22.753907 0-41.261719 18.507813-41.261719 41.261719 0 7.25 1.917969 14.261719 5.425781 20.398438-9.488281 7.644531-15.359375 19.316406-15.359375 32.121093 0 13.121094 6.261719 25.089844 15.851563 32.691407-3.324219 5.996093-5.160157 12.800781-5.160157 19.828124 0 15.421876 8.566407 28.894532 21.226563 35.976563-2.289063 5.035156-3.527344 10.515625-3.527344 16.140625 0 24.554688 17.414063 42.375 41.410157 42.375h138.960937c8.28125 0 15-6.714844 15-15 0-8.28125-6.71875-15-15-15h-138.964844c-9.929687 0-11.410156-7.753906-11.410156-12.375 0-5.414062 4.628906-8.390625 6.046875-9.171875 8.324219-4.59375 9.566406-11.230469 9.566406-14.78125 0-9.476563-8.148437-16.902344-18.550781-16.902344h-3.199219c-6.375 0-11.5625-5.050781-11.5625-11.261719 0-3.945312 2.207032-7.667968 5.753906-9.710937.234376-.136719.453126-.25.648438-.355469 8.164062-4.410156 9.875-10.6875 9.875-15.179687 0-5.640625-3.734375-15.382813-17.738281-16.144531-5.003907-.269532-9.230469-5.367188-9.230469-11.128907 0-5.082031 3.59375-9.675781 8.542969-10.925781 8.898437-2.246094 14.878906-9.265625 14.878906-17.464844 0-4.066406-1.488281-9.945312-8.578125-14.863281-3.074219-2.132813-4.90625-5.597656-4.90625-9.265625 0-6.210938 5.050781-11.261719 11.257812-11.261719h93.386719c21.996094 0 46.339844-15.65625 47.308594-40.949219l.007813-.574218c0-8.707032-6.253907-22.027344-21.609376-52.597656-2.304687-4.59375-4.492187-8.949219-6.527343-13.078126-.328125-1.167968-.492188-2.378906-.492188-3.617187 0-7.382813 6.007813-13.390625 13.390625-13.390625 3.308594 0 6.421875 1.1875 8.867188 3.359375l7.101562 9.945313 70.949219 110.480468c-4.203125 6.679688-6.648437 14.578125-6.648437 23.035156v144.789063c0 23.925781 19.464843 43.390625 43.390624 43.390625h21.292969c23.925781 0 43.390625-19.464844 43.390625-43.390625v-144.789063c-.003906-23.925781-19.46875-43.390624-43.394531-43.390624zm13.390625 188.179687c0 7.382813-6.007812 13.390625-13.390625 13.390625h-21.292969c-7.382812 0-13.390625-6.007812-13.390625-13.390625v-144.789063c0-7.382812 6.007813-13.390624 13.390625-13.390624h21.292969c7.382813 0 13.390625 6.007812 13.390625 13.390624zm0 0" fill="#fff"/></svg>