<svg viewBox="0 0 512 512" xmlns="http://www.w3.org/2000/svg" xmlns:xlink="http://www.w3.org/1999/xlink"><linearGradient id="a" gradientUnits="userSpaceOnUse" x1="9.5%" x2="100%" y1="13%" y2="68%"><stop offset="0" stop-color="#21ffff"/><stop offset="0.8" stop-color="#1190cb"/></linearGradient><path d="m512 256c0 141.386719-114.613281 256-256 256s-256-114.613281-256-256 114.613281-256 256-256 256 114.613281 256 256zm0 0" fill="url(#a)"/><g fill="#fff"><path d="m451.660156 278.371094c-5.832031-5.890625-15.328125-5.933594-21.214844-.105469l-37.15625 36.789063v-59.054688c0-92.992188-75.652343-168.644531-168.644531-168.644531-27.613281 0-54.855469 6.796875-79.085937 19.671875-.074219.039062-.152344.070312-.230469.109375-1.1875.632812-2.375 1.289062-3.550781 1.957031-.074219.042969-.152344.082031-.226563.121094-.011719.007812-.019531.015625-.03125.023437-3.726562 2.113281-7.382812 4.375-10.921875 6.757813-6.875 4.625-8.695312 13.945312-4.070312 20.820312 2.894531 4.304688 7.632812 6.625 12.457031 6.625 2.878906 0 5.792969-.828125 8.359375-2.554687 2.957031-1.992188 6.015625-3.878907 9.128906-5.640625 20.679688-11.703125 44.25-17.890625 68.171875-17.890625 76.449219 0 138.644531 62.195312 138.644531 138.644531v59.410156l-37.234374-36.347656c-5.929688-5.789062-15.425782-5.675781-21.210938.253906-5.789062 5.925782-5.671875 15.425782.253906 21.210938l40.542969 39.578125c8.976563 8.765625 20.734375 13.144531 32.488281 13.144531 11.863282 0 23.730469-4.460938 32.730469-13.371094l40.695313-40.292968c5.886718-5.832032 5.933593-15.328126.105468-21.214844zm0 0"/><path d="m99.691406 316.160156c-3.597656-7.460937-12.5625-10.59375-20.027344-6.992187-7.460937 3.601562-10.589843 12.566406-6.992187 20.027343 2.480469 5.140626 5.257813 10.214844 8.257813 15.085938 2.832031 4.605469 7.75 7.140625 12.789062 7.140625 2.679688 0 5.394531-.71875 7.847656-2.226563 7.054688-4.34375 9.253906-13.582031 4.910156-20.636718-2.464843-4.003906-4.746093-8.175782-6.785156-12.398438zm0 0"/><path d="m86.113281 261.667969c-.078125-1.875-.113281-3.78125-.113281-5.667969 0-2.832031.085938-5.6875.253906-8.492188.5-8.269531-5.800781-15.375-14.066406-15.875-8.28125-.496093-15.378906 5.800782-15.878906 14.066407-.203125 3.40625-.308594 6.871093-.308594 10.292969 0 2.289062.046875 4.605468.136719 6.886718.328125 8.070313 6.972656 14.394532 14.976562 14.394532.207031 0 .410157-.003907.617188-.011719 8.277343-.335938 14.714843-7.316407 14.382812-15.59375zm0 0"/><path d="m103.507812 160.304688c-6.960937-4.484376-16.25-2.480469-20.734374 4.484374-3.097657 4.808594-5.980469 9.828126-8.570313 14.925782-3.75 7.382812-.804687 16.414062 6.582031 20.164062 2.179688 1.105469 4.496094 1.628906 6.78125 1.628906 5.46875 0 10.738282-3 13.386719-8.207031 2.125-4.1875 4.492187-8.3125 7.039063-12.261719 4.488281-6.964843 2.476562-16.246093-4.484376-20.734374zm0 0"/><path d="m156.964844 377.035156c-4.09375-2.296875-8.121094-4.832031-11.96875-7.535156-6.773438-4.765625-16.132813-3.136719-20.898438 3.644531-4.761718 6.773438-3.132812 16.132813 3.644532 20.894531 4.679687 3.289063 9.574218 6.371094 14.554687 9.164063 2.316406 1.300781 4.835937 1.917969 7.320313 1.917969 5.25 0 10.347656-2.761719 13.097656-7.667969 4.050781-7.226563 1.476562-16.367187-5.75-20.417969zm0 0"/><path d="m224.644531 394.644531c-4.714843 0-9.46875-.238281-14.136719-.710937-8.25-.828125-15.601562 5.175781-16.429687 13.417968-.835937 8.242188 5.171875 15.597657 13.414063 16.429688 5.664062.574219 11.4375.863281 17.152343.863281 8.285157 0 15-6.714843 15-15 0-8.285156-6.714843-15-15-15zm0 0"/></g></svg>