<svg viewBox="0 0 512 512" xmlns="http://www.w3.org/2000/svg" xmlns:xlink="http://www.w3.org/1999/xlink"><linearGradient id="a" gradientUnits="userSpaceOnUse" x1="9.5%" x2="100%" y1="13%" y2="68%"><stop offset="0" stop-color="#21ffff"/><stop offset="0.8" stop-color="#1190cb"/></linearGradient><path d="m512 256c0 141.386719-114.613281 256-256 256s-256-114.613281-256-256 114.613281-256 256-256 256 114.613281 256 256zm0 0" fill="url(#a)"/><g fill="#fff"><path d="m369.730469 423.5h-227.460938c-29.648437 0-53.769531-24.121094-53.769531-53.769531v-25.847657c0-8.285156 6.714844-15 15-15s15 6.714844 15 15v25.847657c0 13.105469 10.664062 23.769531 23.769531 23.769531h227.460938c13.105469 0 23.769531-10.664062 23.769531-23.769531v-227.460938c0-13.105469-10.664062-23.769531-23.769531-23.769531h-227.460938c-13.105469 0-23.769531 10.664062-23.769531 23.769531v25.847657c0 8.285156-6.714844 15-15 15s-15-6.714844-15-15v-25.847657c0-29.648437 24.121094-53.769531 53.769531-53.769531h227.460938c29.648437 0 53.769531 24.121094 53.769531 53.769531v227.460938c0 29.648437-24.121094 53.769531-53.769531 53.769531zm0 0"/><path d="m250.183594 338.203125c-3.808594 0-7.617188-1.4375-10.539063-4.328125-5.894531-5.820312-5.953125-15.316406-.132812-21.210938l48.328125-48.925781c4.292968-4.296875 4.292968-11.179687.0625-15.410156l-48.320313-48.273437c-5.859375-5.855469-5.863281-15.351563-.007812-21.210938 5.851562-5.863281 15.351562-5.867188 21.210937-.011719l48.324219 48.28125c15.933594 15.929688 15.933594 41.84375.007813 57.769531l-48.261719 48.859376c-2.933594 2.972656-6.800781 4.460937-10.671875 4.460937zm0 0"/><path d="m241.136719 271h-137.636719c-8.285156 0-15-6.714844-15-15s6.714844-15 15-15h137.636719c8.285156 0 15 6.714844 15 15s-6.714844 15-15 15zm0 0"/></g></svg>