<svg viewBox="0 0 512 512" xmlns="http://www.w3.org/2000/svg" xmlns:xlink="http://www.w3.org/1999/xlink"><linearGradient id="a" gradientUnits="userSpaceOnUse" x1="9.5%" x2="100%" y1="13%" y2="68%"><stop offset="0" stop-color="#21ffff"/><stop offset="0.8" stop-color="#1190cb"/></linearGradient><path d="m512 256c0 141.386719-114.613281 256-256 256s-256-114.613281-256-256 114.613281-256 256-256 256 114.613281 256 256zm0 0" fill="url(#a)"/><g fill="#fff"><path d="m252.910156 395.945312c8.285156 0 15-6.714843 15-15v-72.390624c0-8.285157-6.714844-15-15-15h-24.839844c-8.285156 0-15 6.714843-15 15 0 8.28125 6.714844 15 15 15h9.839844v57.390624c0 8.285157 6.714844 15 15 15zm0 0"/><path d="m414.96875 122.144531c2.296875-4.652343 2.027344-10.15625-.710938-14.558593-2.734374-4.40625-7.554687-7.085938-12.738281-7.085938h-91.828125c-5.710937 0-10.921875 3.242188-13.449218 8.359375l-56.472657 114.351563c-20.570312 2.097656-39.636719 9.359374-55.886719 20.453124l-55.882812-113.164062h58.371094l22.570312 45.707031c3.667969 7.429688 12.660156 10.480469 20.089844 6.808594 7.429688-3.667969 10.476562-12.664063 6.808594-20.089844l-26.699219-54.066406c-2.527344-5.117187-7.738281-8.355469-13.449219-8.355469h-91.828125c-5.183593 0-10 2.675782-12.738281 7.082032-2.738281 4.402343-3.003906 9.910156-.710938 14.558593l70.101563 141.949219c.039063.078125.082031.152344.121094.230469-18.609375 21.347656-29.894531 49.238281-29.894531 79.714843 0 66.976563 54.484374 121.464844 121.460937 121.464844 22.339844 0 44.1875-6.121094 63.171875-17.703125 7.070312-4.316406 9.308594-13.542969 4.992188-20.617187-4.3125-7.074219-13.542969-9.308594-20.617188-4.996094-14.277344 8.710938-30.71875 13.3125-47.546875 13.3125-50.433594 0-91.460937-41.027344-91.460937-91.460938 0-50.429687 41.027343-91.460937 91.460937-91.460937s91.460937 41.03125 91.460937 91.460937c0 12.039063-2.296874 23.730469-6.828124 34.75-3.148438 7.664063.507812 16.429688 8.167968 19.578126 7.667969 3.152343 16.429688-.507813 19.578125-8.167969 6.027344-14.660157 9.082031-30.1875 9.082031-46.160157 0-30.144531-11.042968-57.761718-29.292968-79.015624.175781-.300782.34375-.613282.5-.929688zm-95.957031 8.355469h58.371093l-56.132812 113.671875c-14.277344-9.902344-30.765625-16.820313-48.566406-19.859375zm0 0"/></g></svg>