<svg viewBox="0 0 512 512" xmlns="http://www.w3.org/2000/svg" xmlns:xlink="http://www.w3.org/1999/xlink"><linearGradient id="a" gradientUnits="userSpaceOnUse" x1="9.5%" x2="100%" y1="13%" y2="68%"><stop offset="0" stop-color="#21ffff"/><stop offset="0.8" stop-color="#1190cb"/></linearGradient><path d="m512 256c0 141.386719-114.613281 256-256 256s-256-114.613281-256-256 114.613281-256 256-256 256 114.613281 256 256zm0 0" fill="url(#a)"/><path d="m409 275.117188c8.285156 0 15-6.714844 15-15v-138.636719c0-13.792969-6.734375-26.769531-18.011719-34.714844-11.277343-7.941406-25.761719-9.910156-38.75-5.261719-.425781.152344-.839843.320313-1.25.511719l-109.984375 50.925781c-24.046875 11.136719-49.675781 16.859375-76.175781 17.011719l-53.640625.316406c-30.984375 0-56.1875 25.203125-56.1875 56.183594v35.695313c0 24.589843 16.042969 45.804687 38.441406 53.296874v94.554688c0 11.511719 4.730469 22.757812 12.980469 30.851562 8.003906 7.855469 18.445313 12.148438 29.484375 12.148438.269531 0 .542969-.003906.8125-.007812 22.957031-.4375 41.636719-19.480469 41.636719-42.449219v-92.148438c22.546875 1.867188 44.808593 7.914063 65.140625 17.761719l107.128906 51.890625c.460938.222656.933594.421875 1.414062.597656 13.003907 4.726563 27.53125 2.808594 38.863282-5.128906 11.332031-7.941406 18.097656-20.941406 18.097656-34.777344 0-8.285156-6.714844-15-15-15s-15 6.714844-15 15c0 4.121094-1.933594 7.839844-5.308594 10.203125-3.207031 2.246094-7.113281 2.851563-10.8125 1.703125l-106.308594-51.488281c-24.382812-11.808594-51.15625-18.898438-78.214843-20.828125v-88.878906c26.082031-1.757813 51.339843-8.210938 75.25-19.285157l109.257812-50.585937c3.714844-1.15625 7.644531-.542969 10.851563 1.71875 3.359375 2.363281 5.285156 6.074219 5.285156 10.183594v138.636719c0 8.285156 6.714844 15 15 15zm-245.644531 115.425781c0 6.738281-5.476563 12.324219-12.207031 12.453125-3.222657.054687-6.3125-1.199219-8.714844-3.558594-2.539063-2.492188-3.992188-5.929688-3.992188-9.4375v-106.765625c0-7.898437-6.125-14.441406-14.003906-14.96875-13.703125-.914063-24.4375-12.386719-24.4375-26.117187v-35.695313c0-14.4375 11.746094-26.183594 26.273438-26.183594l37.082031-.21875zm0 0" fill="#fff"/></svg>