<svg viewBox="0 0 512 512" xmlns="http://www.w3.org/2000/svg" xmlns:xlink="http://www.w3.org/1999/xlink"><linearGradient id="a" gradientUnits="userSpaceOnUse" x1="9.5%" x2="100%" y1="13%" y2="68%"><stop offset="0" stop-color="#21ffff"/><stop offset="0.8" stop-color="#1190cb"/></linearGradient><path d="m512 256c0 141.386719-114.613281 256-256 256s-256-114.613281-256-256 114.613281-256 256-256 256 114.613281 256 256zm0 0" fill="url(#a)"/><g fill="#fff"><path d="m377.460938 185.574219h-242.921876c-28.144531 0-51.039062-22.894531-51.039062-51.035157 0-28.144531 22.894531-51.039062 51.039062-51.039062h242.921876c28.144531 0 51.039062 22.894531 51.039062 51.039062 0 28.140626-22.894531 51.035157-51.039062 51.035157zm-242.921876-72.074219c-11.601562 0-21.039062 9.4375-21.039062 21.039062 0 11.597657 9.4375 21.035157 21.039062 21.035157h242.921876c11.601562 0 21.039062-9.4375 21.039062-21.035157 0-11.601562-9.4375-21.039062-21.039062-21.039062zm0 0"/><path d="m377.460938 307.039062h-242.921876c-28.144531 0-51.039062-22.898437-51.039062-51.039062s22.894531-51.039062 51.039062-51.039062h242.921876c28.144531 0 51.039062 22.898437 51.039062 51.039062s-22.894531 51.039062-51.039062 51.039062zm-242.921876-72.078124c-11.601562 0-21.039062 9.4375-21.039062 21.039062s9.4375 21.039062 21.039062 21.039062h242.921876c11.601562 0 21.039062-9.4375 21.039062-21.039062s-9.4375-21.039062-21.039062-21.039062zm0 0"/><path d="m377.460938 428.5c-8.28125 0-15-6.714844-15-15s6.71875-15 15-15c11.601562 0 21.039062-9.4375 21.039062-21.039062 0-11.597657-9.4375-21.035157-21.039062-21.035157h-242.921876c-11.601562 0-21.039062 9.4375-21.039062 21.035157 0 11.601562 9.4375 21.039062 21.039062 21.039062h176.1875c8.28125 0 15 6.714844 15 15s-6.71875 15-15 15h-176.1875c-28.144531 0-51.039062-22.894531-51.039062-51.039062 0-28.140626 22.894531-51.035157 51.039062-51.035157h242.921876c28.144531 0 51.039062 22.894531 51.039062 51.035157 0 28.144531-22.894531 51.039062-51.039062 51.039062zm0 0"/></g></svg>