<svg viewBox="0 0 512 512" xmlns="http://www.w3.org/2000/svg" xmlns:xlink="http://www.w3.org/1999/xlink"><linearGradient id="a" gradientUnits="userSpaceOnUse" x1="9.5%" x2="100%" y1="13%" y2="68%"><stop offset="0" stop-color="#21ffff"/><stop offset="0.8" stop-color="#1190cb"/></linearGradient><path d="m512 256c0 141.386719-114.613281 256-256 256s-256-114.613281-256-256 114.613281-256 256-256 256 114.613281 256 256zm0 0" fill="url(#a)"/><g fill="#fff"><path d="m256 335.632812c45.011719 0 81.632812-36.621093 81.632812-81.632812 0-8.285156-6.71875-15-15-15-8.285156 0-15 6.714844-15 15 0 28.46875-23.164062 51.632812-51.632812 51.632812s-51.632812-23.164062-51.632812-51.632812v-118.367188c0-28.472656 23.164062-51.632812 51.632812-51.632812s51.632812 23.160156 51.632812 51.632812v39.976563c0 8.285156 6.714844 15 15 15 8.28125 0 15-6.714844 15-15v-39.976563c0-45.011718-36.621093-81.632812-81.632812-81.632812s-81.632812 36.621094-81.632812 81.632812v118.367188c0 45.011719 36.621093 81.632812 81.632812 81.632812zm0 0"/><path d="m400.34375 254c0-8.285156-6.714844-15-15-15s-15 6.714844-15 15c0 63.050781-51.292969 114.34375-114.34375 114.34375s-114.34375-51.292969-114.34375-114.34375c0-8.285156-6.714844-15-15-15s-15 6.714844-15 15c0 74.527344 56.773438 136.039062 129.34375 143.566406v26.433594h-46.929688c-8.28125 0-15 6.714844-15 15s6.71875 15 15 15h125.425782c8.28125 0 15-6.714844 15-15s-6.71875-15-15-15h-48.496094v-26.433594c72.570312-7.527344 129.34375-69.039062 129.34375-143.566406zm0 0"/></g></svg>