<svg viewBox="0 0 512 512" xmlns="http://www.w3.org/2000/svg" xmlns:xlink="http://www.w3.org/1999/xlink"><linearGradient id="a" gradientUnits="userSpaceOnUse" x1="9.5%" x2="100%" y1="13%" y2="68%"><stop offset="0" stop-color="#21ffff"/><stop offset="0.8" stop-color="#1190cb"/></linearGradient><path d="m512 256c0 141.386719-114.613281 256-256 256s-256-114.613281-256-256 114.613281-256 256-256 256 114.613281 256 256zm0 0" fill="url(#a)"/><g fill="#fff"><path d="m343.546875 322.332031h46.027344c8.28125 0 15-6.714843 15-15 0-8.28125-6.71875-15-15-15h-56.339844c-22.554687 0-40.902344 18.351563-40.902344 40.902344v55.691406c0 8.285157 6.71875 15 15 15 8.285157 0 15-6.714843 15-15v-45.378906l76.0625 76.058594c2.925781 2.929687 6.765625 4.394531 10.605469 4.394531s7.679688-1.464844 10.605469-4.394531c5.859375-5.859375 5.859375-15.355469 0-21.210938zm0 0"/><path d="m179.765625 292.332031h-56.339844c-8.28125 0-15 6.71875-15 15 0 8.285157 6.71875 15 15 15h46.027344l-76.058594 76.0625c-5.859375 5.855469-5.859375 15.351563 0 21.210938 2.925781 2.929687 6.765625 4.394531 10.605469 4.394531s7.679688-1.464844 10.605469-4.394531l76.0625-76.058594v45.378906c0 8.285157 6.714843 15 15 15 8.28125 0 15-6.714843 15-15v-55.691406c0-22.550781-18.351563-40.902344-40.902344-40.902344zm0 0"/><path d="m333.234375 220.667969h56.339844c8.28125 0 15-6.71875 15-15 0-8.285157-6.71875-15-15-15h-46.027344l76.058594-76.0625c5.859375-5.855469 5.859375-15.351563 0-21.210938-5.855469-5.859375-15.351563-5.859375-21.210938 0l-76.0625 76.058594v-45.378906c0-8.285157-6.714843-15-15-15-8.28125 0-15 6.714843-15 15v55.691406c0 22.550781 18.351563 40.902344 40.902344 40.902344zm0 0"/><path d="m205.667969 108.425781c-8.285157 0-15 6.71875-15 15v46.027344l-76.0625-76.058594c-5.855469-5.859375-15.355469-5.859375-21.210938 0-5.859375 5.855469-5.859375 15.355469 0 21.210938l76.058594 76.0625h-46.027344c-8.28125 0-15 6.714843-15 15 0 8.28125 6.71875 15 15 15h56.339844c22.554687 0 40.902344-18.351563 40.902344-40.902344v-56.335937c0-8.285157-6.71875-15.003907-15-15.003907zm0 0"/></g></svg>