<svg viewBox="0 0 512 512" xmlns="http://www.w3.org/2000/svg" xmlns:xlink="http://www.w3.org/1999/xlink"><linearGradient id="a" gradientUnits="userSpaceOnUse" x1="9.5%" x2="100%" y1="13%" y2="68%"><stop offset="0" stop-color="#21ffff"/><stop offset="0.8" stop-color="#1190cb"/></linearGradient><path d="m512 256c0 141.386719-114.613281 256-256 256s-256-114.613281-256-256 114.613281-256 256-256 256 114.613281 256 256zm0 0" fill="url(#a)"/><g fill="#fff"><path d="m382.777344 392.015625h-253.554688c-32.105468 0-58.222656-26.117187-58.222656-58.21875v-155.59375c0-32.101563 26.117188-58.21875 58.222656-58.21875h253.558594c32.101562 0 58.21875 26.117187 58.21875 58.21875v83.558594c0 8.285156-6.714844 15-15 15-8.28125 0-15-6.714844-15-15v-83.558594c0-15.5625-12.660156-28.21875-28.21875-28.21875h-253.558594c-15.5625 0-28.222656 12.65625-28.222656 28.21875v155.59375c0 15.5625 12.660156 28.21875 28.222656 28.21875h253.558594c15.558594 0 28.21875-12.65625 28.21875-28.21875 0-8.285156 6.71875-15 15-15 8.285156 0 15 6.714844 15 15 0 32.101563-26.117188 58.21875-58.222656 58.21875zm0 0"/><path d="m256 334.300781c-40.445312 0-73.347656-35.164062-73.347656-78.390625 0-43.222656 32.902344-78.386718 73.347656-78.386718s73.347656 35.164062 73.347656 78.386718c0 43.226563-32.902344 78.390625-73.347656 78.390625zm0-126.777343c-23.902344 0-43.347656 21.707031-43.347656 48.386718 0 26.683594 19.445312 48.390625 43.347656 48.390625s43.347656-21.707031 43.347656-48.390625c0-26.679687-19.445312-48.386718-43.347656-48.386718zm0 0"/><path d="m384.941406 255.28125c0 7.957031-6.449218 14.40625-14.40625 14.40625-7.957031 0-14.40625-6.449219-14.40625-14.40625s6.449219-14.410156 14.40625-14.410156c7.957032 0 14.40625 6.453125 14.40625 14.410156zm0 0"/><path d="m155.871094 255.28125c0 7.957031-6.449219 14.40625-14.40625 14.40625-7.957032 0-14.40625-6.449219-14.40625-14.40625s6.449218-14.410156 14.40625-14.410156c7.957031 0 14.40625 6.453125 14.40625 14.410156zm0 0"/></g></svg>