<svg viewBox="0 0 512 512" xmlns="http://www.w3.org/2000/svg" xmlns:xlink="http://www.w3.org/1999/xlink"><linearGradient id="a" gradientUnits="userSpaceOnUse" x1="9.5%" x2="100%" y1="13%" y2="68%"><stop offset="0" stop-color="#21ffff"/><stop offset="0.8" stop-color="#1190cb"/></linearGradient><path d="m512 256c0 141.386719-114.613281 256-256 256s-256-114.613281-256-256 114.613281-256 256-256 256 114.613281 256 256zm0 0" fill="url(#a)"/><path d="m426 249.171875c8.285156 0 15-6.71875 15-15v-72.035156c0-32.105469-26.117188-58.222657-58.222656-58.222657h-253.554688c-32.105468 0-58.222656 26.117188-58.222656 58.222657v144.066406c0 32.105469 26.117188 58.222656 58.222656 58.222656h111.777344v27.539063h-49.828125c-8.285156 0-15 6.714844-15 15 0 8.28125 6.714844 15 15 15h129.65625c8.285156 0 15-6.71875 15-15 0-8.285156-6.714844-15-15-15h-49.828125v-27.539063h111.777344c32.105468 0 58.222656-26.117187 58.222656-58.222656 0-8.28125-6.714844-15-15-15s-15 6.71875-15 15c0 15.5625-12.660156 28.222656-28.222656 28.222656h-125.175782c-.527343-.058593-1.0625-.089843-1.601562-.089843s-1.074219.03125-1.601562.089843h-125.175782c-15.5625 0-28.222656-12.660156-28.222656-28.222656v-144.066406c0-15.5625 12.660156-28.222657 28.222656-28.222657h253.558594c15.558594 0 28.21875 12.660157 28.21875 28.222657v72.035156c0 8.28125 6.714844 15 15 15zm0 0" fill="#fff"/></svg>