<svg viewBox="0 0 512 512" xmlns="http://www.w3.org/2000/svg" xmlns:xlink="http://www.w3.org/1999/xlink"><linearGradient id="a" gradientUnits="userSpaceOnUse" x1="9.5%" x2="100%" y1="13%" y2="68%"><stop offset="0" stop-color="#21ffff"/><stop offset="0.8" stop-color="#1190cb"/></linearGradient><path d="m512 256c0 141.386719-114.613281 256-256 256s-256-114.613281-256-256 114.613281-256 256-256 256 114.613281 256 256zm0 0" fill="url(#a)"/><path d="m259.871094 456c-26.804688 0-52.882813-5.179688-77.582032-15.414062-24.910156-10.324219-47.265624-25.285157-66.449218-44.46875-39.578125-39.578126-60.816406-92.023438-59.804688-147.675782.792969-43.746094 15.246094-85.210937 41.792969-119.914062 26.074219-34.082032 61.4375-58.703125 102.269531-71.203125 12.65625-3.875 25.949219 1.015625 33.074219 12.167969 7.136719 11.175781 5.988281 25.316406-2.863281 35.1875-28.871094 32.203124-46.1875 71.503906-46.320313 105.128906-.027343 7.332031.707031 14.566406 2.1875 21.503906 10.097657 47.296875 47.234375 84.386719 94.609375 94.488281 7.117188 1.515625 14.574219 2.246094 22.144532 2.207031 50.355468-.355468 93.117187-34.792968 105.023437-45.339843 9.824219-8.707031 23.835937-9.773438 34.863281-2.652344 10.945313 7.0625 15.703125 20.167969 11.847656 32.609375-6.453124 20.796875-16.175781 40.347656-28.90625 58.113281-4.824218 6.734375-14.191406 8.285157-20.929687 3.457031-6.734375-4.824218-8.28125-14.191406-3.457031-20.929687 10-13.957031 17.824218-29.203125 23.292968-45.375-36.542968 31.175781-81.667968 49.835937-121.523437 50.117187-9.761719.082032-19.375-.898437-28.609375-2.867187-28.777344-6.136719-55.105469-20.480469-76.140625-41.484375-21.042969-21.011719-35.414063-47.320312-41.554687-76.078125-1.925782-9.035156-2.886719-18.417969-2.847657-27.890625.226563-56.433594 34.90625-103.171875 51.964844-122.75-70.546875 22.976562-118.574219 87.695312-119.925781 162.050781-.859375 47.433594 17.261718 92.152344 51.023437 125.914063 33.792969 33.792968 78.5625 51.917968 126.058594 51.070312 29.054687-.527344 56.621094-8.042968 81.9375-22.335937 7.210937-4.070313 16.363281-1.527344 20.433594 5.6875 4.074219 7.214843 1.527343 16.363281-5.683594 20.4375-29.703125 16.769531-62.050781 25.585937-96.140625 26.203125-1.261719.023437-2.527344.035156-3.785156.035156zm0 0" fill="#fff"/></svg>