<svg viewBox="0 0 512 512" xmlns="http://www.w3.org/2000/svg" xmlns:xlink="http://www.w3.org/1999/xlink"><linearGradient id="a" gradientUnits="userSpaceOnUse" x1="9.5%" x2="100%" y1="13%" y2="68%"><stop offset="0" stop-color="#21ffff"/><stop offset="0.8" stop-color="#1190cb"/></linearGradient><path d="m512 256c0 141.386719-114.613281 256-256 256s-256-114.613281-256-256 114.613281-256 256-256 256 114.613281 256 256zm0 0" fill="url(#a)"/><path d="m442.28125 223.128906-48.726562-48.328125c-5.882813-5.835937-15.378907-5.792969-21.214844.085938-5.832032 5.882812-5.792969 15.378906.089844 21.214843l46.058593 45.683594h-147.488281v-148.273437l45.683594 46.058593c2.933594 2.957032 6.792968 4.4375 10.652344 4.4375 3.816406 0 7.636718-1.449218 10.5625-4.347656 5.882812-5.835937 5.917968-15.332031.085937-21.214844l-48.328125-48.726562c-8.773438-8.847656-20.449219-13.71875-32.875-13.71875-12.421875 0-24.097656 4.871094-32.867188 13.71875l-48.332031 48.726562c-5.832031 5.882813-5.792969 15.378907.089844 21.214844 5.882813 5.835938 15.378906 5.792969 21.210937-.089844l44.117188-44.480468v146.695312h-147.488281l46.058593-45.6875c5.882813-5.832031 5.921876-15.328125.089844-21.210937-5.835937-5.882813-15.335937-5.921875-21.214844-.089844l-48.726562 48.332031c-8.847656 8.773438-13.71875 20.445313-13.71875 32.871094s4.871094 24.097656 13.71875 32.871094l48.726562 48.328125c2.925782 2.902343 6.746094 4.351562 10.566407 4.351562 3.855469 0 7.714843-1.480469 10.648437-4.4375 5.832032-5.882812 5.792969-15.378906-.089844-21.214843l-44.476562-44.113282h145.90625v145.125l-44.117188-44.480468c-5.835937-5.882813-15.332031-5.921876-21.210937-.089844-5.882813 5.835937-5.921875 15.332031-.089844 21.214844l48.332031 48.726562c8.769532 8.847656 20.445313 13.71875 32.867188 13.71875h.003906c12.421875 0 24.097656-4.871094 32.871094-13.71875l48.328125-48.726562c5.832031-5.882813 5.796875-15.378907-.085937-21.214844-5.882813-5.832032-15.378907-5.792969-21.214844.089844l-45.683594 46.058593v-146.703125h145.910156l-44.480468 44.113282c-5.882813 5.835937-5.921876 15.332031-.089844 21.214843 2.933594 2.957031 6.792968 4.4375 10.652344 4.4375 3.816406 0 7.636718-1.449219 10.5625-4.351562l48.726562-48.328125c8.847656-8.773438 13.71875-20.445313 13.71875-32.871094s-4.871094-24.097656-13.71875-32.871094zm0 0" fill="#fff"/></svg>