<svg viewBox="0 0 512 512" xmlns="http://www.w3.org/2000/svg" xmlns:xlink="http://www.w3.org/1999/xlink"><linearGradient id="a" gradientUnits="userSpaceOnUse" x1="9.5%" x2="100%" y1="13%" y2="68%"><stop offset="0" stop-color="#21ffff"/><stop offset="0.8" stop-color="#1190cb"/></linearGradient><path d="m512 256c0 141.386719-114.613281 256-256 256s-256-114.613281-256-256 114.613281-256 256-256 256 114.613281 256 256zm0 0" fill="url(#a)"/><path d="m406.132812 92.871094c-9.769531-7.953125-22.441406-11.046875-34.824218-8.488282l-156.121094 32.796876c-19.261719 3.988281-33.242188 21.160156-33.242188 40.828124v146.554688c-10.789062-7.261719-23.769531-11.507812-37.722656-11.507812-37.34375 0-67.722656 30.382812-67.722656 67.722656 0 37.34375 30.378906 67.722656 67.722656 67.722656 37.191406 0 67.46875-30.136719 67.710938-67.273438 0-.078124.011718-.148437.011718-.226562v-148.867188l179.554688-38.1875v87.90625c-10.789062-7.265624-23.769531-11.507812-37.722656-11.507812-37.34375 0-67.722656 30.378906-67.722656 67.722656 0 37.339844 30.378906 67.71875 67.722656 67.71875 7.320312 0 14.53125-1.164062 21.425781-3.460937 7.859375-2.621094 12.109375-11.113281 9.488281-18.972657-2.617187-7.863281-11.113281-12.109374-18.972656-9.488281-3.832031 1.277344-7.851562 1.921875-11.941406 1.921875-20.800782 0-37.722656-16.921875-37.722656-37.71875 0-20.800781 16.921874-37.722656 37.722656-37.722656 20.800781 0 37.722656 16.921875 37.722656 37.722656v.085938c0 8.285156 6.714844 15 15 15s15-6.714844 15-15v-192.949219c0-12.59375-5.601562-24.378906-15.367188-32.332031zm-261.910156 305.628906c-20.800781 0-37.722656-16.921875-37.722656-37.722656 0-20.800782 16.921875-37.722656 37.722656-37.722656 20.800782 0 37.722656 16.921874 37.722656 37.722656 0 20.800781-16.921874 37.722656-37.722656 37.722656zm67.722656-240.492188c0-5.515624 3.921876-10.332031 9.367188-11.460937l156.121094-32.792969c.863281-.179687 1.683594-.257812 2.453125-.257812 3.464843 0 5.984375 1.570312 7.300781 2.640625 1.609375 1.3125 4.3125 4.230469 4.3125 9.070312v18.066407l-179.554688 38.191406zm0 0" fill="#fff"/></svg>