<svg viewBox="0 0 512 512" xmlns="http://www.w3.org/2000/svg" xmlns:xlink="http://www.w3.org/1999/xlink"><linearGradient id="a" gradientUnits="userSpaceOnUse" x1="9.5%" x2="100%" y1="13%" y2="68%"><stop offset="0" stop-color="#21ffff"/><stop offset="0.8" stop-color="#1190cb"/></linearGradient><path d="m512 256c0 141.386719-114.613281 256-256 256s-256-114.613281-256-256 114.613281-256 256-256 256 114.613281 256 256zm0 0" fill="url(#a)"/><g fill="#fff"><path d="m422.996094 256.007812 28.582031-28.582031c5.859375-5.859375 5.859375-15.355469 0-21.214843-5.855469-5.855469-15.355469-5.855469-21.210937 0l-28.585938 28.585937-28.582031-28.585937c-5.855469-5.855469-15.355469-5.855469-21.210938 0-5.859375 5.859374-5.859375 15.355468 0 21.214843l28.582031 28.582031-28.582031 28.582032c-5.859375 5.859375-5.859375 15.355468 0 21.214844 2.925781 2.929687 6.765625 4.394531 10.605469 4.394531 3.835938 0 7.675781-1.464844 10.605469-4.394531l28.582031-28.582032 28.582031 28.582032c2.929688 2.929687 6.769531 4.394531 10.609375 4.394531 3.835938 0 7.675782-1.464844 10.605469-4.394531 5.855469-5.859376 5.855469-15.355469 0-21.214844zm0 0"/><path d="m286.445312 59.753906c-17.542968-7.398437-36.910156-3.738281-50.542968 9.558594-.3125.300781-.609375.617188-.894532.949219l-89.015624 103.339843h-27.9375c-34.203126 0-62.027344 27.828126-62.027344 62.027344v40.757813c0 34.203125 27.824218 62.027343 62.027344 62.027343h27.9375l89.015624 103.339844c.285157.332032.582032.648438.894532.949219 9.007812 8.789063 20.503906 13.386719 32.328125 13.386719 6.128906 0 12.347656-1.238282 18.347656-3.769532 17.464844-7.363281 28.3125-23.722656 28.3125-42.691406 0-8.285156-6.714844-15-15-15-8.28125 0-15 6.714844-15 15 0 10.0625-7.625 14.0625-9.964844 15.050782-2.335937.984374-10.417969 3.621093-17.671875-3.066407l-93.019531-107.992187c-2.851563-3.304688-7-5.207032-11.367187-5.207032h-34.8125c-17.660157 0-32.027344-14.367187-32.027344-32.027343v-40.757813c0-17.660156 14.367187-32.027344 32.027344-32.027344h34.8125c4.367187 0 8.519531-1.902343 11.367187-5.207031l93.019531-107.992187c7.179688-6.613282 15.210938-3.988282 17.539063-3.007813 2.367187 1 10.097656 5.050781 10.097656 15.21875v228.636719c0 8.285156 6.71875 15 15 15 8.285156 0 15-6.714844 15-15v-228.636719c0-19.039062-10.898437-35.464843-28.445313-42.859375zm0 0"/></g></svg>