<svg viewBox="0 0 512 512" xmlns="http://www.w3.org/2000/svg" xmlns:xlink="http://www.w3.org/1999/xlink"><linearGradient id="a" gradientUnits="userSpaceOnUse" x1="9.5%" x2="100%" y1="13%" y2="68%"><stop offset="0" stop-color="#21ffff"/><stop offset="0.8" stop-color="#1190cb"/></linearGradient><path d="m512 256c0 141.386719-114.613281 256-256 256s-256-114.613281-256-256 114.613281-256 256-256 256 114.613281 256 256zm0 0" fill="url(#a)"/><g fill="#fff"><path d="m199.996094 145.902344c7.359375 3.804687 16.410156.925781 20.21875-6.433594 6.6875-12.933594 20.402344-20.96875 35.785156-20.96875 22.015625 0 39.925781 17.910156 39.925781 39.925781v79.480469c0 8.285156 6.714844 15 15 15 8.285157 0 15-6.714844 15-15v-79.480469c0-38.558593-31.367187-69.925781-69.925781-69.925781-26.644531 0-50.566406 14.25-62.433594 37.1875-3.804687 7.359375-.925781 16.40625 6.429688 20.214844zm0 0"/><path d="m354.863281 300.773438c1.398438.40625 2.808594.601562 4.195313.601562 6.5 0 12.492187-4.261719 14.398437-10.816406 3.191407-10.984375 4.8125-22.394532 4.8125-33.914063 0-8.285156-6.71875-15-15-15-8.285156 0-15 6.714844-15 15 0 8.683594-1.21875 17.277344-3.621093 25.539063-2.3125 7.953125 2.261718 16.277344 10.214843 18.589844zm0 0"/><path d="m419.105469 397.894531-305-305c-5.855469-5.859375-15.355469-5.859375-21.210938 0-5.859375 5.859375-5.859375 15.355469 0 21.210938l93.179688 93.183593v49.359376c0 38.554687 31.367187 69.925781 69.925781 69.925781 13.691406 0 26.839844-3.941407 38.089844-11.269531l15.832031 15.828124c-15.460937 11.117188-33.925781 17.136719-53.273437 17.136719-.109376 0-.214844.011719-.324219.015625-.109375-.003906-.214844-.015625-.324219-.015625-50.519531 0-91.621094-41.101562-91.621094-91.621093 0-8.285157-6.714844-15-15-15-8.28125 0-15 6.714843-15 15 0 61.984374 46.609375 113.28125 106.621094 120.695312v16.15625h-36.046875c-8.285156 0-15 6.714844-15 15s6.714844 15 15 15h103.390625c8.28125 0 15-6.714844 15-15s-6.71875-15-15-15h-37.34375v-16.074219c22.070312-2.59375 42.824219-11.140625 60.355469-24.855469l66.539062 66.535157c2.929688 2.929687 6.765625 4.394531 10.605469 4.394531s7.679688-1.464844 10.605469-4.394531c5.859375-5.855469 5.859375-15.355469 0-21.210938zm-163.105469-101.324219c-22.015625 0-39.925781-17.910156-39.925781-39.925781v-19.359375l55.9375 55.941406c-4.988281 2.183594-10.417969 3.34375-16.011719 3.34375zm0 0"/></g></svg>