<svg viewBox="0 0 512 512" xmlns="http://www.w3.org/2000/svg" xmlns:xlink="http://www.w3.org/1999/xlink"><linearGradient id="a" gradientUnits="userSpaceOnUse" x1="9.5%" x2="100%" y1="13%" y2="68%"><stop offset="0" stop-color="#21ffff"/><stop offset="0.8" stop-color="#1190cb"/></linearGradient><path d="m512 256c0 141.386719-114.613281 256-256 256s-256-114.613281-256-256 114.613281-256 256-256 256 114.613281 256 256zm0 0" fill="url(#a)"/><g fill="#fff"><path d="m406.492188 184.785156h-15.515626c-.113281-35.601562-14.050781-68.960937-39.285156-93.972656-25.253906-25.027344-58.882812-38.8125-94.691406-38.8125s-69.4375 13.785156-94.691406 38.8125c-25.234375 25.011719-39.171875 58.371094-39.285156 93.972656h-15.515626c-8.285156 0-15 6.71875-15 15 0 8.285156 6.714844 15 15 15h15.507813v166.453125c0 33.503907 27.257813 60.761719 60.765625 60.761719h146.4375c33.507812 0 60.765625-27.257812 60.765625-60.761719 0-8.285156-6.71875-15-15-15-8.285156 0-15 6.714844-15 15 0 16.960938-13.800781 30.761719-30.765625 30.761719h-146.4375c-16.964844 0-30.765625-13.800781-30.765625-30.761719v-166.453125h207.96875v90.179688c0 8.285156 6.714844 15 15 15 8.28125 0 15-6.714844 15-15v-90.179688h15.507813c8.285156 0 15-6.714844 15-15 0-8.28125-6.714844-15-15-15zm-149.492188-102.785156c57.191406 0 103.738281 46.070312 103.976562 102.785156h-207.953124c.238281-56.714844 46.785156-102.785156 103.976562-102.785156zm0 0"/><path d="m199.035156 258.695312c-8.285156 0-15 6.714844-15 15v76.269532c0 8.285156 6.714844 15 15 15h115.933594c8.28125 0 15-6.714844 15-15v-76.269532c0-8.285156-6.71875-15-15-15zm100.929688 76.269532h-85.933594v-46.269532h85.933594zm0 0"/></g></svg>