<svg viewBox="0 0 512 512" xmlns="http://www.w3.org/2000/svg" xmlns:xlink="http://www.w3.org/1999/xlink"><linearGradient id="a" gradientUnits="userSpaceOnUse" x1="9.5%" x2="100%" y1="13%" y2="68%"><stop offset="0" stop-color="#21ffff"/><stop offset="0.8" stop-color="#1190cb"/></linearGradient><path d="m512 256c0 141.386719-114.613281 256-256 256s-256-114.613281-256-256 114.613281-256 256-256 256 114.613281 256 256zm0 0" fill="url(#a)"/><g fill="#fff"><path d="m413.449219 318.210938c8.285156 0 15-6.714844 15-15v-63.152344c0-23.410156-19.046875-42.457032-42.457031-42.457032h-25.5v-52.960937c0-30.980469-25.207032-56.1875-56.1875-56.1875h-31.714844c-5.734375-16.339844-21.171875-27.457031-38.777344-27.457031h-17.582031c-17.605469 0-33.042969 11.113281-38.777344 27.457031h-31.714844c-30.980469 0-56.1875 25.207031-56.1875 56.1875v214.171875c0 30.980469 25.207031 56.183594 56.1875 56.183594h60.40625c8.285157 0 15-6.714844 15-15 0-8.28125-6.714843-15-15-15h-60.40625c-14.441406 0-26.1875-11.746094-26.1875-26.183594v-214.167969c0-14.441406 11.746094-26.1875 26.1875-26.1875h.101563v39.226563c0 8.285156 6.714844 15 15 15h129.734375c8.285156 0 15-6.714844 15-15v-39.195313c13.851562.664063 24.917969 12.140625 24.917969 26.152344v52.960937h-43.355469c-23.40625 0-42.453125 19.042969-42.453125 42.453126v132.492187c0 23.40625 19.046875 42.453125 42.464844 42.453125l98.839843-.050781c23.414063 0 42.460938-19.046875 42.460938-42.453125 0-8.285156-6.71875-15-15-15-8.285157 0-15 6.714844-15 15 0 6.863281-5.589844 12.453125-12.464844 12.453125l-98.839844.050781c-6.871093 0-12.460937-5.585938-12.460937-12.453125v-132.492187c0-6.867188 5.585937-12.453126 12.453125-12.453126h98.855469c6.867187 0 12.457031 5.585938 12.457031 12.457032v63.152344c0 8.285156 6.714843 15 15 15zm-237.609375-175.523438v-24.230469h13.144531c6.882813 0 12.882813-4.683593 14.550781-11.363281l1.921875-7.683594c1.238281-4.953125 5.667969-8.410156 10.773438-8.410156h17.582031c5.105469 0 9.535156 3.457031 10.773438 8.410156l1.921874 7.683594c1.667969 6.679688 7.667969 11.363281 14.550782 11.363281h14.515625v24.230469zm0 0"/><path d="m358.535156 300.566406h-43.933594c-8.285156 0-15 6.714844-15 15s6.714844 15 15 15h43.933594c8.28125 0 15-6.714844 15-15s-6.71875-15-15-15zm0 0"/><path d="m358.535156 252.515625h-43.933594c-8.285156 0-15 6.714844-15 15s6.714844 15 15 15h43.933594c8.28125 0 15-6.714844 15-15s-6.71875-15-15-15zm0 0"/></g></svg>