<svg viewBox="0 0 512 512" xmlns="http://www.w3.org/2000/svg" xmlns:xlink="http://www.w3.org/1999/xlink"><linearGradient id="a" gradientUnits="userSpaceOnUse" x1="9.5%" x2="100%" y1="13%" y2="68%"><stop offset="0" stop-color="#21ffff"/><stop offset="0.8" stop-color="#1190cb"/></linearGradient><path d="m512 256c0 141.386719-114.613281 256-256 256s-256-114.613281-256-256 114.613281-256 256-256 256 114.613281 256 256zm0 0" fill="url(#a)"/><g fill="#fff"><path d="m171.527344 423.5h-22.617188c-29.648437 0-53.769531-24.121094-53.769531-53.769531v-227.460938c0-29.648437 24.121094-53.769531 53.769531-53.769531h22.617188c29.648437 0 53.769531 24.121094 53.769531 53.769531v227.457031c0 29.652344-24.121094 53.773438-53.769531 53.773438zm-22.617188-305c-13.105468 0-23.769531 10.664062-23.769531 23.769531v227.457031c0 13.109376 10.664063 23.773438 23.769531 23.773438h22.617188c13.105468 0 23.769531-10.664062 23.769531-23.773438v-227.457031c0-13.105469-10.664063-23.769531-23.769531-23.769531zm0 0"/><path d="m364.089844 423.5h-21.96875c-29.648438 0-53.773438-24.121094-53.773438-53.769531v-227.460938c0-29.648437 24.125-53.769531 53.773438-53.769531h21.96875c29.648437 0 53.769531 24.121094 53.769531 53.769531v162.839844c0 8.285156-6.714844 15-15 15-8.28125 0-15-6.714844-15-15v-162.839844c0-13.105469-10.664063-23.769531-23.769531-23.769531h-21.96875c-13.109375 0-23.773438 10.664062-23.773438 23.769531v227.457031c0 13.109376 10.664063 23.773438 23.773438 23.773438h21.96875c13.105468 0 23.769531-10.664062 23.769531-23.773438 0-8.28125 6.71875-15 15-15 8.285156 0 15 6.71875 15 15 0 29.652344-24.121094 53.773438-53.769531 53.773438zm0 0"/></g></svg>