<svg viewBox="0 0 512 512" xmlns="http://www.w3.org/2000/svg" xmlns:xlink="http://www.w3.org/1999/xlink"><linearGradient id="a" gradientUnits="userSpaceOnUse" x1="9.5%" x2="100%" y1="13%" y2="68%"><stop offset="0" stop-color="#21ffff"/><stop offset="0.8" stop-color="#1190cb"/></linearGradient><path d="m512 256c0 141.386719-114.613281 256-256 256s-256-114.613281-256-256 114.613281-256 256-256 256 114.613281 256 256zm0 0" fill="url(#a)"/><path d="m432.144531 153.523438-77.835937-77.832032c-5.847656-5.851562-15.335938-5.859375-21.195313-.015625l-207.144531 206.476563c-1.835938 1.832031-3.167969 4.105468-3.863281 6.601562l-30.019531 107.851563c-1.453126 5.230469.027343 10.832031 3.871093 14.660156 2.851563 2.832031 6.671875 4.363281 10.582031 4.363281 1.367188 0 2.746094-.1875 4.097657-.570312l107.851562-30.632813c5.113281-1.453125 9.074219-5.503906 10.417969-10.648437 1.339844-5.140625-.140625-10.609375-3.894531-14.375l-27.171875-27.253906 147.480468-147.480469 17.074219 17.074219-111.621093 110.878906c-5.878907 5.839844-5.910157 15.335937-.070313 21.214844 5.835937 5.875 15.335937 5.910156 21.210937.070312l160.195313-159.132812c2.828125-2.8125 4.421875-6.632813 4.429687-10.617188.007813-3.988281-1.578124-7.8125-4.394531-10.632812zm-303.988281 225.371093 16.132812-57.964843 41.476563 41.601562zm48.503906-67.992187-18.464844-18.515625 147.660157-147.183594 18.25 18.253906zm207.015625-130.304688-56.574219-56.574218 16.585938-16.53125 56.597656 56.601562zm0 0" fill="#fff"/></svg>