<svg viewBox="0 0 512 512" xmlns="http://www.w3.org/2000/svg" xmlns:xlink="http://www.w3.org/1999/xlink"><linearGradient id="a" gradientUnits="userSpaceOnUse" x1="9.5%" x2="100%" y1="13%" y2="68%"><stop offset="0" stop-color="#21ffff"/><stop offset="0.8" stop-color="#1190cb"/></linearGradient><path d="m512 256c0 141.386719-114.613281 256-256 256s-256-114.613281-256-256 114.613281-256 256-256 256 114.613281 256 256zm0 0" fill="url(#a)"/><path d="m336.679688 433c-.257813 0-.515626 0-.777344-.003906-24.40625-.121094-50.976563-6.304688-78.976563-18.382813-7.609375-3.28125-11.113281-12.109375-7.832031-19.714843 3.277344-7.609376 12.105469-11.113282 19.714844-7.832032 23.929687 10.324219 47.183594 15.832032 67.246094 15.929688 25.195312.113281 46.261718-7.429688 60.859374-21.863282l.070313-.078124c8.5-9.46875 7.980469-23.800782-1.175781-32.632813-36.117188-34.828125-53.039063-32.441406-68.597656-17.273437l-25.632813 25.445312c-4.394531 4.359375-11.015625 5.578125-16.671875 3.058594-1.460938-.652344-36.203125-16.375-75.289062-55.460938l-1.804688-1.800781c-39.09375-39.09375-54.816406-73.835937-55.464844-75.296875-2.519531-5.65625-1.304687-12.277344 3.054688-16.667969l25.445312-25.636719c15.171875-15.5625 17.554688-32.480468-17.273437-68.597656-8.828125-9.15625-23.164063-9.671875-32.628907-1.175781l-.078124.070313c-14.433594 14.597656-21.992188 35.632812-21.867188 60.859374.242188 49.042969 28.117188 106.046876 74.5625 152.492188 8.859375 8.855469 18.980469 17.664062 30.082031 26.175781 6.574219 5.042969 7.816407 14.457031 2.777344 21.03125-5.042969 6.574219-14.460937 7.816407-21.03125 2.777344-12.144531-9.308594-23.257813-18.988281-33.039063-28.773437-51.910156-51.90625-83.070312-116.785157-83.351562-173.550782-.167969-33.574218 10.523438-62.101562 30.925781-82.496094.1875-.191406.386719-.378906.585938-.558593l.394531-.355469c21.546875-19.339844 54.167969-18.160156 74.265625 2.679688 18.640625 19.328124 29.40625 35.5625 33.894531 51.085937 6.234375 21.578125.585938 41.542969-16.796875 59.339844-.027343.03125-.058593.058593-.085937.085937l-17.746094 17.878906c6.695312 11.730469 20.875 33.707032 44.582031 57.414063l1.804688 1.800781c23.703125 23.703125 45.675781 37.886719 57.417969 44.585938l17.878906-17.742188.085937-.085937c17.796875-17.382813 37.765625-23.03125 59.34375-16.796875 15.523438 4.484375 31.753907 15.253906 51.082031 33.890625 20.84375 20.101562 22.019532 52.722656 2.679688 74.269531l-.351562.390625c-.179688.203125-.367188.398437-.558594.589844-20.242188 20.238281-48.488282 30.925781-81.722656 30.925781zm0 0" fill="#fff"/></svg>