<svg viewBox="0 0 512 512" xmlns="http://www.w3.org/2000/svg" xmlns:xlink="http://www.w3.org/1999/xlink"><linearGradient id="a" gradientUnits="userSpaceOnUse" x1="9.5%" x2="100%" y1="13%" y2="68%"><stop offset="0" stop-color="#21ffff"/><stop offset="0.8" stop-color="#1190cb"/></linearGradient><path d="m512 256c0 141.386719-114.613281 256-256 256s-256-114.613281-256-256 114.613281-256 256-256 256 114.613281 256 256zm0 0" fill="url(#a)"/><g fill="#fff"><path d="m407.632812 332.824219c-19.328124-18.636719-35.5625-29.40625-51.085937-33.890625-21.578125-6.234375-41.542969-.585938-59.339844 16.796875-.03125.027343-.058593.054687-.085937.085937l-17.878906 17.742188c-11.742188-6.699219-33.710938-20.878906-57.417969-44.585938l-1.804688-1.800781c-23.703125-23.707031-37.886719-45.683594-44.582031-57.414063l17.746094-17.878906c.03125-.027344.058594-.054687.085937-.085937 17.382813-17.796875 23.03125-37.761719 16.796875-59.339844-4.484375-15.523437-15.253906-31.757813-33.890625-51.085937-20.101562-20.84375-52.722656-22.019532-74.273437-2.671876l-.394532.351563c-.199218.179687-.390624.363281-.582031.554687-20.398437 20.394532-31.089843 48.925782-30.921875 82.496094.28125 56.765625 31.441406 121.644532 83.347656 173.550782 9.785157 9.78125 20.898438 19.464843 33.039063 28.773437 6.578125 5.039063 15.992187 3.796875 21.03125-2.777344 5.042969-6.574219 3.796875-15.992187-2.777344-21.03125-11.097656-8.511719-21.21875-17.320312-30.078125-26.175781-46.445312-46.445312-74.320312-103.453125-74.5625-152.492188-.128906-25.226562 7.433594-46.265624 21.867188-60.863281l.074218-.066406c9.46875-8.5 23.804688-7.980469 32.632813 1.175781 34.832031 36.121094 32.441406 53.039063 17.269531 68.601563l-25.441406 25.628906c-4.359375 4.394531-5.574219 11.015625-3.054688 16.671875.648438 1.457031 16.371094 36.203125 55.460938 75.292969l1.808594 1.804687c39.082031 39.085938 73.828125 54.808594 75.289062 55.457032 5.65625 2.523437 12.277344 1.304687 16.667969-3.054688l25.636719-25.445312c15.558594-15.167969 32.480468-17.554688 68.597656 17.273437 9.15625 8.832031 9.671875 23.164063 1.171875 32.632813l-.066406.078124c-14.601563 14.429688-35.621094 22.007813-60.863281 21.863282-20.515626-.101563-44.003907-5.609375-67.933594-15.929688-7.605469-3.285156-16.433594.222656-19.714844 7.832032-3.28125 7.605468.226562 16.433593 7.832031 19.714843 27.605469 11.902344 55.152344 18.261719 79.667969 18.382813.257812.003906.515625.003906.773438.003906 33.234374 0 61.480468-10.6875 81.71875-30.925781.191406-.191407.378906-.386719.558593-.589844l.351563-.390625c19.339844-21.546875 18.164062-54.167969-2.675782-74.269531zm0 0"/><path d="m295.425781 213.574219c2.929688 2.929687 6.765625 4.394531 10.605469 4.394531s7.679688-1.464844 10.605469-4.394531l40.878906-40.878907 40.875 40.878907c2.929687 2.929687 6.769531 4.394531 10.605469 4.394531 3.839844 0 7.679687-1.464844 10.609375-4.394531 5.855469-5.859375 5.855469-15.355469 0-21.214844l-40.878907-40.875 40.878907-40.875c5.855469-5.859375 5.855469-15.355469 0-21.214844-5.859375-5.855469-15.359375-5.859375-21.214844 0l-40.875 40.875-40.878906-40.875c-5.855469-5.859375-15.355469-5.859375-21.210938 0-5.859375 5.859375-5.859375 15.355469 0 21.214844l40.875 40.875-40.875 40.875c-5.859375 5.859375-5.859375 15.355469 0 21.214844zm0 0"/></g></svg>