<svg viewBox="0 0 512 512" xmlns="http://www.w3.org/2000/svg" xmlns:xlink="http://www.w3.org/1999/xlink"><linearGradient id="a" gradientUnits="userSpaceOnUse" x1="9.5%" x2="100%" y1="13%" y2="68%"><stop offset="0" stop-color="#21ffff"/><stop offset="0.8" stop-color="#1190cb"/></linearGradient><path d="m512 256c0 141.386719-114.613281 256-256 256s-256-114.613281-256-256 114.613281-256 256-256 256 114.613281 256 256zm0 0" fill="url(#a)"/><g fill="#fff"><path d="m336.679688 433c-.257813 0-.515626 0-.777344-.003906-24.402344-.121094-50.976563-6.304688-78.980469-18.382813-7.605469-3.28125-11.113281-12.109375-7.832031-19.714843 3.28125-7.605469 12.105468-11.113282 19.714844-7.832032 23.933593 10.324219 47.1875 15.832032 67.246093 15.929688 25.242188.132812 46.265625-7.433594 60.863281-21.867188l.074219-.082031c8.492188-9.460937 7.976563-23.796875-1.179687-32.625-36.121094-34.828125-53.039063-32.441406-68.597656-17.273437l-25.636719 25.445312c-4.390625 4.359375-11.011719 5.574219-16.667969 3.054688-1.460938-.648438-36.207031-16.371094-75.289062-55.457032l-1.808594-1.804687c-39.089844-39.089844-54.8125-73.835938-55.460938-75.292969-2.519531-5.65625-1.304687-12.277344 3.054688-16.671875l25.441406-25.628906c15.175781-15.5625 17.5625-32.480469-17.269531-68.601563-8.832031-9.15625-23.164063-9.671875-32.632813-1.175781l-.074218.066406c-14.433594 14.601563-21.996094 35.636719-21.871094 60.867188.246094 49.039062 28.121094 106.042969 74.566406 152.488281 8.859375 8.859375 18.976562 17.664062 30.082031 26.175781 6.574219 5.042969 7.816407 14.457031 2.773438 21.03125-5.039063 6.578125-14.457031 7.820313-21.03125 2.777344-12.140625-9.308594-23.253907-18.988281-33.039063-28.773437-51.90625-51.90625-83.066406-116.785157-83.347656-173.550782-.167969-33.574218 10.527344-62.101562 30.925781-82.496094.1875-.191406.382813-.375.582031-.554687l.394532-.351563c21.550781-19.347656 54.171875-18.167968 74.269531 2.671876 18.636719 19.328124 29.40625 35.5625 33.894531 51.082031 6.234375 21.582031.582032 41.546875-16.796875 59.34375-.03125.027343-.058593.058593-.085937.085937l-17.746094 17.878906c6.695312 11.730469 20.875 33.707032 44.582031 57.410157l1.808594 1.804687c23.699219 23.703125 45.671875 37.886719 57.414063 44.585938l17.878906-17.742188c.027344-.03125.058594-.058594.085937-.085937 17.796875-17.382813 37.761719-23.035157 59.34375-16.796875 15.523438 4.484375 31.753907 15.253906 51.082031 33.890625 20.84375 20.097656 22.019532 52.722656 2.679688 74.269531l-.359375.398438c-.179687.199218-.363281.390624-.550781.582031-20.242188 20.238281-48.488282 30.925781-81.722656 30.925781zm0 0"/><path d="m341.152344 232.441406c-6.472656 0-12.445313-4.222656-14.375-10.746094l-.199219-.675781c-1.683594-5.722656-3.992187-13.5625-13.011719-22.582031-9.367187-9.371094-17.570312-11.636719-22.996094-13.140625-7.984374-2.207031-12.667968-10.472656-10.457031-18.453125 2.207031-7.984375 10.46875-12.667969 18.457031-10.460938 6.894532 1.910157 21.25 5.878907 36.210938 20.839844 14.425781 14.429688 18.582031 28.542969 20.578125 35.328125l.183594.628907c2.351562 7.941406-2.179688 16.289062-10.125 18.640624-1.421875.417969-2.855469.621094-4.265625.621094zm0 0"/><path d="m403.523438 262.761719c-.027344 0-.046876 0-.074219 0-8.285157-.039063-14.96875-6.785157-14.929688-15.070313.160157-33.347656-12.683593-64.644531-36.164062-88.125-23.285157-23.285156-54.316407-36.089844-87.433594-36.089844-.230469 0-.453125.003907-.6875.003907-8.253906 0-14.960937-6.667969-15-14.929688-.039063-8.285156 6.644531-15.03125 14.925781-15.070312 41.449219-.179688 80.273438 15.738281 109.410156 44.875 29.183594 29.183593 45.144532 68.0625 44.949219 109.480469-.039062 8.257812-6.746093 14.925781-14.996093 14.925781zm0 0"/></g></svg>