<svg viewBox="0 0 512 512" xmlns="http://www.w3.org/2000/svg" xmlns:xlink="http://www.w3.org/1999/xlink"><linearGradient id="a" gradientUnits="userSpaceOnUse" x1="9.5%" x2="100%" y1="13%" y2="68%"><stop offset="0" stop-color="#21ffff"/><stop offset="0.8" stop-color="#1190cb"/></linearGradient><path d="m512 256c0 141.386719-114.613281 256-256 256s-256-114.613281-256-256 114.613281-256 256-256 256 114.613281 256 256zm0 0" fill="url(#a)"/><g fill="#fff"><path d="m382.78125 413.992188h-253.5625c-32.101562 0-58.21875-26.121094-58.21875-58.222657v-165.675781c0-32.105469 26.117188-58.222656 58.21875-58.222656h21.550781c5.800781 0 11.023438-3.664063 12.992188-9.121094l4.988281-13.808594c6.25-17.308594 22.808594-28.933594 41.210938-28.933594h92.035156c18.765625 0 35.433594 11.933594 41.476562 29.695313l4.359375 12.804687c1.90625 5.601563 7.160157 9.363282 13.078125 9.363282h21.871094c32.101562 0 58.21875 26.117187 58.21875 58.222656v93.640625c0 8.285156-6.714844 15-15 15s-15-6.714844-15-15v-93.640625c0-15.5625-12.660156-28.222656-28.21875-28.222656h-21.871094c-18.765625 0-35.433594-11.933594-41.476562-29.695313l-4.359375-12.808593c-1.90625-5.597657-7.164063-9.359376-13.078125-9.359376h-92.035156c-5.804688 0-11.023438 3.664063-12.992188 9.121094l-4.988281 13.808594c-6.25 17.308594-22.808594 28.933594-41.210938 28.933594h-21.546875c-15.5625 0-28.222656 12.660156-28.222656 28.222656v165.675781c0 15.5625 12.660156 28.222657 28.222656 28.222657h253.558594c15.5625 0 28.21875-12.660157 28.21875-28.222657 0-8.28125 6.71875-15 15-15 8.285156 0 15 6.71875 15 15 0 32.101563-26.117188 58.222657-58.21875 58.222657zm0 0"/><path d="m256.71875 356.363281c-49.976562 0-90.632812-40.660156-90.632812-90.636719 0-49.976562 40.65625-90.632812 90.632812-90.632812s90.636719 40.65625 90.636719 90.632812c0 49.976563-40.660157 90.636719-90.636719 90.636719zm0-151.269531c-33.433594 0-60.632812 27.199219-60.632812 60.636719 0 33.433593 27.199218 60.632812 60.632812 60.632812s60.636719-27.199219 60.636719-60.632812c0-33.4375-27.199219-60.636719-60.636719-60.636719zm0 0"/></g></svg>