<svg viewBox="0 0 512 512" xmlns="http://www.w3.org/2000/svg" xmlns:xlink="http://www.w3.org/1999/xlink"><linearGradient id="a" gradientUnits="userSpaceOnUse" x1="9.5%" x2="100%" y1="13%" y2="68%"><stop offset="0" stop-color="#21ffff"/><stop offset="0.8" stop-color="#1190cb"/></linearGradient><path d="m512 256c0 141.386719-114.613281 256-256 256s-256-114.613281-256-256 114.613281-256 256-256 256 114.613281 256 256zm0 0" fill="url(#a)"/><g fill="#fff"><path d="m340.117188 213.894531 66.304687 79.097657c3.9375 4.78125 10.613281 6.644531 16.457031 4.640624 5.972656-2.050781 10.121094-7.851562 10.121094-14.175781v-123.558593c0-30.980469-25.203125-56.1875-56.1875-56.1875h-241.625c-30.980469 0-56.1875 25.203124-56.1875 56.1875v192.203124c0 30.980469 25.203125 56.1875 56.1875 56.1875h130.082031.007813.011718 111.523438c30.984375 0 56.1875-25.207031 56.1875-56.1875 0-8.285156-6.714844-15-15-15-8.28125 0-15 6.714844-15 15 0 14.4375-11.746094 26.1875-26.1875 26.1875h-104.167969l-30.582031-39.671874zm-204.929688 164.394531c-14.441406 0-26.1875-11.75-26.1875-26.1875v-192.203124c0-14.4375 11.746094-26.1875 26.1875-26.1875h241.625c14.441406 0 26.1875 11.746093 26.1875 26.1875v82.316406l-51.757812-61.75c-2.902344-3.464844-7.203126-5.445313-11.730469-5.363282-4.519531.074219-8.765625 2.175782-11.558594 5.726563l-104.78125 133.28125-34.917969-45.300781c-2.839844-3.683594-7.230468-5.839844-11.882812-5.839844 0 0-.003906 0-.007813 0-4.652343 0-9.042969 2.164062-11.878906 5.851562l-30.214844 39.277344c-5.050781 6.566406-3.824219 15.984375 2.742188 21.035156 6.566406 5.054688 15.984375 3.824219 21.035156-2.742187l18.339844-23.835937 58.378906 75.734374zm0 0"/><path d="m176.371094 238.050781c23.414062 0 42.457031-19.046875 42.457031-42.457031 0-23.414062-19.042969-42.457031-42.457031-42.457031-23.410156 0-42.457032 19.042969-42.457032 42.457031 0 23.410156 19.046876 42.457031 42.457032 42.457031zm0-54.914062c6.871094 0 12.457031 5.585937 12.457031 12.457031s-5.585937 12.457031-12.457031 12.457031c-6.867188 0-12.457032-5.585937-12.457032-12.457031s5.589844-12.457031 12.457032-12.457031zm0 0"/></g></svg>