<svg viewBox="0 0 512 512" xmlns="http://www.w3.org/2000/svg" xmlns:xlink="http://www.w3.org/1999/xlink"><linearGradient id="a" gradientUnits="userSpaceOnUse" x1="9.5%" x2="100%" y1="13%" y2="68%"><stop offset="0" stop-color="#21ffff"/><stop offset="0.8" stop-color="#1190cb"/></linearGradient><path d="m512 256c0 141.386719-114.613281 256-256 256s-256-114.613281-256-256 114.613281-256 256-256 256 114.613281 256 256zm0 0" fill="url(#a)"/><path d="m256 56c-.210938 0-.417969.007812-.625.007812-.054688 0-.105469-.007812-.160156-.007812-.085938 0-.175782.011719-.261719.011719-109.800781.570312-198.953125 90.058593-198.953125 199.988281 0 110.28125 89.71875 200 200 200 36.570312 0 72.355469-9.96875 103.484375-28.824219 7.085937-4.289062 9.351563-13.515625 5.058594-20.601562-4.292969-7.085938-13.515625-9.351563-20.601563-5.054688-26.4375 16.015625-56.847656 24.480469-87.941406 24.480469-93.738281 0-170-76.261719-170-170 0-88.414062 67.851562-161.269531 154.214844-169.261719v169.261719c0 8.285156 6.71875 15 15 15h170.113281c-2.519531 28.199219-12.125 55.375-28.152344 79.355469-4.605469 6.886719-2.753906 16.203125 4.132813 20.804687 6.886718 4.605469 16.203125 2.753906 20.804687-4.132812 22.167969-33.160156 33.886719-71.550782 33.886719-111.027344 0-110.28125-89.71875-200-200-200zm169.332031 185h-44.710937l37.179687-37.175781c3.835938 11.878906 6.402344 24.324219 7.53125 37.175781zm-20.34375-66.792969-66.792969 66.792969h-47.378906l94.832032-94.828125c7.335937 8.648437 13.828124 18.035156 19.339843 28.035156zm-134.773437-1.667969 66.261718-66.25c9.910157 5.347657 19.230469 11.652344 27.839844 18.785157l-94.101562 94.101562zm0-42.421874v-43.515626c12.574218 1.042969 24.769531 3.457032 36.421875 7.101563zm0 0" fill="#fff"/></svg>