<svg viewBox="0 0 512 512" xmlns="http://www.w3.org/2000/svg" xmlns:xlink="http://www.w3.org/1999/xlink"><linearGradient id="a" gradientUnits="userSpaceOnUse" x1="9.5%" x2="100%" y1="13%" y2="68%"><stop offset="0" stop-color="#21ffff"/><stop offset="0.8" stop-color="#1190cb"/></linearGradient><path d="m512 256c0 141.386719-114.613281 256-256 256s-256-114.613281-256-256 114.613281-256 256-256 256 114.613281 256 256zm0 0" fill="url(#a)"/><g fill="#fff"><path d="m430.503906 195.671875c-5.578125-6.125-15.0625-6.570313-21.191406-.996094-6.125 5.578125-6.574219 15.0625-.996094 21.191407.664063.726562 2.683594 2.949218 2.683594 9.113281 0 7.164062-2.699219 9.628906-5.34375 11.09375-3.09375 1.714843-6.859375 2.191406-8.128906 2.238281h-9.273438c-5.898437-27.175781-20.292968-49.816406-42.488281-66.429688-9.96875-7.464843-21.351563-13.589843-33.921875-18.324218 5.269531-9.25 8.140625-19.8125 8.140625-30.628906 0-34.085938-27.734375-61.820313-61.824219-61.820313s-61.820312 27.734375-61.820312 61.820313c0 3.105468.25 6.1875.707031 9.226562-16.222656-13.300781-36.132813-20.601562-58.695313-21.335938-5.367187-.144531-10.460937 2.570313-13.277343 7.175782-2.816407 4.605468-2.933594 10.382812-.320313 15.105468.109375.199219 10.070313 18.378907 13.910156 39.769532-14.460937 13.507812-21.3125 28.675781-26.492187 40.144531-1.855469 4.105469-4.324219 9.578125-5.949219 11.613281h-20.222656c-8.285156 0-15 6.714844-15 15v57.625c0 8.285156 6.714844 15 15 15h14.65625c7.984375 18.457032 20.480469 34.675782 36.769531 47.726563l-4.605469 11.171875c-9.210937 22.335937 1.46875 48 23.804688 57.207031 10.820312 4.460937 22.730469 4.441406 33.53125-.054687 10.808594-4.496094 19.210938-12.933594 23.671875-23.75l4.996094-12.117188c7.089843.808594 14.300781 1.214844 21.554687 1.214844h.984375c11.496094 0 22.65625-.796875 33.328125-2.371094l5.46875 13.273438c4.460938 10.816406 12.871094 19.253906 23.675782 23.75 5.421874 2.257812 11.125 3.386718 16.832031 3.386718 5.65625 0 11.3125-1.109375 16.699219-3.332031 22.335937-9.207031 33.015624-34.871094 23.804687-57.207031l-10.460937-25.371094c-3.15625-7.660156-11.925782-11.3125-19.582032-8.148438-7.660156 3.15625-11.308594 11.925782-8.152344 19.582032l10.460938 25.375c1.40625 3.410156 1.402344 7.164062-.015625 10.570312s-4.078125 6.058594-7.488281 7.464844c-7.042969 2.898438-15.132813-.464844-18.039063-7.507812l-10.078125-24.449219c-2.761718-6.695313-9.90625-10.460938-17-8.953125-12.246094 2.613281-25.519531 3.9375-39.453125 3.9375h-.984375c-9.625 0-19.132812-.84375-28.257812-2.515625-6.964844-1.273438-13.867188 2.496093-16.566406 9.039062l-9.460938 22.941407c-2.902344 7.042968-10.996094 10.40625-18.035156 7.507812-7.042969-2.902344-10.410156-10.992188-7.507813-18.035156l9.09375-22.054688c2.734375-6.628906.394531-14.265625-5.582031-18.222656-18.8125-12.464844-32.234375-29.660156-38.820312-49.734375-2.019532-6.15625-7.769532-10.324219-14.253907-10.324219h-9.988281v-27.625h6.121094c19.175781 0 26.503906-16.226562 32.390625-29.265625 5.144531-11.386719 10.972656-24.289062 24.277343-34.5 4.121094-3.164062 6.3125-8.230469 5.796876-13.398437-1.140626-11.339844-3.871094-22.164063-6.90625-31.367188 10.875 4.574219 20.144531 12.085938 27.707031 22.472656 3.367187 4.617188 9.058593 6.925782 14.6875 5.949219 10.453125-1.8125 22.332031-2.730469 35.304687-2.730469h.984375c28.136719 0 119.933594 6.917969 119.933594 95.933594 0 8.011719-.773437 15.683594-2.292969 22.796875-1.730468 8.101563 3.433594 16.074219 11.535156 17.804688 8.097657 1.730469 16.070313-3.433594 17.804688-11.535157 1.917969-8.988281 2.90625-18.566406 2.945312-28.472656h6.375c17.421876 0 43.332032-11.539062 43.332032-43.332031.003906-11.632813-3.625-21.765625-10.492188-29.3125zm-190.125-53.886719c-2.625 0-5.214844.039063-7.765625.105469-4.054687-5.460937-6.273437-12.113281-6.273437-18.960937 0-17.546876 14.273437-31.820313 31.820312-31.820313s31.824219 14.273437 31.824219 31.820313c0 8.433593-3.203125 16.261718-9.054687 22.234374-12.453126-2.234374-25.683594-3.378906-39.566407-3.378906zm0 0"/><path d="m181.804688 246.828125c0 7.957031-6.449219 14.40625-14.40625 14.40625-7.957032 0-14.40625-6.449219-14.40625-14.40625s6.449218-14.40625 14.40625-14.40625c7.957031 0 14.40625 6.449219 14.40625 14.40625zm0 0"/></g></svg>