<svg viewBox="0 0 512 512" xmlns="http://www.w3.org/2000/svg" xmlns:xlink="http://www.w3.org/1999/xlink"><linearGradient id="a" gradientUnits="userSpaceOnUse" x1="9.5%" x2="100%" y1="13%" y2="68%"><stop offset="0" stop-color="#21ffff"/><stop offset="0.8" stop-color="#1190cb"/></linearGradient><path d="m512 256c0 141.386719-114.613281 256-256 256s-256-114.613281-256-256 114.613281-256 256-256 256 114.613281 256 256zm0 0" fill="url(#a)"/><g fill="#fff"><path d="m256 313.332031c-53.65625 0-97.308594-43.652343-97.308594-97.3125 0-53.65625 43.652344-97.308593 97.308594-97.308593s97.308594 43.652343 97.308594 97.308593c0 9.523438-1.375 18.9375-4.085938 27.988281-2.378906 7.9375-10.742187 12.441407-18.675781 10.0625-7.9375-2.378906-12.441406-10.742187-10.0625-18.675781 1.875-6.253906 2.824219-12.773437 2.824219-19.375 0-37.113281-30.195313-67.308593-67.308594-67.308593-37.117188 0-67.3125 30.195312-67.3125 67.308593 0 37.117188 30.195312 67.3125 67.3125 67.3125 6.28125 0 12.5-.863281 18.472656-2.5625 7.972656-2.269531 16.265625 2.351563 18.535156 10.320313 2.269532 7.964844-2.355468 16.265625-10.320312 18.53125-8.644531 2.460937-17.625 3.710937-26.6875 3.710937zm0 0"/><path d="m260.703125 456h-9.40625c-5.144531 0-9.929687-2.636719-12.679687-6.984375-17.21875-27.238281-38.753907-50.828125-59.585938-73.636719-21.199219-23.21875-41.226562-45.148437-56.625-70.253906-17.75-28.949219-26.394531-58.144531-26.425781-89.257812.101562-88.167969 71.886719-159.867188 160.019531-159.867188s159.917969 71.699219 160.019531 159.832031c-.03125 31.148438-8.675781 60.34375-26.425781 89.289063-15.398438 25.109375-35.425781 47.039062-56.625 70.257812-20.832031 22.808594-42.367188 46.394532-59.585938 73.636719-2.75 4.347656-7.535156 6.984375-12.679687 6.984375zm-4.703125-370c-71.609375 0-129.9375 58.257812-130.019531 129.867188.054687 56.984374 34.878906 95.121093 75.207031 139.28125 18.691406 20.46875 37.929688 41.542968 54.8125 65.820312 16.878906-24.277344 36.121094-45.351562 54.8125-65.820312 40.324219-44.160157 75.148438-82.296876 75.207031-139.3125-.082031-71.578126-58.410156-129.835938-130.019531-129.835938zm0 0"/></g></svg>