<svg viewBox="0 0 512 512" xmlns="http://www.w3.org/2000/svg" xmlns:xlink="http://www.w3.org/1999/xlink"><linearGradient id="a" gradientUnits="userSpaceOnUse" x1="9.5%" x2="100%" y1="13%" y2="68%"><stop offset="0" stop-color="#21ffff"/><stop offset="0.8" stop-color="#1190cb"/></linearGradient><path d="m512 256c0 141.386719-114.613281 256-256 256s-256-114.613281-256-256 114.613281-256 256-256 256 114.613281 256 256zm0 0" fill="url(#a)"/><g fill="#fff"><path d="m257 256.515625c-37.664062 0-68.304688-30.640625-68.304688-68.304687 0-37.664063 30.640626-68.304688 68.304688-68.304688s68.304688 30.640625 68.304688 68.304688c0 3.707031-.300782 7.429687-.894532 11.058593-1.332031 8.175781-9.046875 13.714844-17.21875 12.390625-8.175781-1.332031-13.722656-9.042968-12.390625-17.21875.335938-2.039062.503907-4.136718.503907-6.230468 0-21.121094-17.183594-38.304688-38.304688-38.304688s-38.304688 17.183594-38.304688 38.304688c0 21.125 17.183594 38.308593 38.304688 38.308593 1.738281 0 3.488281-.117187 5.191406-.347656 8.214844-1.105469 15.765625 4.644531 16.875 12.855469 1.109375 8.207031-4.644531 15.761718-12.855468 16.871094-3.03125.410156-6.128907.617187-9.210938.617187zm0 0"/><path d="m257 375.371094c-5.144531 0-9.929688-2.636719-12.679688-6.984375-13.128906-20.769531-30.125-39.011719-46.5625-56.652344-32.40625-34.78125-65.917968-70.746094-65.972656-124.226563.039063-33.558593 13.0625-64.90625 36.667969-88.3125 23.539063-23.339843 54.988281-36.195312 88.546875-36.195312 33.578125 0 65.136719 12.835938 88.859375 36.144531 23.867187 23.457031 37.035156 54.824219 37.074219 88.328125-.054688 53.429688-33.730469 89.328125-66.296875 124.050782-16.605469 17.703124-33.777344 36.011718-46.957031 56.863281-2.75 4.347656-7.535157 6.984375-12.679688 6.984375zm0-282.371094c-53.328125 0-95.152344 41.511719-95.210938 94.507812.039063 41.65625 26.859376 70.441407 57.917969 103.773438 12.625 13.550781 25.5625 27.433594 37.300781 42.890625 11.855469-15.566406 24.960938-29.539063 37.75-43.171875 31.195313-33.257812 58.132813-61.980469 58.175782-103.523438-.0625-52.082031-43.097656-94.476562-95.933594-94.476562zm0 0"/><path d="m257 433c-38.820312 0-75.503906-4.195312-103.289062-11.8125-34.621094-9.492188-52.175782-23.519531-52.175782-41.695312 0-20.796876 23.1875-36.054688 68.917969-45.34375 8.117187-1.65625 16.035156 3.59375 17.6875 11.710937 1.648437 8.117187-3.59375 16.035156-11.710937 17.6875-28.03125 5.695313-40.097657 12.5-43.917969 15.976563 3.367187 3.121093 13.359375 9.085937 35.824219 14.445312 24.429687 5.820312 55.917968 9.03125 88.664062 9.03125s64.234375-3.210938 88.664062-9.03125c22.464844-5.359375 32.457032-11.324219 35.824219-14.445312-3.820312-3.476563-15.886719-10.28125-43.917969-15.976563-8.117187-1.648437-13.359374-9.566406-11.710937-17.6875 1.648437-8.117187 9.570313-13.363281 17.6875-11.710937 45.730469 9.289062 68.917969 24.546874 68.917969 45.34375 0 18.175781-17.554688 32.203124-52.175782 41.695312-27.785156 7.617188-64.46875 11.8125-103.289062 11.8125zm125.765625-52.011719h.011719zm0 0"/></g></svg>