<svg viewBox="0 0 512 512" xmlns="http://www.w3.org/2000/svg" xmlns:xlink="http://www.w3.org/1999/xlink"><linearGradient id="a" gradientUnits="userSpaceOnUse" x1="9.5%" x2="100%" y1="13%" y2="68%"><stop offset="0" stop-color="#21ffff"/><stop offset="0.8" stop-color="#1190cb"/></linearGradient><path d="m512 256c0 141.386719-114.613281 256-256 256s-256-114.613281-256-256 114.613281-256 256-256 256 114.613281 256 256zm0 0" fill="url(#a)"/><g fill="#fff"><path d="m256.785156 271c-8.285156 0-15-6.714844-15-15v-185c0-8.285156 6.714844-15 15-15 8.28125 0 15 6.714844 15 15v185c0 8.285156-6.71875 15-15 15zm0 0"/><path d="m409.628906 373.691406c-2.863281 0-5.761718-.820312-8.320312-2.53125-6.886719-4.605468-8.738282-13.921875-4.132813-20.808594 18.855469-28.203124 28.824219-60.832031 28.824219-94.351562 0-70.789062-44.871094-134.75-111.652344-159.152344-7.78125-2.84375-11.785156-11.457031-8.941406-19.238281s11.457031-11.785156 19.238281-8.9375c38.160157 13.941406 70.800781 38.753906 94.390625 71.75 24.183594 33.820313 36.964844 73.785156 36.964844 115.578125 0 39.476562-11.71875 77.871094-33.886719 111.027344-2.890625 4.328125-7.644531 6.664062-12.484375 6.664062zm0 0"/><path d="m256 456c-110.28125 0-200-89.71875-200-200 0-42.121094 12.957031-82.371094 37.472656-116.398438 23.949219-33.246093 57-58.0625 95.578125-71.761718 7.808594-2.773438 16.382813 1.308594 19.15625 9.113281 2.773438 7.808594-1.308593 16.382813-9.113281 19.15625-67.644531 24.023437-113.09375 88.277344-113.09375 159.890625 0 93.738281 76.261719 170 170 170 31.09375 0 61.503906-8.464844 87.941406-24.480469 7.085938-4.296875 16.308594-2.03125 20.601563 5.054688 4.292969 7.085937 2.027343 16.3125-5.058594 20.601562-31.128906 18.855469-66.910156 28.824219-103.484375 28.824219zm0 0"/></g></svg>