<svg viewBox="0 0 512 512" xmlns="http://www.w3.org/2000/svg" xmlns:xlink="http://www.w3.org/1999/xlink"><linearGradient id="a" gradientUnits="userSpaceOnUse" x1="9.5%" x2="100%" y1="13%" y2="68%"><stop offset="0" stop-color="#21ffff"/><stop offset="0.8" stop-color="#1190cb"/></linearGradient><path d="m512 256c0 141.386719-114.613281 256-256 256s-256-114.613281-256-256 114.613281-256 256-256 256 114.613281 256 256zm0 0" fill="url(#a)"/><g fill="#fff"><path d="m426 296.933594c8.285156 0 15-6.71875 15-15v-30.976563c0-32.101562-26.117188-58.21875-58.222656-58.21875h-21.734375v-106.738281c0-8.285156-6.71875-15-15-15h-180.085938c-8.28125 0-15 6.714844-15 15v106.738281h-21.734375c-32.105468 0-58.222656 26.117188-58.222656 58.21875v103.007813c0 32.105468 26.117188 58.222656 58.222656 58.222656h21.734375v13.8125c0 8.285156 6.71875 15 15 15h180.085938c8.28125 0 15-6.714844 15-15v-13.8125h21.734375c32.105468 0 58.222656-26.117188 58.222656-58.21875 0-8.285156-6.714844-15-15-15s-15 6.714844-15 15c0 15.558594-12.660156 28.21875-28.222656 28.21875h-21.734375v-58.601562h7.328125c8.285156 0 15-6.71875 15-15 0-8.285157-6.714844-15-15-15h-224.742188c-8.285156 0-15 6.714843-15 15 0 8.28125 6.714844 15 15 15h7.328125v58.601562h-21.734375c-15.5625 0-28.222656-12.660156-28.222656-28.21875v-103.011719c0-15.558593 12.660156-28.21875 28.222656-28.21875h253.558594c15.558594 0 28.21875 12.660157 28.21875 28.21875v30.976563c0 8.28125 6.714844 15 15 15zm-94.957031 26.652344v87.414062h-150.085938v-87.414062zm-150.085938-222.585938h150.085938v91.738281h-150.085938zm0 0"/><path d="m389.261719 258.160156c0 7.957032-6.449219 14.40625-14.40625 14.40625s-14.40625-6.449218-14.40625-14.40625c0-7.957031 6.449219-14.40625 14.40625-14.40625s14.40625 6.449219 14.40625 14.40625zm0 0"/><path d="m223.585938 383.371094h64.828124c8.285157 0 15-6.714844 15-15 0-8.28125-6.714843-15-15-15h-64.828124c-8.285157 0-15 6.71875-15 15 0 8.285156 6.714843 15 15 15zm0 0"/></g></svg>