<svg viewBox="0 0 512 512" xmlns="http://www.w3.org/2000/svg" xmlns:xlink="http://www.w3.org/1999/xlink"><linearGradient id="a" gradientUnits="userSpaceOnUse" x1="9.5%" x2="100%" y1="13%" y2="68%"><stop offset="0" stop-color="#21ffff"/><stop offset="0.8" stop-color="#1190cb"/></linearGradient><path d="m512 256c0 141.386719-114.613281 256-256 256s-256-114.613281-256-256 114.613281-256 256-256 256 114.613281 256 256zm0 0" fill="url(#a)"/><path d="m444.605469 177.222656-109.828125-109.828125c-5.855469-5.859375-15.355469-5.859375-21.214844 0-6.59375 6.59375-9.714844 18.046875-14.4375 35.390625-5.4375 19.960938-12.886719 47.304688-25.832031 60.25-8.160157 8.160156-26.269531 8.875-45.4375 9.636719-25.335938 1.003906-54.046875 2.140625-73.546875 21.640625-5.855469 5.855469-5.855469 15.351562 0 21.210938l61.117187 61.117187-115.972656 114.695313c-5.890625 5.824218-5.941406 15.320312-.117187 21.210937 2.933593 2.964844 6.796874 4.453125 10.667968 4.453125 3.808594 0 7.621094-1.445312 10.546875-4.335938l116.089844-114.8125 59.835937 59.835938c2.929688 2.929688 6.765626 4.394531 10.605469 4.394531 3.839844 0 7.679688-1.464843 10.605469-4.394531 17.5-17.496094 20.136719-42.25 21.230469-64.082031.417969-8.273438-5.953125-15.316407-14.226563-15.734375-8.289062-.425782-15.320312 5.957031-15.734375 14.230468-.617187 12.257813-1.785156 22.703126-4.621093 31.019532l-115.445313-115.445313c11.363281-3.890625 25.921875-4.464843 40.148437-5.027343 24.09375-.957032 49.007813-1.941407 65.464844-18.398438 18.585938-18.585938 27.242188-50.371094 33.566406-73.582031.507813-1.867188 1.058594-3.886719 1.625-5.929688l77.5625 77.566407c-2.039062.566406-4.0625 1.117187-5.929687 1.625-23.207031 6.324218-54.992187 14.980468-73.578125 33.566406-5.859375 5.855468-5.859375 15.355468 0 21.210937 5.855469 5.859375 15.355469 5.859375 21.214844 0 12.945312-12.945312 40.289062-20.394531 60.25-25.832031 17.339844-4.722656 28.796875-7.84375 35.390625-14.4375 5.859375-5.859375 5.859375-15.355469 0-21.214844zm0 0" fill="#fff"/></svg>