<svg viewBox="0 0 512 512" xmlns="http://www.w3.org/2000/svg" xmlns:xlink="http://www.w3.org/1999/xlink"><linearGradient id="a" gradientUnits="userSpaceOnUse" x1="9.5%" x2="100%" y1="13%" y2="68%"><stop offset="0" stop-color="#21ffff"/><stop offset="0.8" stop-color="#1190cb"/></linearGradient><path d="m512 256c0 141.386719-114.613281 256-256 256s-256-114.613281-256-256 114.613281-256 256-256 256 114.613281 256 256zm0 0" fill="url(#a)"/><path d="m353.8125 415.15625h-39.8125c-6.867188 0-13.417969-3.289062-17.519531-8.792969-4.113281-5.519531-5.390625-12.757812-3.421875-19.359375 5.328125-17.851562 7.3125-31.722656 7.3125-36.269531 0-12.925781-10.515625-23.441406-23.4375-23.441406-12.925782 0-23.441406 10.515625-23.441406 23.441406 0 4.546875 1.984374 18.414063 7.3125 36.273437 1.972656 6.597657.691406 13.835938-3.421876 19.355469-4.101562 5.507813-10.648437 8.792969-17.519531 8.792969h-39.8125c-30.980469 0-56.1875-25.203125-56.1875-56.1875v-36.738281c-14.246093 3.472656-27.019531 5.058593-34.425781 5.058593-29.464844 0-53.4375-23.972656-53.4375-53.4375 0-29.46875 23.972656-53.441406 53.4375-53.441406 7.847656 0 20.679688 2.152344 34.425781 5.675782v-20.191407c0-30.984375 25.203125-56.1875 56.1875-56.1875h29.113281c-3.523437-13.75-5.675781-26.582031-5.675781-34.425781 0-29.464844 23.976563-53.4375 53.441407-53.4375 29.464843 0 53.441406 23.972656 53.441406 53.4375 0 7.847656-2.152344 20.679688-5.675782 34.425781h29.117188c30.980469 0 56.183594 25.203125 56.183594 56.1875v83.746094c0 8.28125-6.714844 15-15 15-8.28125 0-15-6.71875-15-15v-83.746094c0-14.441406-11.746094-26.1875-26.183594-26.1875h-39.816406c-6.867188 0-13.417969-3.289062-17.519532-8.792969-4.113281-5.519531-5.390624-12.757812-3.417968-19.359374 5.324218-17.851563 7.3125-31.722657 7.3125-36.273438 0-12.921875-10.515625-23.4375-23.441406-23.4375-12.921876 0-23.441407 10.515625-23.441407 23.4375 0 4.550781 1.988281 18.417969 7.316407 36.273438 1.96875 6.601562.6875 13.839843-3.421876 19.359374-4.105468 5.503907-10.652343 8.792969-17.519531 8.792969h-39.8125c-14.441406 0-26.1875 11.746094-26.1875 26.1875v30.886719c0 6.871094-3.289062 13.417969-8.792969 17.523438-5.519531 4.109374-12.757812 5.390624-19.359374 3.417968-17.855469-5.328125-31.722657-7.3125-36.273438-7.3125-12.921875 0-23.4375 10.515625-23.4375 23.441406 0 12.925782 10.515625 23.4375 23.4375 23.4375 5.652344 0 19.972656-1.765624 36.273438-6.628906 6.601562-1.972656 13.839843-.691406 19.359374 3.421875 5.503907 4.101563 8.792969 10.652344 8.792969 17.519531v47.367188c0 14.4375 11.746094 26.1875 26.1875 26.1875h29.113281c-3.523437-13.75-5.675781-26.582031-5.675781-34.425781 0-29.464844 23.976563-53.441407 53.441407-53.441407 29.464843 0 53.4375 23.976563 53.4375 53.441407 0 7.847656-2.148438 20.679687-5.671876 34.425781h29.113282c14.441406 0 26.1875-11.746094 26.1875-26.1875 0-8.285156 6.71875-15 15-15 8.285156 0 15 6.714844 15 15 .003906 30.980469-25.203125 56.1875-56.183594 56.1875zm0 0" fill="#fff"/></svg>