<svg viewBox="0 0 512 512" xmlns="http://www.w3.org/2000/svg" xmlns:xlink="http://www.w3.org/1999/xlink"><linearGradient id="a" gradientUnits="userSpaceOnUse" x1="9.5%" x2="100%" y1="13%" y2="68%"><stop offset="0" stop-color="#21ffff"/><stop offset="0.8" stop-color="#1190cb"/></linearGradient><path d="m512 256c0 141.386719-114.613281 256-256 256s-256-114.613281-256-256 114.613281-256 256-256 256 114.613281 256 256zm0 0" fill="url(#a)"/><g fill="#fff"><path d="m322.515625 409.035156c-20.257813 11.097656-43.257813 16.964844-66.515625 16.964844-76.449219 0-138.644531-62.195312-138.644531-138.648438 0-8.28125-6.714844-14.996093-15-14.996093-8.285157 0-15 6.714843-15 15 0 92.992187 75.652343 168.644531 168.644531 168.644531 28.285156 0 56.269531-7.140625 80.929688-20.65625 7.265624-3.980469 9.925781-13.097656 5.949218-20.363281-3.980468-7.261719-13.097656-9.925781-20.363281-5.945313zm0 0"/><path d="m256 118.710938h-59.054688l36.789063-37.15625c5.828125-5.886719 5.78125-15.382813-.105469-21.214844-5.886718-5.828125-15.382812-5.78125-21.210937.105468l-40.292969 40.695313c-17.742188 17.917969-17.84375 47.175781-.230469 65.21875l39.578125 40.542969c2.9375 3.011718 6.835938 4.523437 10.734375 4.523437 3.777344 0 7.558594-1.421875 10.476563-4.269531 5.929687-5.785156 6.042968-15.285156.253906-21.210938l-36.347656-37.234374h59.410156c76.449219 0 138.644531 62.195312 138.644531 138.644531 0 23.96875-6.207031 47.582031-17.957031 68.292969-4.085938 7.207031-1.558594 16.359374 5.648438 20.449218 2.335937 1.324219 4.878906 1.953125 7.386718 1.953125 5.222656 0 10.300782-2.734375 13.0625-7.601562 14.300782-25.214844 21.859375-53.945313 21.859375-83.09375 0-92.992188-75.652343-168.644531-168.644531-168.644531zm0 0"/></g></svg>