<?xml version="1.0" encoding="utf-8"?>
<!-- Generator: Adobe Illustrator 16.0.0, SVG Export Plug-In . SVG Version: 6.00 Build 0)  -->
<!DOCTYPE svg PUBLIC "-//W3C//DTD SVG 1.1//EN" "http://www.w3.org/Graphics/SVG/1.1/DTD/svg11.dtd">
<svg version="1.1" id="Capa_1" xmlns="http://www.w3.org/2000/svg" xmlns:xlink="http://www.w3.org/1999/xlink" x="0px" y="0px"
	 width="127.559px" height="127.559px" viewBox="-99.279 283.721 127.559 127.559"
	 enable-background="new -99.279 283.721 127.559 127.559" xml:space="preserve">
<g>
	<polygon fill="#eeeeee" points="7.02,297.87 -35.5,297.87 -39.982,351.031 -35.5,404.192 7.02,404.192 	"/>
	<rect x="-78.02" y="297.87" fill="#eeeeee" width="42.52" height="106.324"/>
	<polygon fill="#bbbbbb" points="-7.262,290.808 -35.5,290.808 -39.982,297.87 -35.5,304.933 -7.262,304.933 	"/>
	<rect x="-63.738" y="290.808" fill="#d3d3d3" width="28.238" height="14.125"/>
	<g>
		<polygon fill="#21ffff" points="-3.691,322.8 -35.5,322.8 -37.741,326.122 -35.5,329.443 -3.691,329.443 		"/>
		<polygon fill="#21ffff" points="-3.691,339.28 -35.5,339.28 -37.741,342.602 -35.5,345.923 -3.691,345.923 		"/>
		<polygon fill="#21ffff" points="-3.691,355.759 -35.5,355.759 -37.741,359.081 -35.5,362.403 -3.691,362.403 		"/>
		<polygon fill="#21ffff" points="-3.691,372.239 -35.5,372.239 -37.741,375.562 -35.5,378.884 -3.691,378.884 		"/>
	</g>
	<g>
		<rect x="-67.308" y="322.8" fill="#1190cb" width="7.141" height="6.644"/>
		<rect x="-67.308" y="339.28" fill="#1190cb" width="7.141" height="6.643"/>
		<rect x="-67.308" y="355.76" fill="#1190cb" width="7.141" height="6.644"/>
		<rect x="-67.308" y="372.239" fill="#1190cb" width="7.141" height="6.643"/>
		<rect x="-53.026" y="322.8" fill="#1190cb" width="17.526" height="6.644"/>
		<rect x="-53.026" y="339.28" fill="#1190cb" width="17.526" height="6.643"/>
		<rect x="-53.026" y="355.76" fill="#1190cb" width="17.526" height="6.644"/>
		<rect x="-53.026" y="372.239" fill="#1190cb" width="17.526" height="6.643"/>
	</g>
</g>
</svg>
