<svg viewBox="0 0 512 512" xmlns="http://www.w3.org/2000/svg" xmlns:xlink="http://www.w3.org/1999/xlink"><linearGradient id="a" gradientUnits="userSpaceOnUse" x1="9.5%" x2="100%" y1="13%" y2="68%"><stop offset="0" stop-color="#21ffff"/><stop offset="0.8" stop-color="#1190cb"/></linearGradient><path d="m512 256c0 141.386719-114.613281 256-256 256s-256-114.613281-256-256 114.613281-256 256-256 256 114.613281 256 256zm0 0" fill="url(#a)"/><g fill="#fff"><path d="m263.550781 375.996094h-141.617187c-5.335938 0-8.550782-2.976563-9.996094-4.75-2.496094-3.066406-3.460938-7.066406-2.648438-10.964844 14.132813-67.894531 74.046876-117.476562 143.214844-119.101562 1.160156.042968 2.324219.074218 3.496094.074218 1.164062 0 2.324219-.03125 3.480469-.074218 30.324219.6875 59.25 10.339843 83.867187 28.03125 6.730469 4.835937 16.101563 3.296874 20.933594-3.429688 4.835938-6.726562 3.300781-16.097656-3.425781-20.933594-14.339844-10.300781-29.890625-18.335937-46.261719-23.972656 21.933594-17.34375 36.035156-44.183594 36.035156-74.253906 0-52.175782-42.449218-94.625-94.628906-94.625s-94.628906 42.449218-94.628906 94.625c0 30.113281 14.140625 56.980468 36.125 74.324218-20.148438 6.929688-39.058594 17.40625-55.683594 31.082032-31.613281 26.003906-53.597656 62.277344-61.894531 102.136718-2.660157 12.777344.527343 25.902344 8.742187 36.007813 8.179688 10.058594 20.308594 15.824219 33.273438 15.824219h141.617187c8.285157 0 15-6.714844 15-15s-6.714843-15-15-15zm-72.179687-229.371094c0-35.636719 28.992187-64.628906 64.628906-64.628906s64.628906 28.992187 64.628906 64.628906c0 34.539062-27.238281 62.839844-61.363281 64.546875-1.085937-.019531-2.175781-.03125-3.265625-.03125-1.050781 0-2.101562.015625-3.148438.03125-34.179687-1.648437-61.480468-29.96875-61.480468-64.546875zm0 0"/><path d="m394.59375 346.378906 34.011719-34.011718c5.859375-5.855469 5.859375-15.355469 0-21.214844-5.855469-5.855469-15.355469-5.855469-21.210938 0l-34.011719 34.011718-34.015624-34.011718c-5.855469-5.855469-15.351563-5.855469-21.210938 0-5.859375 5.859375-5.859375 15.355468 0 21.214844l34.011719 34.011718-34.011719 34.011719c-5.859375 5.855469-5.859375 15.355469 0 21.214844 2.929688 2.925781 6.769531 4.390625 10.605469 4.390625 3.839843 0 7.679687-1.464844 10.605469-4.390625l34.011718-34.011719 34.011719 34.011719c2.929687 2.925781 6.769531 4.390625 10.605469 4.390625 3.839844 0 7.679687-1.464844 10.609375-4.390625 5.855469-5.859375 5.855469-15.355469 0-21.214844zm0 0"/></g></svg>