<svg viewBox="0 0 512 512" xmlns="http://www.w3.org/2000/svg" xmlns:xlink="http://www.w3.org/1999/xlink"><linearGradient id="a" gradientUnits="userSpaceOnUse" x1="9.5%" x2="100%" y1="13%" y2="68%"><stop offset="0" stop-color="#21ffff"/><stop offset="0.8" stop-color="#1190cb"/></linearGradient><path d="m512 256c0 141.386719-114.613281 256-256 256s-256-114.613281-256-256 114.613281-256 256-256 256 114.613281 256 256zm0 0" fill="url(#a)"/><g fill="#fff"><path d="m184.6875 322.144531c-3.847656 0-7.695312-1.472656-10.625-4.414062l-90.246094-90.554688c-8.257812-8.257812-12.816406-19.261719-12.816406-30.964843 0-11.703126 4.558594-22.703126 12.832031-30.980469l90.273438-89.863281c5.867187-5.84375 15.363281-5.820313 21.210937.050781 5.84375 5.871093 5.824219 15.367187-.046875 21.210937l-90.25 89.839844c-2.582031 2.585938-4.019531 6.054688-4.019531 9.742188s1.4375 7.15625 4.046875 9.765624l90.265625 90.578126c5.847656 5.867187 5.832031 15.367187-.039062 21.214843-2.925782 2.917969-6.757813 4.375-10.585938 4.375zm0 0"/><path d="m311.105469 441c-8.285157 0-15-6.714844-15-15s6.714843-15 15-15c55.082031 0 99.894531-44.8125 99.894531-99.894531s-44.8125-99.894531-99.894531-99.894531h-153.792969c-8.285156 0-15-6.714844-15-15 0-8.28125 6.714844-15 15-15h153.792969c71.625 0 129.894531 58.269531 129.894531 129.894531s-58.269531 129.894531-129.894531 129.894531zm0 0"/></g></svg>