<svg viewBox="0 0 512 512" xmlns="http://www.w3.org/2000/svg" xmlns:xlink="http://www.w3.org/1999/xlink"><linearGradient id="a" gradientUnits="userSpaceOnUse" x1="9.5%" x2="100%" y1="13%" y2="68%"><stop offset="0" stop-color="#21ffff"/><stop offset="0.8" stop-color="#1190cb"/></linearGradient><path d="m512 256c0 141.386719-114.613281 256-256 256s-256-114.613281-256-256 114.613281-256 256-256 256 114.613281 256 256zm0 0" fill="url(#a)"/><path d="m405 309.90625c8.28125 0 15-6.714844 15-15v-149.636719c0-18.058593-10.367188-33.570312-27.054688-40.480469-16.667968-6.898437-34.9375-3.273437-47.703124 9.464844l-95.242188 93.859375v-62.84375c0-18.058593-10.367188-33.570312-27.054688-40.480469-16.664062-6.898437-34.9375-3.273437-47.703124 9.464844l-112.339844 110.707032c-.023438.027343-.050782.054687-.078125.078124-17.070313 17.078126-17.070313 44.867188 0 61.949219.03125.027344.058593.058594.089843.089844l112.542969 110.691406c8.480469 8.460938 19.382813 12.902344 30.613281 12.898438 5.648438 0 11.378907-1.121094 16.929688-3.417969 16.652344-6.894531 26.996094-22.414062 26.996094-40.503906v-62.835938l95.238281 93.847656c8.519531 8.503907 19.476563 12.964844 30.773437 12.964844 5.6875 0 11.457032-1.128906 17.050782-3.445312 16.617187-6.878906 26.9375-22.335938 26.9375-40.335938 0-8.285156-6.714844-15-15-15-8.28125 0-15 6.714844-15 15 0 8.476563-6.441406 11.800782-8.414063 12.617188-2.011719.835937-9.050781 3.074218-15.167969-3.046875-.027343-.027344-.054687-.054688-.082031-.082031l-112.320312-110.683594c-5.34375-5.378906-5.339844-14.09375.003906-19.472656l112.316406-110.6875c.027344-.027344.054688-.054688.082031-.082032 6.054688-6.058594 13.054688-3.828125 15.054688-2.996094 2 .828126 8.53125 4.195313 8.53125 12.761719v149.636719c0 8.285156 6.714844 15 15 15zm-185 56.839844c0 8.609375-6.488281 11.964844-8.476562 12.785156-1.96875.816406-8.871094 3.011719-14.898438-3.019531-.03125-.03125-.058594-.0625-.089844-.089844l-112.527344-110.679687c-5.339843-5.378907-5.335937-14.09375.007813-19.46875l112.316406-110.6875c.027344-.027344.054688-.054688.082031-.082032 6.054688-6.058594 13.054688-3.828125 15.054688-2.996094 2 .828126 8.53125 4.195313 8.53125 12.761719zm0 0" fill="#fff"/></svg>