<svg viewBox="0 0 512 512" xmlns="http://www.w3.org/2000/svg" xmlns:xlink="http://www.w3.org/1999/xlink"><linearGradient id="a" gradientUnits="userSpaceOnUse" x1="9.5%" x2="100%" y1="13%" y2="68%"><stop offset="0" stop-color="#21ffff"/><stop offset="0.8" stop-color="#1190cb"/></linearGradient><path d="m512 256c0 141.386719-114.613281 256-256 256s-256-114.613281-256-256 114.613281-256 256-256 256 114.613281 256 256zm0 0" fill="url(#a)"/><g fill="#fff"><path d="m294.410156 430.914062c-3.832031 0-7.664062-1.457031-10.59375-4.378906-5.863281-5.851562-5.875-15.347656-.027344-21.214844l137.40625-137.742187c3.105469-3.101563 4.804688-7.210937 4.804688-11.578125s-1.699219-8.476562-4.789062-11.566406l-137.417969-137.753906c-5.851563-5.867188-5.839844-15.363282.023437-21.214844 5.867188-5.847656 15.363282-5.839844 21.214844.027344l137.40625 137.742187c8.742188 8.742187 13.5625 20.382813 13.5625 32.765625s-4.820312 24.023438-13.578125 32.777344l-137.390625 137.730468c-2.929688 2.9375-6.773438 4.40625-10.621094 4.40625zm0 0"/><path d="m355.554688 271h-284.554688c-8.285156 0-15-6.714844-15-15s6.714844-15 15-15h284.554688c8.285156 0 15 6.714844 15 15s-6.714844 15-15 15zm0 0"/></g></svg>