<svg viewBox="0 0 512 512" xmlns="http://www.w3.org/2000/svg" xmlns:xlink="http://www.w3.org/1999/xlink"><linearGradient id="a" gradientUnits="userSpaceOnUse" x1="9.5%" x2="100%" y1="13%" y2="68%"><stop offset="0" stop-color="#21ffff"/><stop offset="0.8" stop-color="#1190cb"/></linearGradient><path d="m512 256c0 141.386719-114.613281 256-256 256s-256-114.613281-256-256 114.613281-256 256-256 256 114.613281 256 256zm0 0" fill="url(#a)"/><path d="m204.40625 440.980469c-11.21875 0-22.4375-4.273438-30.976562-12.816407-8.277344-8.273437-12.835938-19.277343-12.835938-30.976562v-282.375c0-11.703125 4.558594-22.703125 12.835938-30.980469 17.082031-17.082031 44.875-17.082031 61.960937 0l141.183594 141.1875c17.082031 17.082031 17.082031 44.878907 0 61.960938l-91.277344 91.277343c-5.855469 5.859376-15.355469 5.859376-21.210937 0-5.859376-5.855468-5.859376-15.355468 0-21.210937l91.277343-91.277344c5.382813-5.386719 5.382813-14.152343 0-19.535156l-141.1875-141.1875c-5.386719-5.386719-14.148437-5.386719-19.535156 0-2.609375 2.609375-4.046875 6.078125-4.046875 9.765625v282.375c0 3.6875 1.4375 7.15625 4.046875 9.765625 5.386719 5.386719 14.148437 5.386719 19.535156 0 5.855469-5.855469 15.355469-5.855469 21.214844 0 5.855469 5.859375 5.855469 15.355469 0 21.214844-8.542969 8.539062-19.761719 12.8125-30.984375 12.8125zm0 0" fill="#fff"/></svg>