<svg viewBox="0 0 512 512" xmlns="http://www.w3.org/2000/svg" xmlns:xlink="http://www.w3.org/1999/xlink"><linearGradient id="a" gradientUnits="userSpaceOnUse" x1="9.5%" x2="100%" y1="13%" y2="68%"><stop offset="0" stop-color="#21ffff"/><stop offset="0.8" stop-color="#1190cb"/></linearGradient><path d="m512 256c0 141.386719-114.613281 256-256 256s-256-114.613281-256-256 114.613281-256 256-256 256 114.613281 256 256zm0 0" fill="url(#a)"/><g fill="#fff"><path d="m316.046875 170.816406-91.71875 51.738282c-2.421875 1.363281-4.414063 3.375-5.757813 5.808593l-49.386718 89.363281c-3.179688 5.761719-2.238282 12.921876 2.324218 17.660157 2.898438 3.007812 6.824219 4.597656 10.808594 4.597656 2.292969 0 4.605469-.523437 6.75-1.605469l87.777344-44.265625c5.867188-2.957031 8.328125-4.199219 10.535156-8.535156l49.339844-94.769531c3.066406-5.890625 1.898438-13.09375-2.875-17.710938-4.773438-4.613281-12.015625-5.542968-17.796875-2.28125zm-53.089844 96.703125c-8.070312 4.070313-26.289062 13.257813-44.015625 22.195313l23.828125-43.121094 44.003907-24.820312zm0 0"/><path d="m256 56c-110.28125 0-200 89.71875-200 200s89.71875 200 200 200c36.570312 0 72.355469-9.96875 103.484375-28.820312 7.085937-4.292969 9.351563-13.519532 5.058594-20.605469-4.292969-7.085938-13.515625-9.351563-20.601563-5.058594-12.640625 7.65625-26.191406 13.566406-40.285156 17.671875l-2.855469-14.0625c-1.648437-8.121094-9.5625-13.359375-17.6875-11.71875-8.117187 1.648438-13.363281 9.566406-11.714843 17.6875l2.828124 13.921875c-6.035156.644531-12.117187.984375-18.226562.984375-6 0-11.929688-.316406-17.769531-.925781l2.632812-13.800781c1.550781-8.136719-3.789062-15.992188-11.925781-17.546876-8.140625-1.546874-15.992188 3.785157-17.542969 11.921876l-2.609375 13.671874c-12.34375-3.574218-24.109375-8.511718-35.128906-14.640624l7.628906-11.386719c4.609375-6.882813 2.769532-16.199219-4.113281-20.808594-6.882813-4.613281-16.199219-2.769531-20.8125 4.113281l-7.539063 11.253906c-8.746093-7.125-16.78125-15.09375-23.960937-23.792968l11.035156-7.5c6.851563-4.65625 8.632813-13.984375 3.976563-20.835938-4.65625-6.851562-13.984375-8.632812-20.839844-3.976562l-11.160156 7.585937c-6.210938-11-11.230469-22.753906-14.886719-35.089843l13.109375-2.660157c8.117188-1.648437 13.363281-9.566406 11.714844-17.6875-1.648438-8.117187-9.566406-13.355469-17.6875-11.714843l-13.070313 2.65625c-.6875-6.1875-1.050781-12.46875-1.050781-18.835938 0-5.6875.285156-11.308594.835938-16.855469l13.105468 2.503907c.953125.179687 1.898438.265624 2.828125.265624 7.058594 0 13.347657-5.003906 14.71875-12.1875 1.550781-8.140624-3.785156-15.996093-11.921875-17.546874l-13.148437-2.507813c3.492187-12.3125 8.339843-24.054687 14.367187-35.0625l11.136719 7.460937c2.5625 1.71875 5.464844 2.539063 8.335937 2.539063 4.832032 0 9.582032-2.332031 12.472657-6.652344 4.613281-6.882812 2.773437-16.199219-4.109375-20.8125l-11.15625-7.472656c7.300781-9.082031 15.503906-17.410156 24.488281-24.824219l7.617187 11.207032c2.902344 4.273437 7.621094 6.574218 12.421876 6.574218 2.902343 0 5.835937-.84375 8.417968-2.597656 6.851563-4.65625 8.628906-13.984375 3.972656-20.835938l-7.699218-11.332031c10.730468-6.058593 22.175781-10.984375 34.183594-14.617187l2.765624 13.628906c1.445313 7.113281 7.699219 12.019531 14.683594 12.019531.992188 0 1.996094-.097656 3-.304687 8.121094-1.648438 13.367188-9.566406 11.714844-17.683594l-2.789062-13.753906c6.484374-.75 13.074218-1.152344 19.757812-1.152344 5.476562 0 10.886719.269531 16.230469.777344l-2.660157 13.949218c-1.550781 8.136719 3.785157 15.992188 11.921876 17.546876.949218.179687 1.898437.269531 2.828124.269531 7.058594 0 13.347657-5.003907 14.71875-12.191407l2.6875-14.09375c12.457032 3.480469 24.34375 8.347657 35.476563 14.425782l-8.054687 12.023437c-4.613282 6.882813-2.769532 16.199219 4.113281 20.8125 2.5625 1.714844 5.464843 2.539063 8.332031 2.539063 4.835938 0 9.582031-2.335938 12.476562-6.652344l8.089844-12.078125c9.203125 7.378906 17.628906 15.6875 25.125 24.789063l-11.207031 7.617187c-6.851563 4.65625-8.632813 13.984375-3.976563 20.835937 2.902344 4.273438 7.617188 6.570313 12.421876 6.570313 2.902343 0 5.835937-.839844 8.414062-2.59375l11.300781-7.679687c6.109375 10.851562 11.0625 22.4375 14.6875 34.589843l-14.585937 2.960938c-8.121094 1.648437-13.363282 9.566406-11.714844 17.6875 1.441406 7.109375 7.695312 12.015625 14.683594 12.015625.988281 0 1.992187-.097656 3-.300782l14.605468-2.964843c.707032 6.285156 1.085938 12.671875 1.085938 19.144531 0 5.746094-.300781 11.46875-.882812 17.144531l-14.628907-2.792969c-8.132812-1.542968-15.992187 3.785157-17.542969 11.925782-1.554687 8.136718 3.785157 15.992187 11.921876 17.542968l14.550781 2.777344c-3.535157 12.273438-8.476563 24.164063-14.753907 35.472656l-12.152343-8.140624c-6.882813-4.609376-16.199219-2.769532-20.8125 4.113281-4.609375 6.882812-2.769531 16.199219 4.113281 20.8125l23.445312 15.707031c1.65625 1.109375 3.457032 1.839844 5.300782 2.222656 6.332031 2.289063 13.644531.09375 17.554687-5.757812 22.167969-33.15625 33.886719-71.550782 33.886719-111.027344 0-110.28125-89.71875-200-200-200zm0 0"/></g></svg>