<svg viewBox="0 0 512 512" xmlns="http://www.w3.org/2000/svg" xmlns:xlink="http://www.w3.org/1999/xlink"><linearGradient id="a" gradientUnits="userSpaceOnUse" x1="9.5%" x2="100%" y1="13%" y2="68%"><stop offset="0" stop-color="#21ffff"/><stop offset="0.8" stop-color="#1190cb"/></linearGradient><path d="m512 256c0 141.386719-114.613281 256-256 256s-256-114.613281-256-256 114.613281-256 256-256 256 114.613281 256 256zm0 0" fill="url(#a)"/><path d="m416.160156 332.769531h-100.1875l40.234375-128.429687 27.382813 87.722656c2.003906 6.421875 7.921875 10.535156 14.3125 10.535156 1.480468 0 2.984375-.21875 4.472656-.683594 7.910156-2.46875 12.320312-10.878906 9.851562-18.789062l-41.785156-133.867188c-1.582031-5.070312-5.722656-8.921874-10.890625-10.136718l-67.597656-15.867188c-3.257813-14.347656-13.648437-26.019531-27.246094-31.050781v-19.226563c0-8.28125-6.714843-15-15-15-8.28125 0-15 6.71875-15 15v19.226563c-7.308593 2.707031-13.695312 7.332031-18.546875 13.261719l-70.855468-16.632813c-7.664063-1.800781-15.414063 2.632813-17.753907 10.148438l-59.386719 190.96875c-.84375 1.875-1.324218 3.953125-1.324218 6.148437 0 .070313.003906.140625.003906.214844-.003906.257812.011719.515625.019531.773438.535157 41.011718 34.042969 74.214843 75.183594 74.214843 41.46875 0 75.203125-33.734375 75.203125-75.203125 0-2.082031-.425781-4.066406-1.191406-5.867187l-52.0625-166.195313 42.410156 9.957032c.605469 23.367187 19.789062 42.199218 43.304688 42.199218 16.566406 0 30.988281-9.351562 38.273437-23.050781l49.207031 11.550781-55.417968 176.902344c-.25.792969-.410157 1.59375-.523438 2.390625-.316406 1.210937-.5 2.476563-.5 3.789063 0 41.46875 33.738281 75.207031 75.207031 75.207031s75.203125-33.738281 75.203125-75.207031c0-8.285157-6.714844-15.003907-15-15.003907zm-274.257812-178.90625 39.859375 127.230469h-79.425781zm.144531 187.4375c-19.675781 0-36.449219-12.628906-42.648437-30.207031h85.296874c-6.203124 17.578125-22.976562 30.207031-42.648437 30.207031zm107.660156-195.113281c-7.351562 0-13.332031-5.980469-13.332031-13.332031 0-7.351563 5.980469-13.332031 13.332031-13.332031 7.351563 0 13.332031 5.980468 13.332031 13.332031 0 7.351562-5.980468 13.332031-13.332031 13.332031zm106.246094 246.789062c-19.671875 0-36.449219-12.628906-42.648437-30.207031h85.296874c-6.199218 17.578125-22.976562 30.207031-42.648437 30.207031zm0 0" fill="#fff"/></svg>