<svg viewBox="0 0 512 512" xmlns="http://www.w3.org/2000/svg" xmlns:xlink="http://www.w3.org/1999/xlink"><linearGradient id="a" gradientUnits="userSpaceOnUse" x1="9.5%" x2="100%" y1="13%" y2="68%"><stop offset="0" stop-color="#21ffff"/><stop offset="0.8" stop-color="#1190cb"/></linearGradient><path d="m512 256c0 141.386719-114.613281 256-256 256s-256-114.613281-256-256 114.613281-256 256-256 256 114.613281 256 256zm0 0" fill="url(#a)"/><path d="m257 458.5c-46.148438 0-90.21875-21.183594-124.09375-59.648438-32.085938-36.425781-50.484375-84.019531-50.484375-130.574218v-123.59375c0-5.910156 3.472656-11.269532 8.863281-13.6875l158.796875-71.183594c3.886719-1.742188 8.328125-1.75 12.222657-.023438l160.359374 71.183594c5.417969 2.40625 8.914063 7.78125 8.914063 13.710938v123.59375c0 34.316406-9.765625 68.886718-28.234375 99.96875-4.230469 7.121094-13.4375 9.46875-20.558594 5.230468-7.121094-4.230468-9.464844-13.4375-5.230468-20.558593 15.714843-26.445313 24.023437-55.714844 24.023437-84.640625v-113.839844l-145.332031-64.511719-143.824219 64.472657v113.878906c0 83.855468 68.910156 160.222656 144.578125 160.222656 26.761719 0 52.921875-8.742188 75.652344-25.285156 6.699218-4.878906 16.082031-3.398438 20.957031 3.300781 4.875 6.695313 3.398437 16.078125-3.300781 20.953125-27.894532 20.300781-60.160156 31.03125-93.308594 31.03125zm0 0" fill="#fff"/></svg>