<svg viewBox="0 0 512 512" xmlns="http://www.w3.org/2000/svg" xmlns:xlink="http://www.w3.org/1999/xlink"><linearGradient id="a" gradientUnits="userSpaceOnUse" x1="9.5%" x2="100%" y1="13%" y2="68%"><stop offset="0" stop-color="#21ffff"/><stop offset="0.8" stop-color="#1190cb"/></linearGradient><path d="m512 256c0 141.386719-114.613281 256-256 256s-256-114.613281-256-256 114.613281-256 256-256 256 114.613281 256 256zm0 0" fill="url(#a)"/><path d="m420.140625 176.472656c-2.851563-3.503906-7.125-5.535156-11.640625-5.535156h-232.226562l-.757813-6.957031-.039063-.328125c-4.726562-36.003906-35.667968-63.148438-71.976562-63.148438-8.285156 0-15 6.714844-15 15 0 8.28125 6.714844 15 15 15 21.25 0 39.371094 15.851563 42.210938 36.894532l15.199218 139.648437c-13.414062 6.707031-22.652344 20.570313-22.652344 36.558594 0 .109375.011719.214843.015626.324219-.003907.105468-.015626.210937-.015626.320312 0 22.523438 18.320313 40.847656 40.847657 40.847656h2.46875c-.855469 3.261719-1.316407 6.679688-1.316407 10.203125 0 22.167969 18.035157 40.199219 40.203126 40.199219 22.167968 0 40.199218-18.03125 40.199218-40.199219 0-3.523437-.457031-6.941406-1.3125-10.203125h50.171875c-.855469 3.261719-1.316406 6.679688-1.316406 10.203125 0 22.167969 18.035156 40.199219 40.203125 40.199219 22.164062 0 40.199219-18.03125 40.199219-40.199219s-18.035157-40.203125-40.199219-40.203125h-169.300781c-5.984375 0-10.847657-4.863281-10.847657-10.847656 0-.109375-.015624-.214844-.019531-.320312.003907-.109376.019531-.214844.019531-.324219 0-5.980469 4.863282-10.847657 10.847657-10.847657h164.988281c23.765625 0 45.566406-14.683593 55.539062-37.402343 3.332032-7.585938-.121093-16.433594-7.707031-19.765625-7.585937-3.332032-16.433593.121094-19.761719 7.707031-5.109374 11.640625-16.390624 19.460937-28.070312 19.460937h-153.472656l-11.082032-101.820312h210.507813l-5.800781 27.816406c-1.691406 8.105469 3.511718 16.054688 11.621094 17.742188 1.035156.21875 2.0625.320312 3.078124.320312 6.953126 0 13.195313-4.863281 14.667969-11.9375l9.570313-45.882812c.921875-4.417969-.195313-9.019532-3.042969-12.523438zm-189.480469 218.828125c0 5.625-4.574218 10.199219-10.199218 10.199219s-10.203126-4.574219-10.203126-10.199219 4.578126-10.203125 10.203126-10.203125 10.199218 4.578125 10.199218 10.203125zm117.746094 10.199219c-5.625 0-10.203125-4.574219-10.203125-10.199219s4.578125-10.203125 10.203125-10.203125 10.199219 4.578125 10.199219 10.203125-4.574219 10.199219-10.199219 10.199219zm0 0" fill="#fff"/></svg>