<svg viewBox="0 0 512 512" xmlns="http://www.w3.org/2000/svg" xmlns:xlink="http://www.w3.org/1999/xlink"><linearGradient id="a" gradientUnits="userSpaceOnUse" x1="9.5%" x2="100%" y1="13%" y2="68%"><stop offset="0" stop-color="#21ffff"/><stop offset="0.8" stop-color="#1190cb"/></linearGradient><path d="m512 256c0 141.386719-114.613281 256-256 256s-256-114.613281-256-256 114.613281-256 256-256 256 114.613281 256 256zm0 0" fill="url(#a)"/><g fill="#fff"><path d="m374.542969 285.097656c-5.882813-5.835937-15.382813-5.796875-21.214844.085938-5.832031 5.882812-5.792969 15.378906.085937 21.214844l39.261719 38.9375h-15.371093c-40.746094 0-78.34375-17.628907-103.148438-48.363282-5.203125-6.445312-14.644531-7.453125-21.089844-2.253906-6.449218 5.203125-7.457031 14.648438-2.253906 21.09375 30.527344 37.828125 76.632812 59.523438 126.496094 59.523438h13.933594l-37.828126 37.515624c-5.878906 5.835938-5.917968 15.332032-.085937 21.214844 2.933594 2.957032 6.792969 4.4375 10.652344 4.4375 3.816406 0 7.636719-1.449218 10.5625-4.351562l44.117187-43.757813c8.28125-8.210937 12.839844-19.140625 12.839844-30.769531s-4.558594-22.558594-12.839844-30.769531zm0 0"/><path d="m377.304688 166.667969h15.371093l-39.261719 38.9375c-5.878906 5.832031-5.917968 15.328125-.085937 21.210937 2.933594 2.957032 6.792969 4.4375 10.652344 4.4375 3.816406 0 7.636719-1.449218 10.5625-4.347656l44.117187-43.757812c8.28125-8.214844 12.839844-19.140626 12.839844-30.769532 0-11.632812-4.558594-22.558594-12.839844-30.769531l-44.117187-43.757813c-5.882813-5.832031-15.378907-5.796874-21.214844.085938-5.832031 5.882812-5.792969 15.378906.085937 21.214844l37.828126 37.515625h-13.9375c-58.246094 0-112.175782 30.710937-140.738282 80.144531l-5.316406 9.207031-9.011719-15.59375c-28.5625-49.4375-82.488281-80.144531-140.738281-80.144531-8.285156 0-15 6.714844-15 15s6.714844 15 15 15c47.570312 0 91.542969 24.964844 114.761719 65.152344l17.664062 30.566406-17.664062 30.570312c-23.21875 40.1875-67.191407 65.148438-114.761719 65.148438-8.285156 0-15 6.71875-15 15 0 8.285156 6.714844 15 15 15 58.25 0 112.175781-30.707031 140.738281-80.144531l40.304688-69.757813c23.21875-40.183594 67.195312-65.148437 114.761719-65.148437zm0 0"/></g></svg>