<svg viewBox="0 0 512 512" xmlns="http://www.w3.org/2000/svg" xmlns:xlink="http://www.w3.org/1999/xlink"><linearGradient id="a" gradientUnits="userSpaceOnUse" x1="9.5%" x2="100%" y1="13%" y2="68%"><stop offset="0" stop-color="#21ffff"/><stop offset="0.8" stop-color="#1190cb"/></linearGradient><path d="m512 256c0 141.386719-114.613281 256-256 256s-256-114.613281-256-256 114.613281-256 256-256 256 114.613281 256 256zm0 0" fill="url(#a)"/><g fill="#fff"><path d="m215.367188 159.210938c2.3125 0 4.660156-.535157 6.859374-1.667969 10-5.15625 20.785157-7.851563 32.046876-8.019531h2.410156c39.464844.582031 71.550781 33.253906 71.550781 72.875v19.386718c0 19.984375 6.363281 34.496094 13.242187 47.203125 2.714844 5.019531 7.875 7.863281 13.207032 7.863281 2.410156 0 4.855468-.582031 7.125-1.808593 7.285156-3.945313 9.996094-13.046875 6.050781-20.332031-6.09375-11.265626-9.625-20.261719-9.625-32.925782v-19.386718c0-51.433594-38.347656-94.566407-87.878906-101.808594v-17.089844c0-8.285156-6.714844-15-15-15-8.285157 0-15 6.714844-15 15v17.113281c-11.082031 1.625-21.757813 5.050781-31.871094 10.261719-7.363281 3.796875-10.257813 12.84375-6.464844 20.207031 2.664063 5.164063 7.910157 8.128907 13.347657 8.128907zm0 0"/><path d="m419.105469 397.894531-305-305c-5.855469-5.859375-15.355469-5.859375-21.210938 0-5.859375 5.859375-5.859375 15.355469 0 21.210938l67.890625 67.890625c-5.515625 12.804687-8.3125 26.386718-8.3125 40.402344v19.386718c0 16.664063-5.828125 26.855469-13.890625 40.960938-7.878906 13.78125-16.804687 29.398437-21.339843 53.585937-2.246094 11.992188.933593 24.253907 8.722656 33.640625 7.785156 9.378906 19.238281 14.757813 31.425781 14.757813h57.417969c1.085937 21.558593 18.96875 38.769531 40.796875 38.769531 21.824219 0 39.707031-17.210938 40.792969-38.769531h57.167968c3.042969 0 6.035156-.339844 8.957032-.996094l35.371093 35.371094c2.925781 2.929687 6.765625 4.394531 10.605469 4.394531 3.835938 0 7.675781-1.464844 10.605469-4.394531 5.859375-5.855469 5.859375-15.355469 0-21.210938zm-163.5-4.394531c-5.273438 0-9.671875-3.78125-10.644531-8.769531h21.285156c-.972656 4.988281-5.371094 8.769531-10.640625 8.769531zm-98.214844-38.769531c-4.425781 0-7.125-2.457031-8.339844-3.917969-1.21875-1.46875-3.140625-4.582031-2.320312-8.957031 3.601562-19.214844 10.871093-31.925781 17.898437-44.21875 8.769532-15.347657 17.84375-31.214844 17.84375-55.855469v-19.386719c0-5.699219.675782-11.289062 1.972656-16.738281l149.070313 149.070312h-176.125zm0 0"/></g></svg>