<svg viewBox="0 0 512 512" xmlns="http://www.w3.org/2000/svg" xmlns:xlink="http://www.w3.org/1999/xlink"><linearGradient id="a" gradientUnits="userSpaceOnUse" x1="9.5%" x2="100%" y1="13%" y2="68%"><stop offset="0" stop-color="#21ffff"/><stop offset="0.8" stop-color="#1190cb"/></linearGradient><path d="m512 256c0 141.386719-114.613281 256-256 256s-256-114.613281-256-256 114.613281-256 256-256 256 114.613281 256 256zm0 0" fill="url(#a)"/><g fill="#fff"><path d="m329.984375 450.878906h-147.96875c-33.503906 0-60.761719-27.257812-60.761719-60.765625v-268.472656c0-33.503906 27.257813-60.761719 60.761719-60.761719h147.96875c33.503906 0 60.761719 27.257813 60.761719 60.761719v192.296875c0 8.285156-6.714844 15-15 15s-15-6.714844-15-15v-192.296875c0-16.960937-13.800782-30.761719-30.761719-30.761719h-147.96875c-16.960937 0-30.761719 13.800782-30.761719 30.761719v268.476563c0 16.960937 13.800782 30.761718 30.761719 30.761718h147.96875c16.960937 0 30.761719-13.800781 30.761719-30.761718 0-8.285157 6.714844-15 15-15s15 6.714843 15 15c0 33.503906-27.257813 60.761718-60.761719 60.761718zm0 0"/><path d="m256 397.074219c-8.425781 0-15.253906-6.832031-15.253906-15.253907 0-8.425781 6.828125-15.253906 15.253906-15.253906s15.253906 6.828125 15.253906 15.253906c0 8.421876-6.828125 15.253907-15.253906 15.253907zm0 0"/><path d="m271.253906 145.125h-30.507812c-8.285156 0-15-6.71875-15-15 0-8.285156 6.714844-15 15-15h30.507812c8.285156 0 15 6.714844 15 15 0 8.28125-6.714844 15-15 15zm0 0"/></g></svg>