<svg viewBox="0 0 512 512" xmlns="http://www.w3.org/2000/svg" xmlns:xlink="http://www.w3.org/1999/xlink"><linearGradient id="a" gradientUnits="userSpaceOnUse" x1="9.5%" x2="100%" y1="13%" y2="68%"><stop offset="0" stop-color="#21ffff"/><stop offset="0.8" stop-color="#1190cb"/></linearGradient><path d="m512 256c0 141.386719-114.613281 256-256 256s-256-114.613281-256-256 114.613281-256 256-256 256 114.613281 256 256zm0 0" fill="url(#a)"/><g fill="#fff"><path d="m257 456c-110.28125 0-200-89.71875-200-200s89.71875-200 200-200 200 89.71875 200 200c0 39.476562-11.71875 77.867188-33.886719 111.027344-4.601562 6.886718-13.921875 8.734375-20.804687 4.132812-6.886719-4.605468-8.738282-13.921875-4.132813-20.808594 18.855469-28.203124 28.824219-60.832031 28.824219-94.351562 0-93.738281-76.261719-170-170-170s-170 76.261719-170 170 76.261719 170 170 170c31.089844 0 61.5-8.464844 87.941406-24.480469 7.089844-4.296875 16.308594-2.027343 20.601563 5.058594s2.027343 16.308594-5.058594 20.601563c-31.128906 18.851562-66.914063 28.820312-103.484375 28.820312zm0 0"/><path d="m257 374.476562c-40.6875 0-73.792969-33.105468-73.792969-73.792968 0-8.285156 6.71875-15 15-15 8.285157 0 15 6.714844 15 15 0 24.144531 19.644531 43.792968 43.792969 43.792968s43.792969-19.648437 43.792969-43.792968c0-8.285156 6.714843-15 15-15 8.28125 0 15 6.714844 15 15 0 40.6875-33.105469 73.792968-73.792969 73.792968zm0 0"/><path d="m350.285156 227.886719c-8.285156 0-15-6.714844-15-15 0-4.695313-3.820312-8.519531-8.519531-8.519531-4.695313 0-8.515625 3.820312-8.515625 8.519531 0 8.285156-6.71875 15-15 15-8.285156 0-15-6.714844-15-15 0-21.238281 17.277344-38.519531 38.515625-38.519531s38.519531 17.28125 38.519531 38.519531c0 8.285156-6.71875 15-15 15zm0 0"/><path d="m211.535156 227.886719c-8.285156 0-15-6.714844-15-15 0-4.695313-3.820312-8.519531-8.519531-8.519531-4.695313 0-8.515625 3.820312-8.515625 8.519531 0 8.285156-6.71875 15-15 15-8.285156 0-15-6.714844-15-15 0-21.238281 17.277344-38.519531 38.515625-38.519531s38.519531 17.28125 38.519531 38.519531c0 8.285156-6.71875 15-15 15zm0 0"/></g></svg>