<svg viewBox="0 0 512 512" xmlns="http://www.w3.org/2000/svg" xmlns:xlink="http://www.w3.org/1999/xlink"><linearGradient id="a" gradientUnits="userSpaceOnUse" x1="9.5%" x2="100%" y1="13%" y2="68%"><stop offset="0" stop-color="#21ffff"/><stop offset="0.8" stop-color="#1190cb"/></linearGradient><path d="m512 256c0 141.386719-114.613281 256-256 256s-256-114.613281-256-256 114.613281-256 256-256 256 114.613281 256 256zm0 0" fill="url(#a)"/><g fill="#fff"><path d="m256 456c-110.28125 0-200-89.71875-200-200s89.71875-200 200-200 200 89.71875 200 200c0 39.476562-11.71875 77.867188-33.886719 111.027344-4.601562 6.886718-13.917969 8.734375-20.804687 4.132812-6.886719-4.605468-8.738282-13.921875-4.132813-20.808594 18.855469-28.203124 28.824219-60.832031 28.824219-94.351562 0-93.738281-76.261719-170-170-170s-170 76.261719-170 170 76.261719 170 170 170c31.089844 0 61.5-8.464844 87.941406-24.480469 7.085938-4.296875 16.308594-2.027343 20.601563 5.058594s2.027343 16.308594-5.058594 20.601563c-31.128906 18.851562-66.914063 28.820312-103.484375 28.820312zm0 0"/><path d="m256 390.152344c-51.496094 0-93.390625-41.894532-93.390625-93.390625 0-8.285157 6.714844-15 15-15h156.78125c8.285156 0 15 6.714843 15 15 0 51.496093-41.894531 93.390625-93.390625 93.390625zm-61.597656-78.390625c6.753906 27.742187 31.808594 48.390625 61.597656 48.390625s54.84375-20.648438 61.597656-48.390625zm0 0"/><path d="m353.203125 239.644531h-57.066406c-5.320313 0-10.242188-2.816406-12.933594-7.402343-2.695313-4.582032-2.761719-10.253907-.171875-14.898438l21.667969-38.886719c4.03125-7.234375 13.164062-9.832031 20.40625-5.800781 7.234375 4.03125 9.832031 13.167969 5.800781 20.40625l-9.242188 16.582031h31.539063c8.285156 0 15 6.714844 15 15 0 8.285157-6.714844 15-15 15zm0 0"/><path d="m212.886719 239.644531h-57.070313c-8.28125 0-15-6.714843-15-15 0-8.285156 6.71875-15 15-15h31.539063l-9.242188-16.582031c-4.03125-7.238281-1.433593-16.375 5.804688-20.40625 7.234375-4.027344 16.371093-1.433594 20.402343 5.800781l21.667969 38.886719c2.589844 4.644531 2.523438 10.316406-.167969 14.898438-2.695312 4.585937-7.617187 7.402343-12.933593 7.402343zm0 0"/></g></svg>