<svg viewBox="0 0 512 512" xmlns="http://www.w3.org/2000/svg" xmlns:xlink="http://www.w3.org/1999/xlink"><linearGradient id="a" gradientUnits="userSpaceOnUse" x1="9.5%" x2="100%" y1="13%" y2="68%"><stop offset="0" stop-color="#21ffff"/><stop offset="0.8" stop-color="#1190cb"/></linearGradient><path d="m512 256c0 141.386719-114.613281 256-256 256s-256-114.613281-256-256 114.613281-256 256-256 256 114.613281 256 256zm0 0" fill="url(#a)"/><g fill="#fff"><path d="m271.882812 367.890625v-103.730469l88.246094-52.367187 56.855469 15.222656c1.300781.347656 2.605469.511719 3.890625.511719 6.621094 0 12.683594-4.421875 14.480469-11.125 2.140625-8-2.609375-16.226563-10.613281-18.367188l-28.546876-7.644531 23.226563-13.78125c7.125-4.226563 9.472656-13.429687 5.242187-20.554687-4.226562-7.125-13.429687-9.472657-20.550781-5.246094l-22.074219 13.097656c2.628907-10.386719 5.230469-20.65625 6.839844-27.023438 2.035156-8.03125-2.828125-16.1875-10.859375-18.222656-8.035156-2.035156-16.1875 2.828125-18.222656 10.859375l-14.160156 55.988281-73.753907 43.765626v-85.097657l42.058594-41.484375c5.898438-5.816406 5.964844-15.3125.144532-21.210937-5.816407-5.898438-15.3125-5.964844-21.210938-.144531l-20.992188 20.703124v-26.039062c0-8.285156-6.71875-15-15-15-8.285156 0-15 6.714844-15 15v26.050781c-8.027343-7.917969-16.074218-15.855469-20.992187-20.710937-5.898437-5.820313-15.394531-5.753906-21.210937.140625-5.820313 5.898437-5.757813 15.394531.140624 21.214843l42.0625 41.488282v85.15625l-73.742187-43.5625-14.96875-57.140625c-2.101563-8.011719-10.300781-12.804688-18.3125-10.703125-8.015625 2.097656-12.808594 10.296875-10.707031 18.3125 1.71875 6.550781 4.503906 17.175781 7.304687 27.863281l-22.539062-13.3125c-7.132813-4.214844-16.332031-1.847656-20.542969 5.285156-4.214844 7.132813-1.847656 16.332031 5.285156 20.546875l22.871094 13.507813-28.066406 7.082031c-8.03125 2.027344-12.898438 10.183594-10.871094 18.214844 1.714844 6.800781 7.824219 11.332031 14.53125 11.332031 1.214844 0 2.449219-.148437 3.683594-.457031l57.421875-14.492188 74.207031 43.832032-74.710938 44.335937-56.753906-15.011719c-8.011718-2.117187-16.21875 2.660156-18.335937 10.667969-2.117188 8.007813 2.65625 16.21875 10.664062 18.335937l28.25 7.472657-22.207031 13.175781c-7.125 4.230469-9.472656 13.429688-5.246094 20.554688 2.804688 4.726562 7.792969 7.347656 12.914063 7.347656 2.601562 0 5.238281-.675782 7.640625-2.101563l21.796875-12.933593c-2.792969 10.535156-5.570313 21-7.285157 27.457031-2.125 8.007812 2.644532 16.222656 10.652344 18.347656 1.289063.339844 2.582032.503906 3.855469.503906 6.636719 0 12.707031-4.4375 14.488281-11.15625l15.113282-57.003906 73.609374-43.679687v85.863281l-42.058593 41.480469c-5.898438 5.816406-5.964844 15.3125-.148438 21.214843 2.9375 2.972657 6.808594 4.464844 10.683594 4.464844 3.800781 0 7.609375-1.4375 10.53125-4.320313l20.992187-20.703124v26.039062c0 8.285156 6.714844 15 15 15 8.285157 0 15-6.714844 15-15v-25.628906c7.722657 7.746094 15.40625 15.453125 20.140626 20.199218 2.929687 2.941407 6.777343 4.410157 10.621093 4.410157 3.832031 0 7.664063-1.457031 10.589844-4.375 5.867187-5.847657 5.882813-15.34375.035156-21.210938zm0 0"/><path d="m416.984375 284.984375-55.667969 14.902344-38.839844-22.941407c-7.132812-4.214843-16.332031-1.847656-20.542968 5.285157-4.214844 7.132812-1.847656 16.332031 5.285156 20.542969l38.167969 22.546874 15.203125 58.042969c1.769531 6.738281 7.847656 11.199219 14.5 11.199219 1.261718 0 2.539062-.160156 3.8125-.492188 8.015625-2.101562 12.808594-10.300781 10.707031-18.3125-1.765625-6.738281-4.660156-17.777343-7.539063-28.769531l22.773438 13.453125c2.394531 1.414063 5.019531 2.085938 7.613281 2.085938 5.132813 0 10.132813-2.632813 12.929688-7.375 4.214843-7.132813 1.847656-16.328125-5.285157-20.542969l-22.605468-13.351563 27.246094-7.292968c8.003906-2.144532 12.753906-10.367188 10.609374-18.371094-2.140624-8-10.371093-12.75-18.367187-10.609375zm0 0"/></g></svg>