<svg viewBox="0 0 512 512" xmlns="http://www.w3.org/2000/svg" xmlns:xlink="http://www.w3.org/1999/xlink"><linearGradient id="a" gradientUnits="userSpaceOnUse" x1="9.5%" x2="100%" y1="13%" y2="68%"><stop offset="0" stop-color="#21ffff"/><stop offset="0.8" stop-color="#1190cb"/></linearGradient><path d="m512 256c0 141.386719-114.613281 256-256 256s-256-114.613281-256-256 114.613281-256 256-256 256 114.613281 256 256zm0 0" fill="url(#a)"/><g fill="#fff"><path d="m256 451c-107.523438 0-195-87.476562-195-195s87.476562-195 195-195 195 87.476562 195 195c0 38.488281-11.425781 75.921875-33.039062 108.253906-4.605469 6.886719-13.921876 8.734375-20.808594 4.132813-6.886719-4.605469-8.734375-13.921875-4.132813-20.808594 18.304688-27.378906 27.980469-59.042969 27.980469-91.578125 0-90.980469-74.019531-165-165-165s-165 74.019531-165 165 74.019531 165 165 165c30.179688 0 59.691406-8.21875 85.355469-23.761719 7.082031-4.292969 16.308593-2.027343 20.601562 5.058594s2.027344 16.308594-5.058593 20.601563c-30.347657 18.382812-65.242188 28.101562-100.898438 28.101562zm0 0"/><path d="m301.761719 322.101562h-91.523438c-8.285156 0-15-6.714843-15-15 0-8.285156 6.714844-15 15-15h91.523438c8.285156 0 15 6.714844 15 15 0 8.285157-6.714844 15-15 15zm0 0"/><path d="m346.761719 229.050781c-8.28125 0-15-6.714843-15-15 0-4.347656-3.535157-7.878906-7.878907-7.878906-4.347656 0-7.882812 3.53125-7.882812 7.878906 0 8.285157-6.714844 15-15 15s-15-6.714843-15-15c0-20.886719 16.992188-37.878906 37.882812-37.878906 20.886719 0 37.878907 16.992187 37.878907 37.878906 0 8.285157-6.714844 15-15 15zm0 0"/><path d="m211.761719 229.050781c-8.28125 0-15-6.714843-15-15 0-4.347656-3.535157-7.878906-7.878907-7.878906-4.347656 0-7.882812 3.53125-7.882812 7.878906 0 8.285157-6.714844 15-15 15s-15-6.714843-15-15c0-20.886719 16.992188-37.878906 37.882812-37.878906 20.886719 0 37.878907 16.992187 37.878907 37.878906 0 8.285157-6.714844 15-15 15zm0 0"/></g></svg>