<svg viewBox="0 0 512 512" xmlns="http://www.w3.org/2000/svg" xmlns:xlink="http://www.w3.org/1999/xlink"><linearGradient id="a" gradientUnits="userSpaceOnUse" x1="9.5%" x2="100%" y1="13%" y2="68%"><stop offset="0" stop-color="#21ffff"/><stop offset="0.8" stop-color="#1190cb"/></linearGradient><path d="m512 256c0 141.386719-114.613281 256-256 256s-256-114.613281-256-256 114.613281-256 256-256 256 114.613281 256 256zm0 0" fill="url(#a)"/><g fill="#fff"><path d="m441 271h-15.679688c-8.28125 0-15-6.714844-15-15s6.71875-15 15-15h15.679688c8.285156 0 15 6.714844 15 15s-6.714844 15-15 15zm0 0"/><path d="m256 117.355469c-8.285156 0-15-6.714844-15-15v-31.355469c0-8.285156 6.714844-15 15-15s15 6.714844 15 15v31.355469c0 8.285156-6.714844 15-15 15zm0 0"/><path d="m86.679688 271h-15.679688c-8.285156 0-15-6.714844-15-15s6.714844-15 15-15h15.679688c8.28125 0 15 6.714844 15 15s-6.71875 15-15 15zm0 0"/><path d="m256 456c-8.285156 0-15-6.714844-15-15v-31.355469c0-8.285156 6.714844-15 15-15s15 6.714844 15 15v31.355469c0 8.285156-6.714844 15-15 15zm0 0"/><path d="m124.859375 190.925781c-2.664063 0-5.363281-.710937-7.804687-2.199219l-26.757813-16.34375c-7.070313-4.316406-9.304687-13.546874-4.984375-20.621093 4.316406-7.066407 13.546875-9.300781 20.617188-4.984375l26.761718 16.34375c7.070313 4.316406 9.300782 13.550781 4.984375 20.621094-2.828125 4.628906-7.761719 7.183593-12.816406 7.183593zm0 0"/><path d="m413.871094 367.421875c-2.664063 0-5.359375-.710937-7.800782-2.199219l-26.761718-16.34375c-7.070313-4.316406-9.300782-13.550781-4.984375-20.621094 4.316406-7.066406 13.546875-9.300781 20.617187-4.984374l26.761719 16.34375c7.070313 4.316406 9.304687 13.546874 4.984375 20.621093-2.828125 4.628907-7.761719 7.183594-12.816406 7.183594zm0 0"/><path d="m348.605469 431.164062c-5.183594 0-10.222657-2.6875-13-7.492187l-7.847657-13.574219c-4.148437-7.171875-1.695312-16.347656 5.476563-20.496094 7.171875-4.140624 16.351563-1.691406 20.496094 5.480469l7.84375 13.574219c4.148437 7.171875 1.695312 16.347656-5.476563 20.492188-2.363281 1.367187-4.945312 2.015624-7.492187 2.015624zm0 0"/><path d="m344.390625 126.589844c-2.671875 0-5.375-.710938-7.816406-2.207032-7.066407-4.324218-9.289063-13.558593-4.960938-20.625l8.183594-13.371093c4.328125-7.066407 13.5625-9.289063 20.625-4.960938 7.066406 4.324219 9.289063 13.558594 4.960937 20.625l-8.183593 13.371094c-2.832031 4.621094-7.761719 7.167969-12.808594 7.167969zm0 0"/><path d="m171.34375 124.371094c-5.183594 0-10.226562-2.691406-13.003906-7.5l-7.839844-13.578125c-4.144531-7.175781-1.6875-16.347657 5.488281-20.492188 7.171875-4.144531 16.347657-1.683593 20.492188 5.488281l7.839843 13.578126c4.140626 7.175781 1.683594 16.347656-5.492187 20.492187-2.359375 1.363281-4.941406 2.011719-7.484375 2.011719zm0 0"/><path d="m159.085938 428.59375c-2.679688 0-5.390626-.714844-7.84375-2.222656-7.054688-4.339844-9.257813-13.578125-4.917969-20.636719l8.210937-13.351563c4.339844-7.058593 13.578125-9.261718 20.632813-4.921874 7.058593 4.339843 9.261719 13.578124 4.921875 20.632812l-8.210938 13.355469c-2.832031 4.605469-7.753906 7.144531-12.792968 7.144531zm0 0"/><path d="m388.695312 193.527344c-5.160156 0-10.179687-2.660156-12.96875-7.4375-4.175781-7.152344-1.761718-16.339844 5.390626-20.515625l27.078124-15.8125c7.152344-4.175781 16.339844-1.765625 20.519532 5.390625 4.175781 7.152344 1.761718 16.339844-5.390625 20.515625l-27.078125 15.8125c-2.378906 1.386719-4.980469 2.046875-7.550782 2.046875zm0 0"/><path d="m96.253906 364.285156c-5.15625 0-10.179687-2.664062-12.96875-7.4375-4.175781-7.15625-1.761718-16.339844 5.390625-20.519531l27.078125-15.808594c7.152344-4.175781 16.339844-1.765625 20.519532 5.390625 4.175781 7.152344 1.761718 16.339844-5.390626 20.515625l-27.078124 15.8125c-2.378907 1.386719-4.984376 2.046875-7.550782 2.046875zm0 0"/><path d="m256 377.609375c-67.058594 0-121.609375-54.554687-121.609375-121.609375s54.550781-121.609375 121.609375-121.609375 121.609375 54.554687 121.609375 121.609375c0 16.765625-3.351563 33.015625-9.96875 48.289062-3.292969 7.605469-12.121094 11.097657-19.726563 7.804688-7.601562-3.289062-11.097656-12.121094-7.804687-19.722656 4.976563-11.492188 7.5-23.730469 7.5-36.371094 0-50.515625-41.097656-91.609375-91.609375-91.609375-50.515625 0-91.609375 41.09375-91.609375 91.609375s41.09375 91.609375 91.609375 91.609375c11.324219 0 22.375-2.039063 32.839844-6.058594 7.726562-2.96875 16.40625.890625 19.378906 8.625s-.890625 16.410157-8.621094 19.382813c-13.910156 5.34375-28.578125 8.050781-43.597656 8.050781zm0 0"/></g></svg>