<svg viewBox="0 0 512 512" xmlns="http://www.w3.org/2000/svg" xmlns:xlink="http://www.w3.org/1999/xlink"><linearGradient id="a" gradientUnits="userSpaceOnUse" x1="9.5%" x2="100%" y1="13%" y2="68%"><stop offset="0" stop-color="#21ffff"/><stop offset="0.8" stop-color="#1190cb"/></linearGradient><path d="m512 256c0 141.386719-114.613281 256-256 256s-256-114.613281-256-256 114.613281-256 256-256 256 114.613281 256 256zm0 0" fill="url(#a)"/><g fill="#fff"><path d="m256 456c-110.28125 0-200-89.71875-200-200s89.71875-200 200-200 200 89.71875 200 200c0 39.476562-11.71875 77.867188-33.886719 111.027344-4.601562 6.886718-13.917969 8.738281-20.804687 4.132812-6.886719-4.601562-8.738282-13.917968-4.132813-20.804687 18.855469-28.207031 28.824219-60.835938 28.824219-94.355469 0-93.738281-76.261719-170-170-170s-170 76.261719-170 170 76.261719 170 170 170c31.09375 0 61.503906-8.464844 87.941406-24.480469 7.085938-4.292969 16.308594-2.03125 20.601563 5.054688 4.292969 7.085937 2.027343 16.3125-5.058594 20.601562-31.128906 18.855469-66.914063 28.824219-103.484375 28.824219zm0 0"/><path d="m256 362.714844c-29.882812 0-54.195312-20.792969-54.195312-46.355469 0-25.558594 24.3125-46.355469 54.195312-46.355469s54.195312 20.796875 54.195312 46.355469c0 25.5625-24.3125 46.355469-54.195312 46.355469zm0-62.710938c-12.890625 0-24.195312 7.644532-24.195312 16.355469 0 8.714844 11.308593 16.355469 24.195312 16.355469s24.195312-7.640625 24.195312-16.355469c0-8.710937-11.304687-16.355469-24.195312-16.355469zm0 0"/><path d="m349.285156 227.886719c-8.285156 0-15-6.714844-15-15 0-17.480469-5.386718-28.359375-8.519531-31.457031-3.128906 3.097656-8.515625 13.976562-8.515625 31.457031 0 8.285156-6.71875 15-15 15-8.285156 0-15-6.714844-15-15 0-14.847657 3.007812-29.039063 8.472656-39.964844 7.011719-14.027344 17.960938-22.070313 30.042969-22.070313s23.035156 8.042969 30.046875 22.070313c5.460938 10.925781 8.472656 25.117187 8.472656 39.964844 0 8.285156-6.71875 15-15 15zm0 0"/><path d="m210.535156 227.886719c-8.285156 0-15-6.714844-15-15 0-17.480469-5.386718-28.359375-8.519531-31.457031-3.128906 3.097656-8.515625 13.976562-8.515625 31.457031 0 8.285156-6.71875 15-15 15-8.285156 0-15-6.714844-15-15 0-14.847657 3.007812-29.039063 8.472656-39.964844 7.011719-14.027344 17.960938-22.070313 30.042969-22.070313s23.035156 8.042969 30.046875 22.070313c5.460938 10.925781 8.472656 25.117187 8.472656 39.964844 0 8.285156-6.71875 15-15 15zm0 0"/></g></svg>