<svg viewBox="0 0 512 512" xmlns="http://www.w3.org/2000/svg" xmlns:xlink="http://www.w3.org/1999/xlink"><linearGradient id="a" gradientUnits="userSpaceOnUse" x1="9.5%" x2="100%" y1="13%" y2="68%"><stop offset="0" stop-color="#21ffff"/><stop offset="0.8" stop-color="#1190cb"/></linearGradient><path d="m512 256c0 141.386719-114.613281 256-256 256s-256-114.613281-256-256 114.613281-256 256-256 256 114.613281 256 256zm0 0" fill="url(#a)"/><path d="m353.203125 153.203125h-194.40625c-56.683594 0-102.796875 46.113281-102.796875 102.796875s46.113281 102.796875 102.796875 102.796875 102.796875-46.113281 102.796875-102.796875c0-28.414062-11.589844-54.171875-30.289062-72.796875h121.898437c40.140625 0 72.796875 32.65625 72.796875 72.796875s-32.65625 72.796875-72.796875 72.796875h-57.226563c-8.28125 0-15 6.714844-15 15 0 8.28125 6.71875 15 15 15h57.226563c56.683594 0 102.796875-46.113281 102.796875-102.796875s-46.113281-102.796875-102.796875-102.796875zm-121.609375 102.796875c0 40.140625-32.65625 72.796875-72.796875 72.796875s-72.796875-32.65625-72.796875-72.796875 32.65625-72.796875 72.796875-72.796875 72.796875 32.65625 72.796875 72.796875zm0 0" fill="#fff"/></svg>