<svg viewBox="0 0 512 512" xmlns="http://www.w3.org/2000/svg" xmlns:xlink="http://www.w3.org/1999/xlink"><linearGradient id="a" gradientUnits="userSpaceOnUse" x1="9.5%" x2="100%" y1="13%" y2="68%"><stop offset="0" stop-color="#21ffff"/><stop offset="0.8" stop-color="#1190cb"/></linearGradient><path d="m512 256c0 141.386719-114.613281 256-256 256s-256-114.613281-256-256 114.613281-256 256-256 256 114.613281 256 256zm0 0" fill="url(#a)"/><path d="m387.773438 81.140625c-.75.007813-19.332032 0-40.496094 8.210937-24.859375 9.644532-43.410156 26.546876-54.246094 49.246094l-62.480469-6.347656c-17.5-1.78125-34.648437 4.335938-47.042969 16.75l-108.398437 107.992188c-22.644531 22.683593-22.636719 59.578124.019531 82.25l94.558594 94.636718c11.472656 11.480469 26.527344 17.234375 41.535156 17.234375 14.796875 0 29.546875-5.59375 40.761719-16.800781 5.859375-5.855469 5.867187-15.351562.011719-21.210938-5.855469-5.863281-15.355469-5.867187-21.214844-.011718-10.886719 10.878906-28.773438 10.691406-39.871094-.414063l-94.558594-94.640625c-10.976562-10.980468-10.980468-28.855468-.039062-39.816406l108.398438-107.992188c6.019531-6.03125 14.328124-8.992187 22.804687-8.132812l109.066406 11.085938 2.140625 20.988281c-25.332031 9.320312-49.222656 10.792969-49.730468 10.820312-8.265626.441407-14.609376 7.5-14.175782 15.765625.417969 8.007813 7.042969 14.214844 14.964844 14.214844.265625 0 .53125-.007812.800781-.023438 1.152344-.058593 24.351563-1.382812 51.261719-10.117187l5.816406 57.105469c.863282 8.449218-2.082031 16.742187-8.078125 22.757812l-55.339843 54.3125c-5.910157 5.800782-6 15.296875-.199219 21.210938 5.804687 5.914062 15.300781 6.003906 21.214843.199218l55.390626-54.363281.09375-.09375c12.4375-12.421875 18.546874-29.578125 16.765624-47.066406l-6.75-66.265625c37.472657-20.132812 57.167969-51.191406 57.144532-90.566406v-.71875c-.003906-22.167969-18.035156-40.199219-40.128906-40.199219zm10.125 40.925781c.011718 23.871094-10.238282 43.117188-30.515626 57.449219l-2.195312-21.542969c-.71875-7.082031-6.320312-12.683594-13.40625-13.402344l-26.070312-2.648437c21.246093-30.234375 60.074218-30.773437 61.988281-30.78125 5.625 0 10.199219 4.574219 10.199219 10.199219zm0 0" fill="#fff"/></svg>