<svg viewBox="0 0 512 512" xmlns="http://www.w3.org/2000/svg" xmlns:xlink="http://www.w3.org/1999/xlink"><linearGradient id="a" gradientUnits="userSpaceOnUse" x1="9.5%" x2="100%" y1="13%" y2="68%"><stop offset="0" stop-color="#21ffff"/><stop offset="0.8" stop-color="#1190cb"/></linearGradient><path d="m512 256c0 141.386719-114.613281 256-256 256s-256-114.613281-256-256 114.613281-256 256-256 256 114.613281 256 256zm0 0" fill="url(#a)"/><g fill="#fff"><path d="m273.839844 256c0 9.851562-7.988282 17.839844-17.839844 17.839844s-17.839844-7.988282-17.839844-17.839844 7.988282-17.839844 17.839844-17.839844 17.839844 7.988282 17.839844 17.839844zm0 0"/><path d="m466.5 241h-20.378906c-7.304688-93.03125-81.972656-167.421875-175.121094-174.296875v-21.203125c0-8.285156-6.714844-15-15-15s-15 6.714844-15 15v21.347656c-92.316406 7.691406-166.078125 81.71875-173.339844 174.152344h-22.160156c-8.285156 0-15 6.714844-15 15s6.714844 15 15 15h22.160156c7.261719 92.433594 81.023438 166.460938 173.339844 174.152344v21.347656c0 8.285156 6.714844 15 15 15s15-6.714844 15-15v-21.226562c26.976562-2.011719 53.34375-9.742188 76.992188-22.703126 7.265624-3.980468 9.929687-13.097656 5.945312-20.363281-3.976562-7.265625-13.09375-9.925781-20.363281-5.945312-19.242188 10.542969-40.636719 16.980469-62.574219 18.925781v-39.667969c0-8.285156-6.714844-15-15-15s-15 6.714844-15 15v39.511719c-75.761719-7.511719-136.125-68.148438-143.21875-144.03125h38.699219c8.28125 0 15-6.714844 15-15s-6.71875-15-15-15h-38.699219c7.097656-75.882812 67.457031-136.519531 143.21875-144.03125v39.511719c0 8.28125 6.714844 15 15 15s15-6.71875 15-15v-39.671875c76.59375 6.730468 137.851562 67.714844 145.003906 144.191406h-40.484375c-8.28125 0-15 6.714844-15 15s6.71875 15 15 15h40.460938c-2.238281 23.355469-9.664063 46.097656-21.828125 66.519531-4.238282 7.117188-1.910156 16.324219 5.207031 20.5625 7.121094 4.242188 16.328125 1.90625 20.566406-5.207031 14.9375-25.070312 23.847657-53.113281 26.160157-81.875h20.414062c8.285156 0 15-6.714844 15-15 0-8.28125-6.714844-15-15-15zm0 0"/></g></svg>