<svg viewBox="0 0 512 512" xmlns="http://www.w3.org/2000/svg" xmlns:xlink="http://www.w3.org/1999/xlink"><linearGradient id="a" gradientUnits="userSpaceOnUse" x1="9.5%" x2="100%" y1="13%" y2="68%"><stop offset="0" stop-color="#21ffff"/><stop offset="0.8" stop-color="#1190cb"/></linearGradient><path d="m512 256c0 141.386719-114.613281 256-256 256s-256-114.613281-256-256 114.613281-256 256-256 256 114.613281 256 256zm0 0" fill="url(#a)"/><g fill="#fff"><path d="m244.242188 175.152344c-8.285157 0-15 6.714844-15 15v144.917968c-9.746094 5.320313-16.355469 15.65625-16.355469 27.539063 0 17.316406 14.039062 31.355469 31.355469 31.355469 17.316406 0 31.355468-14.039063 31.355468-31.355469 0-11.882813-6.613281-22.222656-16.355468-27.539063v-144.917968c0-8.285156-6.71875-15-15-15zm0 0"/><path d="m346.148438 205.152344c8.285156 0 15-6.714844 15-15s-6.714844-15-15-15h-32.035157v-25.65625h32.035157c8.285156 0 15-6.714844 15-15s-6.714844-15-15-15h-32.339844c-3.230469-35.550782-33.191406-63.496094-69.566406-63.496094-38.527344 0-69.875 31.34375-69.875 69.871094v174.773437c-15.210938 17.097657-23.515626 38.859375-23.515626 61.964844 0 51.496094 41.894532 93.390625 93.390626 93.390625 51.496093 0 93.390624-41.894531 93.390624-93.390625 0-19.558594-5.988281-38.292969-17.320312-54.175781-4.8125-6.746094-14.179688-8.3125-20.921875-3.5-6.746094 4.808594-8.3125 14.175781-3.5 20.921875 7.679687 10.769531 11.742187 23.476562 11.742187 36.753906 0 34.953125-28.4375 63.390625-63.390624 63.390625-34.953126 0-63.390626-28.4375-63.390626-63.390625 0-17.164063 6.753907-33.238281 19.019532-45.265625 2.875-2.820312 4.496094-6.679688 4.496094-10.707031v-180.765625c0-21.984375 17.886718-39.871094 39.875-39.871094 21.984374 0 39.871093 17.886719 39.871093 39.871094v119.152344c0 8.285156 6.714844 15 15 15h47.035157c8.285156 0 15-6.714844 15-15 0-8.28125-6.714844-15-15-15h-32.035157v-24.871094zm0 0"/></g></svg>