<svg viewBox="0 0 512 512" xmlns="http://www.w3.org/2000/svg" xmlns:xlink="http://www.w3.org/1999/xlink"><linearGradient id="a" gradientUnits="userSpaceOnUse" x1="9.5%" x2="100%" y1="13%" y2="68%"><stop offset="0" stop-color="#21ffff"/><stop offset="0.8" stop-color="#1190cb"/></linearGradient><path d="m512 256c0 141.386719-114.613281 256-256 256s-256-114.613281-256-256 114.613281-256 256-256 256 114.613281 256 256zm0 0" fill="url(#a)"/><g fill="#fff"><path d="m381.035156 97.640625c-6.660156-6.636719-14.507812-12.214844-23.320312-16.578125-4.652344-2.296875-10.160156-2.03125-14.566406.703125s-7.085938 7.554687-7.085938 12.742187v58.796876l-19.050781 11.875-18.765625-11.828126v-58.851562c0-5.183594-2.675782-10-7.074219-12.738281-4.402344-2.734375-9.90625-3.007813-14.558594-.714844-9.382812 4.625-17.386719 10.207031-23.792969 16.59375-16.757812 16.699219-28.242187 38.675781-31.515624 60.296875-3.953126 26.128906 3.636718 50.25 21.375 67.929688 7.015624 6.992187 19.304687 14.511718 31.734374 18.554687v145.992187c-.003906 11.3125 4.347657 21.941407 12.246094 29.929688 7.957032 8.042969 18.597656 12.472656 29.957032 12.472656h.015624c11.335938 0 21.996094-4.402344 30.019532-12.398437 8.101562-8.074219 12.5625-18.730469 12.5625-30-.003906-8.285157-6.722656-15-15.003906-14.996094-8.285157 0-15 6.71875-14.996094 15 0 4.367187-2.34375 7.355469-3.738282 8.75-2.363281 2.351563-5.5 3.644531-8.847656 3.644531h-.003906c-3.289062 0-6.355469-1.265625-8.636719-3.570312-2.304687-2.332032-3.574219-5.46875-3.574219-8.828125v-158.078125c0-7.882813-6.101562-14.421875-13.964843-14.964844-8.210938-.566406-21.257813-7.441406-26.589844-12.757812-13.84375-13.796876-14.648437-30.558594-12.890625-42.1875 1.949219-12.871094 8.128906-26.066407 17.28125-37.207032v36.40625c0 5.152344 2.644531 9.941406 7.003906 12.691406l33.71875 21.25c4.863282 3.0625 11.050782 3.078126 15.929688.039063l34.09375-21.246094c4.394531-2.742187 7.066406-7.554687 7.066406-12.730469v-35.835937c10.925781 13.601563 17.265625 30.117187 17.265625 45.632813 0 13.207031-4.484375 24.375-13.328125 33.1875-5.496094 5.476562-18.539062 12.398437-26.5 12.773437-8 .382813-14.285156 6.976563-14.285156 14.984375v88.855469c0 8.285156 6.714844 15 15 15 8.28125 0 15-6.714844 15-15v-76.65625c12.414062-3.976563 24.78125-11.550781 31.964844-18.707031 14.488281-14.441407 22.148437-33.269532 22.148437-54.441407-.003906-26.046875-12.074219-53.632812-32.292969-73.785156zm0 0"/><path d="m188.523438 167.070312c3.65625-3.710937 5.125-9.054687 3.878906-14.109374l-15.070313-61.195313c-1.648437-6.699219-7.660156-11.410156-14.5625-11.410156h-30.140625c-6.902344 0-12.914062 4.710937-14.566406 11.410156l-15.070312 61.195313c-1.246094 5.058593.226562 10.398437 3.878906 14.109374l26.511718 26.914063v64.476563c-15.996093 6.070312-27.398437 21.550781-27.398437 39.648437v92.988281c-.003906 11.328125 4.40625 21.976563 12.417969 29.980469 8.003906 8.011719 18.648437 12.421875 29.964844 12.421875h.019531c11.324219 0 21.972656-4.410156 29.980469-12.417969 8.007812-8.011719 12.417968-18.65625 12.417968-29.984375v-92.988281c0-11.324219-4.414062-21.972656-12.421875-29.980469-4.324219-4.324218-9.421875-7.589844-14.980469-9.6875v-65.847656zm-44.140626-56.714843h6.632813l10.253906 41.636719-13.570312 13.777343-13.570313-13.777343zm16.398438 280.746093c0 3.3125-1.289062 6.425782-3.628906 8.769532-2.339844 2.339844-5.457032 3.628906-8.773438 3.628906 0 0 0 0-.003906 0-3.308594 0-6.417969-1.289062-8.761719-3.632812-2.339843-2.339844-3.628906-5.453126-3.628906-8.765626v-92.992187c0-6.835937 5.5625-12.398437 12.398437-12.398437 3.3125 0 6.425782 1.289062 8.769532 3.632812 2.339844 2.339844 3.628906 5.453125 3.628906 8.765625zm0 0"/></g></svg>