<svg viewBox="0 0 512 512" xmlns="http://www.w3.org/2000/svg" xmlns:xlink="http://www.w3.org/1999/xlink"><linearGradient id="a" gradientUnits="userSpaceOnUse" x1="9.5%" x2="100%" y1="13%" y2="68%"><stop offset="0" stop-color="#21ffff"/><stop offset="0.8" stop-color="#1190cb"/></linearGradient><path d="m512 256c0 141.386719-114.613281 256-256 256s-256-114.613281-256-256 114.613281-256 256-256 256 114.613281 256 256zm0 0" fill="url(#a)"/><g fill="#fff"><path d="m242 261.339844v113.59375c0 8.28125 6.714844 15 15 15s15-6.71875 15-15v-113.59375c0-8.285156-6.714844-15-15-15s-15 6.714844-15 15zm0 0"/><path d="m307.605469 260.734375-4.578125 113.59375c-.332032 8.277344 6.109375 15.257813 14.386718 15.59375.203126.007813.410157.011719.613282.011719 8.007812 0 14.652344-6.324219 14.976562-14.398438l4.578125-113.589844c.332031-8.28125-6.105469-15.257812-14.386719-15.59375-8.300781-.34375-15.257812 6.105469-15.589843 14.382813zm0 0"/><path d="m190.804688 246.351562c-8.277344.332032-14.71875 7.3125-14.386719 15.589844l4.578125 113.59375c.324218 8.074219 6.96875 14.398438 14.976562 14.398438.203125 0 .410156-.003906.613282-.015625 8.277343-.332031 14.71875-7.3125 14.386718-15.589844l-4.578125-113.59375c-.332031-8.277344-7.289062-14.714844-15.589843-14.382813zm0 0"/><path d="m421.746094 124.304688h-92.542969v-17.796876c0-25.09375-20.414063-45.507812-45.507813-45.507812h-53.390624c-25.09375 0-45.507813 20.414062-45.507813 45.507812v17.796876h-92.542969c-8.285156 0-15 6.714843-15 15 0 8.285156 6.714844 15 15 15h329.492188c8.28125 0 15-6.714844 15-15 0-8.285157-6.714844-15-15-15zm-206.949219-17.796876c0-8.550781 6.957031-15.507812 15.507813-15.507812h53.390624c8.550782 0 15.507813 6.957031 15.507813 15.507812v17.796876h-84.40625zm0 0"/><path d="m386.660156 185.320312h-259.320312c-4.171875 0-8.15625 1.738282-10.996094 4.796876-2.835938 3.058593-4.273438 7.160156-3.960938 11.324218l14.507813 194.070313c.007813.082031.015625.160156.019531.242187 1.382813 15.132813 8.320313 29.109375 19.542969 39.355469 11.226563 10.246094 25.773437 15.890625 40.972656 15.890625h139.148438c31.648437 0 57.664062-23.570312 60.515625-54.824219.75-8.25-5.328125-15.546875-13.578125-16.300781-8.246094-.75-15.546875 5.324219-16.300781 13.578125-1.429688 15.703125-14.601563 27.546875-30.636719 27.546875h-139.148438c-15.976562 0-29.121093-11.96875-30.625-27.859375l-13.296875-177.816406h227.015625l-7.949219 108.222656c-.605468 8.261719 5.601563 15.449219 13.863282 16.058594 8.265625.605469 15.449218-5.597657 16.054687-13.863281l9.132813-124.320313c.304687-4.15625-1.132813-8.253906-3.972656-11.308594-2.835938-3.054687-6.820313-4.792969-10.988282-4.792969zm0 0"/></g></svg>