<svg viewBox="0 0 512 512" xmlns="http://www.w3.org/2000/svg" xmlns:xlink="http://www.w3.org/1999/xlink"><linearGradient id="a" gradientUnits="userSpaceOnUse" x1="9.5%" x2="100%" y1="13%" y2="68%"><stop offset="0" stop-color="#21ffff"/><stop offset="0.8" stop-color="#1190cb"/></linearGradient><path d="m512 256c0 141.386719-114.613281 256-256 256s-256-114.613281-256-256 114.613281-256 256-256 256 114.613281 256 256zm0 0" fill="url(#a)"/><g fill="#fff"><path d="m242 200.320312v174.613282c0 8.28125 6.714844 15 15 15s15-6.71875 15-15v-174.613282c0-8.28125-6.714844-15-15-15s-15 6.71875-15 15zm0 0"/><path d="m310.65625 199.667969-7.625 174.609375c-.359375 8.277344 6.054688 15.277344 14.332031 15.640625.222657.011719.445313.015625.664063.015625 7.984375 0 14.625-6.292969 14.976562-14.347656l7.625-174.609376c.363282-8.277343-6.054687-15.277343-14.328125-15.640624-8.289062-.359376-15.28125 6.054687-15.644531 14.332031zm0 0"/><path d="m187.699219 185.335938c-8.273438.363281-14.691407 7.363281-14.328125 15.640624l7.625 174.609376c.351562 8.054687 6.992187 14.347656 14.976562 14.347656.21875 0 .441406-.003906.664063-.015625 8.277343-.363281 14.691406-7.363281 14.332031-15.640625l-7.625-174.609375c-.363281-8.277344-7.351562-14.691407-15.644531-14.332031zm0 0"/><path d="m421.746094 124.304688h-92.542969v-17.796876c0-25.09375-20.414063-45.507812-45.507813-45.507812h-53.390624c-25.09375 0-45.507813 20.414062-45.507813 45.507812v17.796876h-92.542969c-8.285156 0-15 6.714843-15 15 0 8.285156 6.714844 15 15 15h16.03125l18.609375 241.242187c.003907.070313.011719.136719.015625.207031 1.382813 15.132813 8.320313 29.109375 19.542969 39.355469 11.226563 10.246094 25.773437 15.890625 40.972656 15.890625h139.148438c31.648437 0 57.664062-23.570312 60.515625-54.824219.75-8.25-5.328125-15.546875-13.578125-16.300781-8.25-.75-15.546875 5.324219-16.300781 13.578125-1.429688 15.703125-14.601563 27.546875-30.636719 27.546875h-139.148438c-15.980469 0-29.128906-11.976562-30.628906-27.875l-18.421875-238.820312h237.25l-13.050781 169.1875c-.636719 8.257812 5.542969 15.472656 13.800781 16.109374.394531.027344.785156.042969 1.171875.042969 7.757813 0 14.332031-5.980469 14.9375-13.847656l13.230469-171.492187h16.03125c8.28125 0 15-6.714844 15-15 0-8.285157-6.714844-15-15-15zm-206.949219-17.796876c0-8.550781 6.957031-15.507812 15.507813-15.507812h53.390624c8.550782 0 15.507813 6.957031 15.507813 15.507812v17.796876h-84.40625zm0 0"/></g></svg>