<svg viewBox="0 0 512 512" xmlns="http://www.w3.org/2000/svg" xmlns:xlink="http://www.w3.org/1999/xlink"><linearGradient id="a" gradientUnits="userSpaceOnUse" x1="9.5%" x2="100%" y1="13%" y2="68%"><stop offset="0" stop-color="#21ffff"/><stop offset="0.8" stop-color="#1190cb"/></linearGradient><path d="m512 256c0 141.386719-114.613281 256-256 256s-256-114.613281-256-256 114.613281-256 256-256 256 114.613281 256 256zm0 0" fill="url(#a)"/><path d="m446 136.378906s-26.976562 12.78125-44.449219 13.890625l-.183593-.71875c15.871093-9.519531 28.6875-25.203125 34.390624-43.171875-14.867187 8.84375-32.265624 15.554688-49.757812 19.023438-14.027344-14.945313-32.746094-24.144532-54.878906-24.144532-41.207032 0-75.535156 32.40625-77.46875 73.203126-.289063 1.164062-.457032 2.375-.457032 3.625 0 6.351562.507813 12.511718 1.199219 17.941406-37.113281-2.960938-71.992187-15.042969-103.90625-36.03125-27.984375-18.402344-43.074219-37.140625-43.199219-37.300782-4.21875-5.34375-11.507812-7.175781-17.753906-4.464843-6.246094 2.714843-9.882812 9.292969-8.851562 16.027343.34375 2.25 7.378906 46.371094 33.859375 85.234376-5.902344-1.132813-9.472657-2.875-10.152344-3.230469-5.371094-3.257813-12.027344-2.71875-16.945313 1.199219-4.945312 3.9375-6.707031 10.667968-4.679687 16.652343.648437 1.917969 14.167969 40.203125 61.742187 60.179688-6.332031 1.886719-11.3125 1.964843-12.074218 1.964843h-.007813c-6.152343-.246093-11.707031 3.316407-14.1875 8.960938-2.484375 5.660156-1.121093 12.269531 3.253907 16.644531.902343.902344 17.609374 17.257813 49.777343 25.757813-36.425781 19.535156-81.171875 9.191406-81.695312 9.066406-7.609375-1.863281-15.371094 2.4375-17.820313 9.875-2.449218 7.441406 1.234375 15.511719 8.460938 18.53125 2.117187.886719 52.375 21.648438 102.371094 21.648438 54.457031 0 111.613281-6.832032 160.660156-56.398438 5.828125-5.890625 5.777344-15.386719-.109375-21.214844-5.890625-5.824218-15.386719-5.777344-21.214844.113282-39.011719 39.421874-83.914063 47.5-139.335937 47.5-.691407 0-1.382813-.003907-2.074219-.011719 13.53125-6.472657 26.613281-15.949219 37.824219-29.625 3.621093-4.425781 4.417968-10.523438 2.046874-15.726563-2.371093-5.203125-7.492187-8.609375-13.210937-8.777344-15.210937-.445312-27.6875-3.285156-37.480469-6.785156 7.179688-4.1875 14.355469-10.046875 20.503906-18.246094 3.121094-4.160156 3.863282-9.644531 1.960938-14.488281-1.90625-4.84375-6.183594-8.351562-11.304688-9.273437-23.820312-4.28125-39.984374-13.847656-50.695312-23.4375 5.765625-.304688 12.039062-1.179688 18.75-2.855469 5.292969-1.324219 9.449219-5.414063 10.855469-10.683594s-.15625-10.886719-4.085938-14.671875c-12.855469-12.386718-22.304687-27.660156-29.140625-42.199218 2.0625 1.460937 4.199219 2.929687 6.40625 4.398437 29.09375 19.335937 76.9375 42.382813 139.644532 42.382813 4.675781 0 9.082031-2.179688 11.921874-5.894532 2.835938-3.714844 3.777344-8.539062 2.550782-13.050781-.039063-.140625-3.863282-14.582031-3.863282-29.710937 0-.964844-.097656-1.902344-.273437-2.8125.691406-11.554688 5.617187-22.367188 14.066406-30.699219 9.1875-9.058594 21.308594-14.050781 34.132813-14.050781 12.96875 0 24.253906 5.015624 33.539062 14.910156 6.707032 6.3125 14.023438 23.140625 14.023438 33.296875v8.535156c-.234375 1.050781-.367188 2.140625-.367188 3.257813 0 33.214843-6.144531 62.777343-18.261718 87.867187-3.605469 7.460937-.476563 16.429687 6.980468 20.03125 2.105469 1.015625 4.324219 1.496094 6.515625 1.496094 5.574219 0 10.929688-3.121094 13.515625-8.476563 14.101563-29.195312 21.25-63.148437 21.25-100.914062 0-1.125-.132812-2.210938-.363281-3.261719v-9.910156c15.03125-10.863281 27.761719-25.527344 38.046875-40.976563zm0 0" fill="#fff"/></svg>