<svg viewBox="0 0 512 512" xmlns="http://www.w3.org/2000/svg" xmlns:xlink="http://www.w3.org/1999/xlink"><linearGradient id="a" gradientUnits="userSpaceOnUse" x1="9.5%" x2="100%" y1="13%" y2="68%"><stop offset="0" stop-color="#21ffff"/><stop offset="0.8" stop-color="#1190cb"/></linearGradient><path d="m512 256c0 141.386719-114.613281 256-256 256s-256-114.613281-256-256 114.613281-256 256-256 256 114.613281 256 256zm0 0" fill="url(#a)"/><path d="m450.457031 227.207031c-1.957031-8.050781-10.070312-12.984375-18.121093-11.027343-8.050782 1.957031-12.984376 10.070312-11.027344 18.121093 1.527344 6.277344 2.6875 12.679688 3.46875 19.167969-11.039063-2.515625-25.53125-4.789062-41.785156-4.789062-14.820313 0-32.53125 4.519531-45.902344 8.765624-3.679688-71.671874-25.667969-118.109374-44.441406-145.179687 40.464843 8.300781 76.0625 30.332031 100.832031 63.230469 4.984375 6.617187 14.390625 7.945312 21.007812 2.960937 6.617188-4.984375 7.941407-14.390625 2.957031-21.007812-18.144531-24.101563-42.230468-44.027344-69.640624-57.625-23.652344-11.726563-49.941407-18.769531-76.804688-20.695313v-16.128906c0-8.285156-6.714844-15-15-15s-15 6.714844-15 15v16.09375c-47.925781 3.355469-92.292969 22.769531-126.230469 55.515625-37.898437 36.570313-58.769531 86.023437-58.769531 139.257813 0 5.054687 2.519531 9.777343 6.746094 12.550781 4.222656 2.769531 9.535156 3.238281 14.171875 1.234375.210937-.089844 21.429687-8.976563 50.523437-8.976563 17.636719 0 46.195313 9.800781 56.085938 13.714844.003906 0 .003906 0 .003906.003906.089844.035157.1875.070313.269531.105469.089844.035156.179688.058594.269531.089844.371094.140625.742188.269531 1.125.378906.144532.042969.289063.074219.433594.113281.355469.09375.71875.175781 1.085938.238281.152344.03125.308594.050782.464844.074219.359374.050781.71875.09375 1.085937.121094.160156.011719.316406.015625.476563.023437.207031.007813.414062.03125.625.03125.164062 0 .328124-.019531.492187-.023437.140625-.007813.277344-.011719.417969-.023437.402344-.023438.796875-.0625 1.191406-.117188.109375-.015625.214844-.03125.324219-.050781.417969-.066407.828125-.152344 1.234375-.253907.101562-.023437.199218-.046874.296875-.074218.398437-.109375.789062-.238282 1.175781-.378906.117188-.039063.230469-.078126.34375-.125.351562-.136719.691406-.289063 1.03125-.453126.101562-.050781.207031-.085937.308594-.136718.222656-.113282 18.976562-9.472656 44.816406-12.394532v122.105469c0 9.015625-7.339844 16.351563-16.355469 16.351563-8.867187 0-16.355469-7.65625-16.355469-16.71875 0-8.285156-6.71875-15-15-15-8.285156 0-15 6.714844-15 15 0 25.761718 20.792969 46.71875 46.355469 46.71875 25.558594 0 46.355469-20.792969 46.355469-46.351563v-122.105469c25.835938 2.921876 44.589844 12.277344 44.777344 12.375.085937.042969.175781.074219.261718.117188.386719.1875.777344.363281 1.183594.519531.144532.054688.289063.109375.433594.160157.394531.136718.792969.257812 1.195312.363281.144532.035156.289063.078125.433594.109375.429688.097656.867188.175781 1.308594.234375.117188.015625.230469.039062.347656.050781.554688.0625 1.117188.101562 1.6875.101562.433594 0 .855469-.027343 1.277344-.0625.0625-.003906.128906-.003906.195312-.011718.46875-.046875.933594-.117188 1.390626-.207032.023437-.003906.042968-.003906.066406-.007812 1.03125-.203125 2.023437-.511719 2.964844-.914062 9.300781-3.855469 36.847656-13.6875 54.464843-13.6875 29.328125 0 52.171875 9.007812 52.363281 9.085937 4.625 1.875 9.878907 1.332031 14.019532-1.453125 4.144531-2.789062 6.625-7.453125 6.625-12.445312.003906-15.851563-1.859375-31.550782-5.539063-46.660157zm-194.457031 21.472657c-20.101562 0-37.921875 3.855468-50.980469 7.847656 3.171875-53.554688 17.5-90.15625 29.757813-112.230469 7.742187-13.945313 15.535156-23.800781 21.273437-30.082031 15.523438 16.933594 46.183594 60.3125 50.949219 142.316406-13.0625-3.992188-30.886719-7.851562-51-7.851562zm-168.746094 4.578124c8.679688-70.785156 61.660156-126.480468 132.09375-140.984374-18.789062 27.101562-40.800781 73.601562-44.449218 145.386718-13.84375-4.296875-32.390626-8.980468-47.457032-8.980468-15.765625 0-29.585937 2.144531-40.1875 4.578124zm0 0" fill="#fff"/></svg>