<svg viewBox="0 0 512 512" xmlns="http://www.w3.org/2000/svg" xmlns:xlink="http://www.w3.org/1999/xlink"><linearGradient id="a" gradientUnits="userSpaceOnUse" x1="9.5%" x2="100%" y1="13%" y2="68%"><stop offset="0" stop-color="#21ffff"/><stop offset="0.8" stop-color="#1190cb"/></linearGradient><path d="m512 256c0 141.386719-114.613281 256-256 256s-256-114.613281-256-256 114.613281-256 256-256 256 114.613281 256 256zm0 0" fill="url(#a)"/><path d="m397.1875 362.40625h-282.375c-11.703125 0-22.707031-4.558594-30.980469-12.832031-8.273437-8.277344-12.832031-19.277344-12.832031-30.980469s4.558594-22.707031 12.832031-30.980469l141.1875-141.1875c8.273438-8.273437 19.277344-12.832031 30.980469-12.832031s22.707031 4.558594 30.980469 12.832031l92.742187 93.152344c5.84375 5.871094 5.824219 15.367187-.046875 21.210937-5.871093 5.847657-15.367187 5.828126-21.214843-.046874l-92.71875-93.125c-2.585938-2.585938-6.054688-4.023438-9.742188-4.023438-3.691406 0-7.160156 1.4375-9.769531 4.046875l-141.183594 141.183594c-2.609375 2.609375-4.046875 6.078125-4.046875 9.769531 0 3.6875 1.4375 7.15625 4.046875 9.765625s6.078125 4.046875 9.765625 4.046875h282.375c3.6875 0 7.15625-1.4375 9.765625-4.046875s4.046875-6.078125 4.046875-9.765625c0-3.691406-1.4375-7.160156-4.046875-9.769531-5.855469-5.855469-5.855469-15.351563 0-21.210938 5.859375-5.855469 15.355469-5.859375 21.214844 0 8.273437 8.273438 12.832031 19.277344 12.832031 30.980469s-4.558594 22.707031-12.832031 30.980469c-8.273438 8.273437-19.277344 12.832031-30.980469 12.832031zm0 0" fill="#fff"/></svg>