<svg viewBox="0 0 512 512" xmlns="http://www.w3.org/2000/svg" xmlns:xlink="http://www.w3.org/1999/xlink"><linearGradient id="a" gradientUnits="userSpaceOnUse" x1="9.5%" x2="100%" y1="13%" y2="68%"><stop offset="0" stop-color="#21ffff"/><stop offset="0.8" stop-color="#1190cb"/></linearGradient><path d="m512 256c0 141.386719-114.613281 256-256 256s-256-114.613281-256-256 114.613281-256 256-256 256 114.613281 256 256zm0 0" fill="url(#a)"/><g fill="#fff"><path d="m415.914062 232.589844c-3.832031 0-7.664062-1.460938-10.59375-4.378906l-137.742187-137.40625c-3.101563-3.105469-7.210937-4.804688-11.578125-4.804688s-8.476562 1.699219-11.566406 4.789062l-137.753906 137.417969c-5.867188 5.851563-15.363282 5.839844-21.214844-.023437-5.847656-5.867188-5.835938-15.363282.027344-21.214844l137.742187-137.40625c8.742187-8.742188 20.382813-13.5625 32.765625-13.5625s24.023438 4.820312 32.777344 13.578125l137.730468 137.390625c5.867188 5.851562 5.878907 15.347656.027344 21.214844-2.929687 2.9375-6.773437 4.40625-10.621094 4.40625zm0 0"/><path d="m256 456c-8.285156 0-15-6.714844-15-15v-284.554688c0-8.285156 6.714844-15 15-15s15 6.714844 15 15v284.554688c0 8.285156-6.714844 15-15 15zm0 0"/></g></svg>