<svg viewBox="0 0 512 512" xmlns="http://www.w3.org/2000/svg" xmlns:xlink="http://www.w3.org/1999/xlink"><linearGradient id="a" gradientUnits="userSpaceOnUse" x1="9.5%" x2="100%" y1="13%" y2="68%"><stop offset="0" stop-color="#21ffff"/><stop offset="0.8" stop-color="#1190cb"/></linearGradient><path d="m512 256c0 141.386719-114.613281 256-256 256s-256-114.613281-256-256 114.613281-256 256-256 256 114.613281 256 256zm0 0" fill="url(#a)"/><g fill="#fff"><path d="m380.914062 421.5h-249.828124c-31.753907 0-57.585938-25.835938-57.585938-57.585938 0-8.285156 6.714844-15 15-15s15 6.714844 15 15c0 15.210938 12.375 27.585938 27.585938 27.585938h249.828124c15.210938 0 27.585938-12.375 27.585938-27.585938 0-8.285156 6.714844-15 15-15s15 6.714844 15 15c0 31.753907-25.832031 57.585938-57.585938 57.585938zm0 0"/><path d="m158.054688 173.089844c-3.800782 0-7.605469-1.4375-10.53125-4.320313-5.898438-5.816406-5.964844-15.3125-.152344-21.210937l77.164062-78.273438c.023438-.027344.050782-.050781.074219-.078125 16.917969-16.917969 44.445313-16.917969 61.363281 0l78.558594 78.253907c5.871094 5.847656 5.890625 15.34375.042969 21.214843-5.847657 5.867188-15.34375 5.886719-21.214844.039063l-78.578125-78.273438c-5.230469-5.230468-13.703125-5.242187-18.921875-.054687l-77.121094 78.230469c-2.933593 2.976562-6.808593 4.472656-10.683593 4.472656zm0 0"/><path d="m256 331.359375c-8.285156 0-15-6.714844-15-15v-173.886719c0-8.28125 6.714844-15 15-15s15 6.71875 15 15v173.890625c0 8.28125-6.714844 14.996094-15 14.996094zm0 0"/></g></svg>