<svg viewBox="0 0 512 512" xmlns="http://www.w3.org/2000/svg" xmlns:xlink="http://www.w3.org/1999/xlink"><linearGradient id="a" gradientUnits="userSpaceOnUse" x1="9.5%" x2="100%" y1="13%" y2="68%"><stop offset="0" stop-color="#21ffff"/><stop offset="0.8" stop-color="#1190cb"/></linearGradient><path d="m512 256c0 141.386719-114.613281 256-256 256s-256-114.613281-256-256 114.613281-256 256-256 256 114.613281 256 256zm0 0" fill="url(#a)"/><g fill="#fff"><path d="m297.183594 259.445312-24.945313 10.628907c-.109375.046875-.214843.09375-.324219.144531-2.207031 1-4.328124 2.128906-6.375 3.363281v-124.871093h22.570313c5.375 0 10.339844-2.875 13.015625-7.539063 2.671875-4.664063 2.644531-10.402344-.070312-15.039063l-36.71875-62.710937c-2.664063-4.550781-7.519532-7.367187-12.785157-7.421875-5.261719-.042969-10.183593 2.65625-12.941406 7.148438l-38.53125 62.710937c-2.84375 4.628906-2.964844 10.433594-.3125 15.171875 2.648437 4.742188 7.660156 7.679688 13.089844 7.679688h22.683593v167.660156l-80.480468-48.945313c-9.492188-5.769531-15.390625-16.257812-15.390625-27.367187v-1.464844c18.046875-6.347656 31.019531-23.554688 31.019531-43.738281 0-25.5625-20.792969-46.355469-46.355469-46.355469-25.558593 0-46.355469 20.792969-46.355469 46.355469 0 20.433593 13.300782 37.8125 31.691407 43.964843v1.238282c0 21.511718 11.421875 41.824218 29.804687 53l80.960938 49.234375c8.289062 5.042969 13.835937 13.679687 15.105468 23.1875v.308593c-18.21875 6.25-31.355468 23.542969-31.355468 43.851563 0 25.5625 20.796875 46.355469 46.355468 46.355469 25.5625 0 46.359376-20.792969 46.359376-46.355469 0-20.25-13.0625-37.5-31.199219-43.796875-.042969-.664062-.09375-1.328125-.160157-1.992188v-37.160156c0-12.476562 7.3125-23.882812 18.640626-29.097656l24.761718-10.550781c7.621094-3.246094 11.167969-12.058594 7.921875-19.679688-3.25-7.621093-12.058593-11.164062-19.679687-7.917969zm-46.105469-159.289062 10.867187 18.554688h-22.265624zm-126.746094 78.34375c9.019531 0 16.355469 7.335938 16.355469 16.355469s-7.335938 16.355469-16.355469 16.355469-16.355469-7.335938-16.355469-16.355469 7.335938-16.355469 16.355469-16.355469zm126.207031 247.5c-9.019531 0-16.355468-7.335938-16.355468-16.355469s7.335937-16.355469 16.355468-16.355469c9.019532 0 16.355469 7.335938 16.355469 16.355469s-7.335937 16.355469-16.355469 16.355469zm0 0"/><path d="m412.023438 121.847656h-54.875c-8.28125 0-15 6.714844-15 15v54.875c0 8.28125 6.71875 15 15 15h12.390624c-.484374 10.074219-5.769531 19.332032-14.363281 24.992188-6.921875 4.554687-8.835937 13.855468-4.285156 20.773437 2.882813 4.378907 7.667969 6.753907 12.542969 6.753907 2.832031 0 5.695312-.796876 8.234375-2.46875 17.058593-11.230469 27.402343-29.851563 27.894531-50.050782h12.460938c8.28125 0 15-6.71875 15-15v-54.875c0-8.285156-6.714844-15-15-15zm-39.875 30h24.875v24.875h-24.875zm0 0"/></g></svg>