<svg viewBox="0 0 512 512" xmlns="http://www.w3.org/2000/svg" xmlns:xlink="http://www.w3.org/1999/xlink"><linearGradient id="a" gradientUnits="userSpaceOnUse" x1="9.5%" x2="100%" y1="13%" y2="68%"><stop offset="0" stop-color="#21ffff"/><stop offset="0.8" stop-color="#1190cb"/></linearGradient><path d="m512 256c0 141.386719-114.613281 256-256 256s-256-114.613281-256-256 114.613281-256 256-256 256 114.613281 256 256zm0 0" fill="url(#a)"/><g fill="#fff"><path d="m242.984375 402.824219h-120.785156c-5.308594 0-8.515625-2.964844-9.953125-4.730469-2.484375-3.054688-3.445313-7.035156-2.636719-10.917969 14.105469-67.746093 73.886719-117.222656 142.90625-118.839843 1.15625.042968 2.316406.070312 3.484375.070312 1.171875 0 2.339844-.027344 3.503906-.070312 34.953125.816406 68.519532 13.835937 94.863282 36.867187 6.238281 5.453125 15.714843 4.816406 21.167968-1.421875 5.453125-6.234375 4.816406-15.710938-1.421875-21.164062-17.597656-15.386719-37.878906-27.042969-59.636719-34.535157 21.910157-17.316406 35.992188-44.113281 35.992188-74.140625 0-52.089844-42.375-94.46875-94.464844-94.46875-52.09375 0-94.46875 42.378906-94.46875 94.46875 0 30.039063 14.09375 56.847656 36.019532 74.164063-20.09375 6.914062-38.953126 17.367187-55.53125 31.003906-31.554688 25.957031-53.496094 62.164063-61.78125 101.953125-2.65625 12.757812.527343 25.867188 8.734374 35.957031 8.164063 10.042969 20.277344 15.804688 33.226563 15.804688h120.78125c8.285156 0 15-6.714844 15-15 0-8.285157-6.714844-15-15-15zm-51.453125-228.882813c0-35.550781 28.921875-64.46875 64.46875-64.46875s64.46875 28.917969 64.46875 64.46875c0 34.507813-27.253906 62.761719-61.367188 64.386719-1.03125-.015625-2.066406-.035156-3.101562-.035156-1.046875 0-2.09375.015625-3.136719.035156-34.097656-1.640625-61.332031-29.890625-61.332031-64.386719zm0 0"/><path d="m426.40625 303.515625c-6.734375-4.824219-16.105469-3.269531-20.925781 3.464844l-67.5 94.285156c-1.53125 1.746094-3.433594 2.125-4.460938 2.191406-1.054687.074219-3.089843-.0625-4.882812-1.738281l-43.636719-42.582031c-5.929688-5.789063-15.425781-5.671875-21.210938.257812-5.785156 5.929688-5.671874 15.425781.257813 21.210938l43.722656 42.667969c.042969.042968.089844.085937.132813.128906 6.796875 6.46875 15.871094 10.070312 25.203125 10.070312.800781 0 1.605469-.027344 2.410156-.082031 10.167969-.675781 19.660156-5.621094 26.042969-13.5625.175781-.21875.34375-.4375.503906-.667969l67.8125-94.714844c4.820312-6.738281 3.269531-16.105468-3.46875-20.929687zm0 0"/></g></svg>