<svg viewBox="0 0 512 512" xmlns="http://www.w3.org/2000/svg" xmlns:xlink="http://www.w3.org/1999/xlink"><linearGradient id="a" gradientUnits="userSpaceOnUse" x1="9.5%" x2="100%" y1="13%" y2="68%"><stop offset="0" stop-color="#21ffff"/><stop offset="0.8" stop-color="#1190cb"/></linearGradient><path d="m512 256c0 141.386719-114.613281 256-256 256s-256-114.613281-256-256 114.613281-256 256-256 256 114.613281 256 256zm0 0" fill="url(#a)"/><path d="m439 254.21875c8.285156 0 15-6.714844 15-15v-42.65625c0-17.367188-9.65625-32.972656-25.195312-40.722656-15.542969-7.75-33.816407-6.078125-47.691407 4.371094l-.390625.296874-47.230468 40.664063v-19.15625c0-33.503906-27.257813-60.761719-60.761719-60.761719h-147.96875c-33.503907 0-60.761719 27.257813-60.761719 60.761719v147.96875c0 33.503906 27.257812 60.761719 60.761719 60.761719h147.96875c33.503906 0 60.761719-27.257813 60.761719-60.761719v-18.394531l46.859374 40.34375.761719.617187c8.085938 6.089844 17.667969 9.199219 27.332031 9.199219 6.914063 0 13.875-1.59375 20.359376-4.828125 15.539062-7.75 25.195312-23.355469 25.195312-40.722656 0-8.285157-6.714844-15-15-15s-15 6.714843-15 15c0 6.007812-3.210938 11.195312-8.585938 13.878906-5.253906 2.617187-11.175781 2.148437-15.917968-1.246094l-66.003906-56.828125v-31.242187l66.003906-56.832031c4.746094-3.394532 10.664062-3.863282 15.917968-1.246094 5.375 2.683594 8.585938 7.871094 8.585938 13.878906v42.65625c0 8.285156 6.714844 15 15 15zm-135.507812 75.765625c0 16.960937-13.800782 30.761719-30.765626 30.761719h-147.964843c-16.960938 0-30.761719-13.800782-30.761719-30.761719v-147.96875c0-16.960937 13.800781-30.761719 30.761719-30.761719h147.96875c16.960937 0 30.761719 13.800782 30.761719 30.761719zm0 0" fill="#fff"/></svg>