<svg viewBox="0 0 512 512" xmlns="http://www.w3.org/2000/svg" xmlns:xlink="http://www.w3.org/1999/xlink"><linearGradient id="a" gradientUnits="userSpaceOnUse" x1="9.5%" x2="100%" y1="13%" y2="68%"><stop offset="0" stop-color="#21ffff"/><stop offset="0.8" stop-color="#1190cb"/></linearGradient><path d="m512 256c0 141.386719-114.613281 256-256 256s-256-114.613281-256-256 114.613281-256 256-256 256 114.613281 256 256zm0 0" fill="url(#a)"/><g fill="#fff"><path d="m368.066406 308.632812c-2.417968 0-4.871094-.585937-7.144531-1.824218-7.28125-3.953125-9.976563-13.058594-6.023437-20.339844l.382812-.703125c3.183594-5.832031 7.988281-14.648437 7.988281-29.753906 0-15.691407-4.953125-24.4375-8.234375-30.222657-4.085937-7.210937-1.550781-16.363281 5.65625-20.445312 7.207032-4.085938 16.359375-1.554688 20.445313 5.652344 3.9375 6.953125 12.132812 21.414062 12.132812 45.015625 0 22.75-7.578125 36.648437-11.648437 44.117187l-.359375.660156c-2.71875 5.003907-7.871094 7.84375-13.195313 7.84375zm0 0"/><path d="m393.945312 383.464844c-3.863281 0-7.722656-1.484375-10.65625-4.445313-5.832031-5.886719-5.785156-15.382812.101563-21.214843 27.457031-27.199219 42.582031-63.371094 42.582031-101.859376 0-38.40625-15.125-74.535156-42.582031-101.734374-5.886719-5.832032-5.933594-15.328126-.101563-21.214844 5.828126-5.886719 15.328126-5.929688 21.210938-.101563 33.191406 32.875 51.472656 76.578125 51.472656 123.050781 0 46.554688-18.28125 90.296876-51.472656 123.175782-2.921875 2.894531-6.738281 4.34375-10.554688 4.34375zm0 0"/><path d="m268.230469 456.089844c-11.824219 0-23.320313-4.597656-32.328125-13.386719-.3125-.300781-.609375-.617187-.894532-.949219l-89.015624-103.339844h-27.9375c-34.203126 0-62.027344-27.824218-62.027344-62.027343v-40.757813c0-34.199218 27.824218-62.027344 62.027344-62.027344h27.9375l89.015624-103.339843c.285157-.332031.582032-.648438.894532-.953125 13.632812-13.292969 32.996094-16.953125 50.542968-9.558594 17.546876 7.398438 28.445313 23.820312 28.445313 42.863281v228.636719c0 8.285156-6.714844 15-15 15s-15-6.714844-15-15v-228.636719c0-10.167969-7.730469-14.21875-10.101563-15.21875-2.324218-.980469-10.355468-3.605469-17.535156 3.007813l-93.019531 107.988281c-2.851563 3.308594-7 5.210937-11.367187 5.210937h-34.8125c-17.660157 0-32.027344 14.367188-32.027344 32.027344v40.757813c0 17.660156 14.367187 32.023437 32.027344 32.023437h34.8125c4.367187 0 8.515624 1.902344 11.367187 5.210938l93.019531 107.992187c7.253906 6.6875 15.332032 4.050781 17.671875 3.0625 2.335938-.984375 9.964844-4.984375 9.964844-15.046875 0-8.285156 6.714844-15 15-15s15 6.714844 15 15c0 18.96875-10.847656 35.328125-28.3125 42.691406-6 2.53125-12.21875 3.769532-18.347656 3.769532zm0 0"/></g></svg>