<svg viewBox="0 0 512 512" xmlns="http://www.w3.org/2000/svg" xmlns:xlink="http://www.w3.org/1999/xlink"><linearGradient id="a" gradientUnits="userSpaceOnUse" x1="9.5%" x2="100%" y1="13%" y2="68%"><stop offset="0" stop-color="#21ffff"/><stop offset="0.8" stop-color="#1190cb"/></linearGradient><path d="m512 256c0 141.386719-114.613281 256-256 256s-256-114.613281-256-256 114.613281-256 256-256 256 114.613281 256 256zm0 0" fill="url(#a)"/><g fill="#fff"><path d="m134.261719 243.734375h-48.261719c-8.285156 0-15-6.714844-15-15s6.714844-15 15-15h48.261719c8.285156 0 15 6.714844 15 15s-6.714844 15-15 15zm0 0"/><path d="m322.992188 243.734375h-116.695313c-8.285156 0-15-6.714844-15-15s6.714844-15 15-15h116.695313c15.957031 0 28.9375-13.015625 28.9375-29.011719 0-15.957031-12.980469-28.9375-28.9375-28.9375-7.789063 0-15.097657 3.046875-20.574219 8.585938-5.828125 5.886718-15.324219 5.9375-21.214844.109375-5.886719-5.824219-5.9375-15.324219-.109375-21.210938 11.15625-11.277343 26.035156-17.484375 41.898438-17.484375 32.5 0 58.9375 26.4375 58.9375 58.9375.003906 32.539063-26.4375 59.011719-58.9375 59.011719zm0 0"/><path d="m244.476562 300.640625c-.003906 0-.003906 0-.007812 0l-158.476562-.066406c-8.28125-.003907-14.996094-6.722657-14.992188-15.007813.003906-8.28125 6.71875-14.992187 15-14.992187h.007812l158.472657.066406c8.285156.003906 14.996093 6.722656 14.996093 15.007813-.003906 8.28125-6.722656 14.992187-15 14.992187zm0 0"/><path d="m382.058594 388.523438c-15.742188 0-30.542969-6.132813-41.675782-17.265626-5.859374-5.855468-5.859374-15.351562 0-21.210937 5.855469-5.859375 15.355469-5.859375 21.210938 0 5.46875 5.464844 12.734375 8.476563 20.464844 8.476563 15.957031 0 28.941406-12.984376 28.941406-28.941407 0-15.996093-12.984375-29.011719-28.941406-29.011719h-65.550782c-8.285156 0-15-6.714843-15-15 0-8.28125 6.714844-15 15-15h65.550782c32.5 0 58.941406 26.472657 58.941406 59.011719 0 32.5-26.441406 58.941407-58.941406 58.941407zm0 0"/><path d="m194.769531 189.710938h-108.769531c-8.285156 0-15-6.71875-15-15 0-8.285157 6.714844-15 15-15h108.769531c11.589844 0 21.019531-9.453126 21.019531-21.074219 0-11.589844-9.429687-21.019531-21.019531-21.019531-5.707031 0-11.050781 2.253906-15.039062 6.339843-5.789063 5.929688-15.285157 6.042969-21.210938.257813-5.929687-5.785156-6.046875-15.28125-.257812-21.210938 9.683593-9.921875 22.648437-15.386718 36.507812-15.386718 28.132813 0 51.019531 22.890624 51.019531 51.019531 0 28.160156-22.886718 51.074219-51.019531 51.074219zm0 0"/><path d="m223.585938 430.304688c-13.863282 0-26.828126-5.464844-36.511719-15.386719-5.789063-5.929688-5.671875-15.425781.257812-21.210938 5.925781-5.785156 15.421875-5.671875 21.210938.257813 3.988281 4.085937 9.332031 6.339844 15.042969 6.339844 11.585937 0 21.015624-9.429688 21.015624-21.019532 0-11.621094-9.429687-21.070312-21.015624-21.070312h-137.585938c-8.285156 0-15-6.71875-15-15 0-8.285156 6.714844-15 15-15h137.585938c28.128906 0 51.015624 22.910156 51.015624 51.070312 0 28.132813-22.886718 51.019532-51.015624 51.019532zm0 0"/></g></svg>