<svg viewBox="0 0 512 512" xmlns="http://www.w3.org/2000/svg" xmlns:xlink="http://www.w3.org/1999/xlink"><linearGradient id="a" gradientUnits="userSpaceOnUse" x1="9.5%" x2="100%" y1="13%" y2="68%"><stop offset="0" stop-color="#21ffff"/><stop offset="0.8" stop-color="#1190cb"/></linearGradient><path d="m512 256c0 141.386719-114.613281 256-256 256s-256-114.613281-256-256 114.613281-256 256-256 256 114.613281 256 256zm0 0" fill="url(#a)"/><g fill="#fff"><path d="m256 389.355469c-11.066406 0-108.945312-.21875-136.945312-7.792969-19.6875-5.289062-35.226563-20.8125-40.535157-40.496094-7.433593-27.910156-7.519531-83.226562-7.519531-85.566406 0-2.328125.085938-57.359375 7.496094-85.484375 5.269531-19.542969 21.160156-35.542969 40.507812-40.847656.050782-.011719.101563-.027344.152344-.039063 27.683594-7.273437 125.75-7.484375 136.84375-7.484375 11.097656 0 109.238281.21875 136.984375 7.800781 19.648437 5.28125 35.1875 20.804688 40.496094 40.488282 7.71875 28.167968 7.53125 83.578125 7.519531 85.921875 0 .078125 0 3.761719-.121094 9.671875-.167968 8.285156-6.988281 14.847656-15.300781 14.695312-8.28125-.167968-14.859375-7.019531-14.691406-15.300781.109375-5.578125.113281-9.109375.113281-9.144531.070312-14.914063-.949219-57.839844-6.46875-77.972656-2.550781-9.460938-9.976562-16.871094-19.394531-19.40625-18.148438-4.957032-87.160157-6.753907-129.136719-6.753907-29.027344 0-108.734375 1.167969-129.140625 6.476563-9.25 2.566406-16.851563 10.261718-19.375 19.621094-6.398437 24.289062-6.484375 77.226562-6.484375 77.757812.003906 14.863281 1.175781 57.820312 6.496094 77.800781 2.523437 9.355469 9.949218 16.765625 19.367187 19.300781 20.5 5.542969 100.167969 6.753907 129.136719 6.753907 29.066406 0 108.9375-1.167969 129.21875-6.5 9.335938-2.507813 16.761719-9.921875 19.296875-19.320313 2.15625-8 10.390625-12.738281 18.386719-10.574218 8 2.152343 12.734375 10.386718 10.578125 18.386718-5.304688 19.683594-20.847657 35.207032-40.554688 40.503906-27.765625 7.292969-125.835937 7.503907-136.925781 7.503907zm0 0"/><path d="m234.441406 319.867188c-4.914062 0-9.832031-1.289063-14.320312-3.875-9.027344-5.199219-14.417969-14.53125-14.417969-24.964844v-71.773438c0-10.433594 5.390625-19.769531 14.417969-24.96875 9-5.183594 19.738281-5.164062 28.722656.046875l61.84375 35.890625c8.976562 5.207032 14.335938 14.523438 14.335938 24.917969s-5.359376 19.710937-14.335938 24.917969l-61.84375 35.886718c-4.503906 2.617188-9.453125 3.921876-14.402344 3.921876zm1.261719-98.472657v67.492188l58.15625-33.746094zm0 0"/></g></svg>